<svg xmlns="http://www.w3.org/2000/svg" xmlns:xlink="http://www.w3.org/1999/xlink" width="128" zoomAndPan="magnify" viewBox="0 0 96 95.999999" height="128" preserveAspectRatio="xMidYMid meet" version="1.2"><defs><clipPath id="3be2eccd4e"><path d="M 46.226562 57.949219 L 49.976562 57.949219 L 49.976562 61.699219 L 46.226562 61.699219 Z M 46.226562 57.949219 "/></clipPath><clipPath id="19d44f1bcb"><path d="M 30.179688 8.953125 L 62.429688 8.953125 L 62.429688 86.953125 L 30.179688 86.953125 Z M 30.179688 8.953125 "/></clipPath><clipPath id="9f70da5cab"><path d="M 30.179688 36 L 62.429688 36 L 62.429688 69 L 30.179688 69 Z M 30.179688 36 "/></clipPath><clipPath id="abe4fe8c3a"><path d="M 30.179688 8.953125 L 62.429688 8.953125 L 62.429688 35 L 30.179688 35 Z M 30.179688 8.953125 "/></clipPath><clipPath id="f64bc32baf"><path d="M 30.179688 54 L 39 54 L 39 61 L 30.179688 61 Z M 30.179688 54 "/></clipPath><clipPath id="8852a61aa9"><path d="M 54 54 L 62.429688 54 L 62.429688 61 L 54 61 Z M 54 54 "/></clipPath><clipPath id="04d14ccd76"><path d="M 34 80 L 45 80 L 45 86.953125 L 34 86.953125 Z M 34 80 "/></clipPath><clipPath id="37563f8860"><path d="M 48 80 L 59 80 L 59 86.953125 L 48 86.953125 Z M 48 80 "/></clipPath><clipPath id="6674b2c869"><path d="M 30.179688 20 L 33 20 L 33 25 L 30.179688 25 Z M 30.179688 20 "/></clipPath><clipPath id="1f1030d6c5"><path d="M 42 8.953125 L 47 8.953125 L 47 11 L 42 11 Z M 42 8.953125 "/></clipPath><clipPath id="c7703594a8"><path d="M 56 16 L 62.429688 16 L 62.429688 25 L 56 25 Z M 56 16 "/></clipPath><clipPath id="3b4480d7ba"><path d="M 46 8.953125 L 55 8.953125 L 55 15 L 46 15 Z M 46 8.953125 "/></clipPath><clipPath id="44afa0ed14"><path d="M 30.179688 50 L 33 50 L 33 67 L 30.179688 67 Z M 30.179688 50 "/></clipPath><clipPath id="589365dddb"><path d="M 60 50 L 62.429688 50 L 62.429688 67 L 60 67 Z M 60 50 "/></clipPath><clipPath id="818a80be18"><path d="M 30.179688 52 L 37 52 L 37 55 L 30.179688 55 Z M 30.179688 52 "/></clipPath><clipPath id="aaa5fc51f1"><path d="M 36 84 L 43 84 L 43 86.953125 L 36 86.953125 Z M 36 84 "/></clipPath><clipPath id="8d1b72ade9"><path d="M 50 84 L 57 84 L 57 86.953125 L 50 86.953125 Z M 50 84 "/></clipPath></defs><g id="3ef20645c3"><g clip-rule="nonzero" clip-path="url(#3be2eccd4e)"><path style=" stroke:none;fill-rule:nonzero;fill:#231815;fill-opacity:1;" d="M 49.765625 59.71875 C 49.765625 59.953125 49.71875 60.179688 49.628906 60.394531 C 49.539062 60.613281 49.414062 60.804688 49.246094 60.96875 C 49.082031 61.136719 48.890625 61.261719 48.671875 61.351562 C 48.457031 61.441406 48.230469 61.488281 47.996094 61.488281 C 47.761719 61.488281 47.535156 61.441406 47.316406 61.351562 C 47.101562 61.261719 46.910156 61.136719 46.742188 60.96875 C 46.578125 60.804688 46.449219 60.613281 46.359375 60.394531 C 46.269531 60.179688 46.226562 59.953125 46.226562 59.71875 C 46.226562 59.484375 46.269531 59.257812 46.359375 59.039062 C 46.449219 58.824219 46.578125 58.632812 46.742188 58.46875 C 46.910156 58.300781 47.101562 58.171875 47.316406 58.082031 C 47.535156 57.992188 47.761719 57.949219 47.996094 57.949219 C 48.230469 57.949219 48.457031 57.992188 48.671875 58.082031 C 48.890625 58.171875 49.082031 58.300781 49.246094 58.46875 C 49.414062 58.632812 49.539062 58.824219 49.628906 59.039062 C 49.71875 59.257812 49.765625 59.484375 49.765625 59.71875 Z M 49.765625 59.71875 "/></g><g clip-rule="nonzero" clip-path="url(#19d44f1bcb)"><path style=" stroke:none;fill-rule:nonzero;fill:#160059;fill-opacity:1;" d="M 54.355469 34.953125 L 56.367188 34.953125 L 56.367188 32.953125 L 58.382812 32.953125 L 58.382812 28.953125 L 60.394531 28.953125 L 60.394531 24.953125 L 62.40625 24.953125 L 62.40625 20.953125 L 60.394531 20.953125 L 60.394531 16.953125 L 58.382812 16.953125 L 58.382812 12.953125 L 54.355469 12.953125 L 54.355469 10.953125 L 50.332031 10.953125 L 50.332031 8.953125 L 42.28125 8.953125 L 42.28125 10.953125 L 38.253906 10.953125 L 38.253906 12.953125 L 34.230469 12.953125 L 34.230469 16.953125 L 32.214844 16.953125 L 32.214844 20.953125 L 30.203125 20.953125 L 30.203125 24.953125 L 32.214844 24.953125 L 32.214844 28.953125 L 34.230469 28.953125 L 34.230469 32.953125 L 36.242188 32.953125 L 36.242188 34.953125 L 38.253906 34.953125 L 38.253906 38.953125 L 36.242188 38.953125 L 36.242188 40.953125 L 34.230469 40.953125 L 34.230469 44.953125 L 32.214844 44.953125 L 32.214844 50.953125 L 30.203125 50.953125 L 30.203125 66.953125 L 32.214844 66.953125 L 32.214844 68.953125 L 36.242188 68.953125 L 36.242188 76.953125 L 34.230469 76.953125 L 34.230469 84.953125 L 36.242188 84.953125 L 36.242188 86.953125 L 42.28125 86.953125 L 42.28125 84.953125 L 44.292969 84.953125 L 44.292969 80.953125 L 48.316406 80.953125 L 48.316406 84.953125 L 50.332031 84.953125 L 50.332031 86.953125 L 56.367188 86.953125 L 56.367188 84.953125 L 58.382812 84.953125 L 58.382812 76.953125 L 56.367188 76.953125 L 56.367188 68.953125 L 60.394531 68.953125 L 60.394531 66.953125 L 62.40625 66.953125 L 62.40625 50.953125 L 60.394531 50.953125 L 60.394531 44.953125 L 58.382812 44.953125 L 58.382812 40.953125 L 56.367188 40.953125 L 56.367188 38.953125 L 54.355469 38.953125 Z M 54.355469 34.953125 "/></g><path style=" stroke:none;fill-rule:nonzero;fill:#ffaa00;fill-opacity:1;" d="M 38.253906 36.953125 L 54.355469 36.953125 L 54.355469 60.953125 L 38.253906 60.953125 Z M 38.253906 36.953125 "/><g clip-rule="nonzero" clip-path="url(#9f70da5cab)"><path style=" stroke:none;fill-rule:nonzero;fill:#ffaa00;fill-opacity:1;" d="M 62.40625 50.953125 L 60.394531 50.953125 L 60.394531 44.953125 L 58.382812 44.953125 L 58.382812 40.953125 L 56.367188 40.953125 L 56.367188 38.953125 L 54.355469 38.953125 L 54.355469 36.953125 L 52.34375 36.953125 L 52.34375 38.953125 L 50.332031 38.953125 L 50.332031 42.953125 L 42.28125 42.953125 L 42.28125 38.953125 L 40.265625 38.953125 L 40.265625 36.953125 L 38.253906 36.953125 L 38.253906 38.953125 L 36.242188 38.953125 L 36.242188 40.953125 L 34.230469 40.953125 L 34.230469 44.953125 L 32.214844 44.953125 L 32.214844 50.953125 L 30.203125 50.953125 L 30.203125 66.953125 L 32.214844 66.953125 L 32.214844 68.953125 L 60.394531 68.953125 L 60.394531 66.953125 L 62.40625 66.953125 Z M 62.40625 50.953125 "/></g><path style=" stroke:none;fill-rule:nonzero;fill:#af3a0c;fill-opacity:1;" d="M 36.242188 24.953125 L 36.242188 34.953125 L 38.253906 34.953125 L 38.253906 36.953125 L 40.265625 36.953125 L 40.265625 38.953125 L 44.292969 38.953125 L 44.292969 42.953125 L 48.316406 42.953125 L 48.316406 38.953125 L 52.34375 38.953125 L 52.34375 36.953125 L 54.355469 36.953125 L 54.355469 34.953125 L 56.367188 34.953125 L 56.367188 24.953125 Z M 36.242188 24.953125 "/><g clip-rule="nonzero" clip-path="url(#abe4fe8c3a)"><path style=" stroke:none;fill-rule:nonzero;fill:#00207a;fill-opacity:1;" d="M 60.394531 20.953125 L 60.394531 16.953125 L 58.382812 16.953125 L 58.382812 12.953125 L 54.355469 12.953125 L 54.355469 10.953125 L 50.332031 10.953125 L 50.332031 8.953125 L 42.28125 8.953125 L 42.28125 10.953125 L 38.253906 10.953125 L 38.253906 12.953125 L 34.230469 12.953125 L 34.230469 16.953125 L 32.214844 16.953125 L 32.214844 20.953125 L 30.203125 20.953125 L 30.203125 24.953125 L 32.214844 24.953125 L 32.214844 28.953125 L 34.230469 28.953125 L 34.230469 32.953125 L 36.242188 32.953125 L 36.242188 34.953125 L 38.253906 34.953125 L 38.253906 28.953125 L 40.265625 28.953125 L 40.265625 26.953125 L 44.292969 26.953125 L 44.292969 24.953125 L 48.316406 24.953125 L 48.316406 26.953125 L 52.34375 26.953125 L 52.34375 28.953125 L 54.355469 28.953125 L 54.355469 34.953125 L 56.367188 34.953125 L 56.367188 32.953125 L 58.382812 32.953125 L 58.382812 28.953125 L 60.394531 28.953125 L 60.394531 24.953125 L 62.40625 24.953125 L 62.40625 20.953125 Z M 60.394531 20.953125 "/></g><g clip-rule="nonzero" clip-path="url(#f64bc32baf)"><path style=" stroke:none;fill-rule:nonzero;fill:#af3a0c;fill-opacity:1;" d="M 38.253906 54.953125 L 30.203125 54.953125 L 30.203125 58.953125 L 32.214844 58.953125 L 32.214844 60.953125 L 36.242188 60.953125 L 36.242188 58.953125 L 38.253906 58.953125 Z M 38.253906 54.953125 "/></g><g clip-rule="nonzero" clip-path="url(#8852a61aa9)"><path style=" stroke:none;fill-rule:nonzero;fill:#af3a0c;fill-opacity:1;" d="M 62.40625 54.953125 L 54.355469 54.953125 L 54.355469 58.953125 L 56.367188 58.953125 L 56.367188 60.953125 L 60.394531 60.953125 L 60.394531 58.953125 L 62.40625 58.953125 Z M 62.40625 54.953125 "/></g><g clip-rule="nonzero" clip-path="url(#04d14ccd76)"><path style=" stroke:none;fill-rule:nonzero;fill:#ffaa00;fill-opacity:1;" d="M 34.230469 84.953125 L 36.242188 84.953125 L 36.242188 86.953125 L 42.28125 86.953125 L 42.28125 84.953125 L 44.292969 84.953125 L 44.292969 80.953125 L 34.230469 80.953125 Z M 34.230469 84.953125 "/></g><g clip-rule="nonzero" clip-path="url(#37563f8860)"><path style=" stroke:none;fill-rule:nonzero;fill:#ffaa00;fill-opacity:1;" d="M 58.382812 80.953125 L 48.316406 80.953125 L 48.316406 84.953125 L 50.332031 84.953125 L 50.332031 86.953125 L 56.367188 86.953125 L 56.367188 84.953125 L 58.382812 84.953125 Z M 58.382812 80.953125 "/></g><path style=" stroke:none;fill-rule:nonzero;fill:#00af47;fill-opacity:1;" d="M 56.367188 76.953125 L 56.367188 68.953125 L 54.355469 68.953125 L 54.355469 66.953125 L 52.34375 66.953125 L 52.34375 64.953125 L 50.332031 64.953125 L 50.332031 38.953125 L 42.28125 38.953125 L 42.28125 64.953125 L 40.265625 64.953125 L 40.265625 66.953125 L 38.253906 66.953125 L 38.253906 68.953125 L 36.242188 68.953125 L 36.242188 76.953125 L 34.230469 76.953125 L 34.230469 80.953125 L 58.382812 80.953125 L 58.382812 76.953125 Z M 56.367188 76.953125 "/><g clip-rule="nonzero" clip-path="url(#6674b2c869)"><path style=" stroke:none;fill-rule:nonzero;fill:#160059;fill-opacity:1;" d="M 30.203125 20.953125 L 32.214844 20.953125 L 32.214844 24.953125 L 30.203125 24.953125 Z M 30.203125 20.953125 "/></g><path style=" stroke:none;fill-rule:nonzero;fill:#160059;fill-opacity:1;" d="M 32.214844 16.953125 L 34.230469 16.953125 L 34.230469 20.953125 L 32.214844 20.953125 Z M 32.214844 16.953125 "/><path style=" stroke:none;fill-rule:nonzero;fill:#160059;fill-opacity:1;" d="M 34.230469 12.953125 L 36.242188 12.953125 L 36.242188 16.953125 L 34.230469 16.953125 Z M 34.230469 12.953125 "/><path style=" stroke:none;fill-rule:nonzero;fill:#160059;fill-opacity:1;" d="M 34.230469 12.953125 L 38.253906 12.953125 L 38.253906 14.953125 L 34.230469 14.953125 Z M 34.230469 12.953125 "/><path style=" stroke:none;fill-rule:nonzero;fill:#160059;fill-opacity:1;" d="M 38.253906 10.953125 L 42.28125 10.953125 L 42.28125 12.953125 L 38.253906 12.953125 Z M 38.253906 10.953125 "/><g clip-rule="nonzero" clip-path="url(#1f1030d6c5)"><path style=" stroke:none;fill-rule:nonzero;fill:#160059;fill-opacity:1;" d="M 42.28125 8.953125 L 46.304688 8.953125 L 46.304688 10.953125 L 42.28125 10.953125 Z M 42.28125 8.953125 "/></g><path style=" stroke:none;fill-rule:nonzero;fill:#160059;fill-opacity:1;" d="M 54.355469 32.953125 L 56.367188 32.953125 L 56.367188 34.953125 L 54.355469 34.953125 Z M 54.355469 32.953125 "/><path style=" stroke:none;fill-rule:nonzero;fill:#160059;fill-opacity:1;" d="M 32.214844 24.953125 L 34.230469 24.953125 L 34.230469 28.953125 L 32.214844 28.953125 Z M 32.214844 24.953125 "/><path style=" stroke:none;fill-rule:nonzero;fill:#160059;fill-opacity:1;" d="M 34.230469 28.953125 L 36.242188 28.953125 L 36.242188 32.953125 L 34.230469 32.953125 Z M 34.230469 28.953125 "/><path style=" stroke:none;fill-rule:nonzero;fill:#160059;fill-opacity:1;" d="M 36.242188 32.953125 L 38.253906 32.953125 L 38.253906 34.953125 L 36.242188 34.953125 Z M 36.242188 32.953125 "/><path style=" stroke:none;fill-rule:nonzero;fill:#160059;fill-opacity:1;" d="M 38.253906 34.953125 L 40.265625 34.953125 L 40.265625 36.953125 L 38.253906 36.953125 Z M 38.253906 34.953125 "/><path style=" stroke:none;fill-rule:nonzero;fill:#160059;fill-opacity:1;" d="M 40.265625 36.953125 L 44.292969 36.953125 L 44.292969 38.953125 L 40.265625 38.953125 Z M 40.265625 36.953125 "/><path style=" stroke:none;fill-rule:nonzero;fill:#160059;fill-opacity:0.5;" d="M 42.28125 38.953125 L 44.292969 38.953125 L 44.292969 40.953125 L 42.28125 40.953125 Z M 42.28125 38.953125 "/><path style=" stroke:none;fill-rule:nonzero;fill:#160059;fill-opacity:0.5;" d="M 48.316406 38.953125 L 50.332031 38.953125 L 50.332031 40.953125 L 48.316406 40.953125 Z M 48.316406 38.953125 "/><path style=" stroke:none;fill-rule:nonzero;fill:#160059;fill-opacity:1;" d="M 48.316406 36.953125 L 52.34375 36.953125 L 52.34375 38.953125 L 48.316406 38.953125 Z M 48.316406 36.953125 "/><path style=" stroke:none;fill-rule:nonzero;fill:#160059;fill-opacity:1;" d="M 52.34375 34.953125 L 54.355469 34.953125 L 54.355469 36.953125 L 52.34375 36.953125 Z M 52.34375 34.953125 "/><path style=" stroke:none;fill-rule:nonzero;fill:#160059;fill-opacity:1;" d="M 44.292969 24.953125 L 48.316406 24.953125 L 48.316406 26.953125 L 44.292969 26.953125 Z M 44.292969 24.953125 "/><path style=" stroke:none;fill-rule:nonzero;fill:#160059;fill-opacity:1;" d="M 40.265625 26.953125 L 44.292969 26.953125 L 44.292969 28.953125 L 40.265625 28.953125 Z M 40.265625 26.953125 "/><path style=" stroke:none;fill-rule:nonzero;fill:#160059;fill-opacity:1;" d="M 38.253906 28.953125 L 40.265625 28.953125 L 40.265625 32.953125 L 38.253906 32.953125 Z M 38.253906 28.953125 "/><path style=" stroke:none;fill-rule:nonzero;fill:#160059;fill-opacity:1;" d="M 48.316406 26.953125 L 52.34375 26.953125 L 52.34375 28.953125 L 48.316406 28.953125 Z M 48.316406 26.953125 "/><path style=" stroke:none;fill-rule:nonzero;fill:#160059;fill-opacity:1;" d="M 52.34375 28.953125 L 54.355469 28.953125 L 54.355469 32.953125 L 52.34375 32.953125 Z M 52.34375 28.953125 "/><path style=" stroke:none;fill-rule:nonzero;fill:#160059;fill-opacity:0.5;" d="M 56.367188 14.953125 L 56.367188 16.953125 L 58.382812 16.953125 L 58.382812 12.953125 L 54.355469 12.953125 L 54.355469 14.953125 Z M 56.367188 14.953125 "/><g clip-rule="nonzero" clip-path="url(#c7703594a8)"><path style=" stroke:none;fill-rule:nonzero;fill:#160059;fill-opacity:0.5;" d="M 60.394531 20.953125 L 60.394531 16.953125 L 58.382812 16.953125 L 58.382812 18.953125 L 56.367188 18.953125 L 56.367188 20.953125 L 58.382812 20.953125 L 58.382812 22.953125 L 60.394531 22.953125 L 60.394531 24.953125 L 62.40625 24.953125 L 62.40625 20.953125 Z M 60.394531 20.953125 "/></g><path style=" stroke:none;fill-rule:nonzero;fill:#160059;fill-opacity:0.5;" d="M 58.382812 26.953125 L 56.367188 26.953125 L 56.367188 28.953125 L 54.355469 28.953125 L 54.355469 30.953125 L 56.367188 30.953125 L 56.367188 32.953125 L 58.382812 32.953125 L 58.382812 28.953125 L 60.394531 28.953125 L 60.394531 24.953125 L 58.382812 24.953125 Z M 58.382812 26.953125 "/><path style=" stroke:none;fill-rule:nonzero;fill:#160059;fill-opacity:0.5;" d="M 44.292969 10.953125 L 46.304688 10.953125 L 46.304688 12.953125 L 44.292969 12.953125 Z M 44.292969 10.953125 "/><path style=" stroke:none;fill-rule:nonzero;fill:#160059;fill-opacity:0.5;" d="M 38.253906 12.953125 L 40.265625 12.953125 L 40.265625 14.953125 L 38.253906 14.953125 Z M 38.253906 12.953125 "/><path style=" stroke:none;fill-rule:nonzero;fill:#160059;fill-opacity:0.5;" d="M 36.242188 14.953125 L 38.253906 14.953125 L 38.253906 16.953125 L 36.242188 16.953125 Z M 36.242188 14.953125 "/><path style=" stroke:none;fill-rule:nonzero;fill:#160059;fill-opacity:0.5;" d="M 34.230469 16.953125 L 36.242188 16.953125 L 36.242188 18.953125 L 34.230469 18.953125 Z M 34.230469 16.953125 "/><path style=" stroke:none;fill-rule:nonzero;fill:#160059;fill-opacity:0.5;" d="M 36.242188 18.953125 L 38.253906 18.953125 L 38.253906 20.953125 L 36.242188 20.953125 Z M 36.242188 18.953125 "/><path style=" stroke:none;fill-rule:nonzero;fill:#160059;fill-opacity:0.5;" d="M 34.230469 20.953125 L 36.242188 20.953125 L 36.242188 22.953125 L 34.230469 22.953125 Z M 34.230469 20.953125 "/><path style=" stroke:none;fill-rule:nonzero;fill:#160059;fill-opacity:0.5;" d="M 32.214844 22.953125 L 34.230469 22.953125 L 34.230469 24.953125 L 32.214844 24.953125 Z M 32.214844 22.953125 "/><path style=" stroke:none;fill-rule:nonzero;fill:#160059;fill-opacity:0.5;" d="M 36.242188 22.953125 L 38.253906 22.953125 L 38.253906 24.953125 L 36.242188 24.953125 Z M 36.242188 22.953125 "/><path style=" stroke:none;fill-rule:nonzero;fill:#160059;fill-opacity:0.5;" d="M 34.230469 24.953125 L 36.242188 24.953125 L 36.242188 26.953125 L 34.230469 26.953125 Z M 34.230469 24.953125 "/><path style=" stroke:none;fill-rule:nonzero;fill:#160059;fill-opacity:0.5;" d="M 38.253906 24.953125 L 40.265625 24.953125 L 40.265625 26.953125 L 38.253906 26.953125 Z M 38.253906 24.953125 "/><path style=" stroke:none;fill-rule:nonzero;fill:#160059;fill-opacity:0.5;" d="M 36.242188 26.953125 L 38.253906 26.953125 L 38.253906 28.953125 L 36.242188 28.953125 Z M 36.242188 26.953125 "/><path style=" stroke:none;fill-rule:nonzero;fill:#160059;fill-opacity:0.5;" d="M 52.34375 26.953125 L 54.355469 26.953125 L 54.355469 28.953125 L 52.34375 28.953125 Z M 52.34375 26.953125 "/><path style=" stroke:none;fill-rule:nonzero;fill:#160059;fill-opacity:0.5;" d="M 36.242188 30.953125 L 38.253906 30.953125 L 38.253906 32.953125 L 36.242188 32.953125 Z M 36.242188 30.953125 "/><path style=" stroke:none;fill-rule:nonzero;fill:#160059;fill-opacity:0.5;" d="M 42.28125 24.953125 L 44.292969 24.953125 L 44.292969 26.953125 L 42.28125 26.953125 Z M 42.28125 24.953125 "/><path style=" stroke:none;fill-rule:nonzero;fill:#160059;fill-opacity:0.5;" d="M 50.332031 24.953125 L 52.34375 24.953125 L 52.34375 26.953125 L 50.332031 26.953125 Z M 50.332031 24.953125 "/><path style=" stroke:none;fill-rule:nonzero;fill:#160059;fill-opacity:0.5;" d="M 54.355469 24.953125 L 56.367188 24.953125 L 56.367188 26.953125 L 54.355469 26.953125 Z M 54.355469 24.953125 "/><path style=" stroke:none;fill-rule:nonzero;fill:#160059;fill-opacity:0.5;" d="M 40.265625 22.953125 L 42.28125 22.953125 L 42.28125 24.953125 L 40.265625 24.953125 Z M 40.265625 22.953125 "/><path style=" stroke:none;fill-rule:nonzero;fill:#160059;fill-opacity:0.5;" d="M 44.292969 22.953125 L 46.304688 22.953125 L 46.304688 24.953125 L 44.292969 24.953125 Z M 44.292969 22.953125 "/><path style=" stroke:none;fill-rule:nonzero;fill:#160059;fill-opacity:0.5;" d="M 48.316406 22.953125 L 50.332031 22.953125 L 50.332031 24.953125 L 48.316406 24.953125 Z M 48.316406 22.953125 "/><path style=" stroke:none;fill-rule:nonzero;fill:#160059;fill-opacity:0.5;" d="M 52.34375 22.953125 L 54.355469 22.953125 L 54.355469 24.953125 L 52.34375 24.953125 Z M 52.34375 22.953125 "/><path style=" stroke:none;fill-rule:nonzero;fill:#160059;fill-opacity:0.5;" d="M 56.367188 22.953125 L 58.382812 22.953125 L 58.382812 24.953125 L 56.367188 24.953125 Z M 56.367188 22.953125 "/><path style=" stroke:none;fill-rule:nonzero;fill:#160059;fill-opacity:0.5;" d="M 38.253906 20.953125 L 40.265625 20.953125 L 40.265625 22.953125 L 38.253906 22.953125 Z M 38.253906 20.953125 "/><path style=" stroke:none;fill-rule:nonzero;fill:#160059;fill-opacity:0.5;" d="M 42.28125 20.953125 L 44.292969 20.953125 L 44.292969 22.953125 L 42.28125 22.953125 Z M 42.28125 20.953125 "/><path style=" stroke:none;fill-rule:nonzero;fill:#160059;fill-opacity:0.5;" d="M 46.304688 20.953125 L 48.316406 20.953125 L 48.316406 22.953125 L 46.304688 22.953125 Z M 46.304688 20.953125 "/><path style=" stroke:none;fill-rule:nonzero;fill:#160059;fill-opacity:0.5;" d="M 50.332031 20.953125 L 52.34375 20.953125 L 52.34375 22.953125 L 50.332031 22.953125 Z M 50.332031 20.953125 "/><path style=" stroke:none;fill-rule:nonzero;fill:#160059;fill-opacity:0.5;" d="M 54.355469 20.953125 L 56.367188 20.953125 L 56.367188 22.953125 L 54.355469 22.953125 Z M 54.355469 20.953125 "/><path style=" stroke:none;fill-rule:nonzero;fill:#160059;fill-opacity:0.5;" d="M 40.265625 18.953125 L 42.28125 18.953125 L 42.28125 20.953125 L 40.265625 20.953125 Z M 40.265625 18.953125 "/><path style=" stroke:none;fill-rule:nonzero;fill:#160059;fill-opacity:0.5;" d="M 44.292969 18.953125 L 46.304688 18.953125 L 46.304688 20.953125 L 44.292969 20.953125 Z M 44.292969 18.953125 "/><path style=" stroke:none;fill-rule:nonzero;fill:#160059;fill-opacity:0.5;" d="M 48.316406 18.953125 L 50.332031 18.953125 L 50.332031 20.953125 L 48.316406 20.953125 Z M 48.316406 18.953125 "/><path style=" stroke:none;fill-rule:nonzero;fill:#160059;fill-opacity:0.5;" d="M 52.34375 18.953125 L 54.355469 18.953125 L 54.355469 20.953125 L 52.34375 20.953125 Z M 52.34375 18.953125 "/><path style=" stroke:none;fill-rule:nonzero;fill:#160059;fill-opacity:0.5;" d="M 38.253906 16.953125 L 40.265625 16.953125 L 40.265625 18.953125 L 38.253906 18.953125 Z M 38.253906 16.953125 "/><path style=" stroke:none;fill-rule:nonzero;fill:#160059;fill-opacity:0.5;" d="M 42.28125 16.953125 L 44.292969 16.953125 L 44.292969 18.953125 L 42.28125 18.953125 Z M 42.28125 16.953125 "/><path style=" stroke:none;fill-rule:nonzero;fill:#160059;fill-opacity:0.5;" d="M 46.304688 16.953125 L 48.316406 16.953125 L 48.316406 18.953125 L 46.304688 18.953125 Z M 46.304688 16.953125 "/><path style=" stroke:none;fill-rule:nonzero;fill:#160059;fill-opacity:0.5;" d="M 50.332031 16.953125 L 52.34375 16.953125 L 52.34375 18.953125 L 50.332031 18.953125 Z M 50.332031 16.953125 "/><path style=" stroke:none;fill-rule:nonzero;fill:#160059;fill-opacity:0.5;" d="M 54.355469 16.953125 L 56.367188 16.953125 L 56.367188 18.953125 L 54.355469 18.953125 Z M 54.355469 16.953125 "/><path style=" stroke:none;fill-rule:nonzero;fill:#160059;fill-opacity:0.5;" d="M 40.265625 14.953125 L 42.28125 14.953125 L 42.28125 16.953125 L 40.265625 16.953125 Z M 40.265625 14.953125 "/><path style=" stroke:none;fill-rule:nonzero;fill:#160059;fill-opacity:0.5;" d="M 44.292969 14.953125 L 46.304688 14.953125 L 46.304688 16.953125 L 44.292969 16.953125 Z M 44.292969 14.953125 "/><path style=" stroke:none;fill-rule:nonzero;fill:#160059;fill-opacity:0.5;" d="M 48.316406 14.953125 L 50.332031 14.953125 L 50.332031 16.953125 L 48.316406 16.953125 Z M 48.316406 14.953125 "/><path style=" stroke:none;fill-rule:nonzero;fill:#160059;fill-opacity:0.5;" d="M 52.34375 14.953125 L 54.355469 14.953125 L 54.355469 16.953125 L 52.34375 16.953125 Z M 52.34375 14.953125 "/><path style=" stroke:none;fill-rule:nonzero;fill:#160059;fill-opacity:0.5;" d="M 42.28125 12.953125 L 44.292969 12.953125 L 44.292969 14.953125 L 42.28125 14.953125 Z M 42.28125 12.953125 "/><path style=" stroke:none;fill-rule:nonzero;fill:#160059;fill-opacity:0.5;" d="M 46.304688 12.953125 L 48.316406 12.953125 L 48.316406 14.953125 L 46.304688 14.953125 Z M 46.304688 12.953125 "/><g clip-rule="nonzero" clip-path="url(#3b4480d7ba)"><path style=" stroke:none;fill-rule:nonzero;fill:#160059;fill-opacity:0.5;" d="M 48.316406 12.953125 L 50.332031 12.953125 L 50.332031 14.953125 L 52.34375 14.953125 L 52.34375 12.953125 L 54.355469 12.953125 L 54.355469 10.953125 L 50.332031 10.953125 L 50.332031 8.953125 L 46.304688 8.953125 L 46.304688 10.953125 L 48.316406 10.953125 Z M 48.316406 12.953125 "/></g><path style=" stroke:none;fill-rule:nonzero;fill:#160059;fill-opacity:1;" d="M 38.253906 36.953125 L 42.28125 36.953125 L 42.28125 38.953125 L 38.253906 38.953125 Z M 38.253906 36.953125 "/><path style=" stroke:none;fill-rule:nonzero;fill:#160059;fill-opacity:1;" d="M 36.242188 38.953125 L 38.253906 38.953125 L 38.253906 40.953125 L 36.242188 40.953125 Z M 36.242188 38.953125 "/><path style=" stroke:none;fill-rule:nonzero;fill:#160059;fill-opacity:1;" d="M 34.230469 40.953125 L 36.242188 40.953125 L 36.242188 44.953125 L 34.230469 44.953125 Z M 34.230469 40.953125 "/><path style=" stroke:none;fill-rule:nonzero;fill:#160059;fill-opacity:1;" d="M 32.214844 44.953125 L 34.230469 44.953125 L 34.230469 50.953125 L 32.214844 50.953125 Z M 32.214844 44.953125 "/><g clip-rule="nonzero" clip-path="url(#44afa0ed14)"><path style=" stroke:none;fill-rule:nonzero;fill:#160059;fill-opacity:1;" d="M 30.203125 50.953125 L 32.214844 50.953125 L 32.214844 66.953125 L 30.203125 66.953125 Z M 30.203125 50.953125 "/></g><path style=" stroke:none;fill-rule:nonzero;fill:#160059;fill-opacity:1;" d="M 50.332031 36.953125 L 54.355469 36.953125 L 54.355469 38.953125 L 50.332031 38.953125 Z M 50.332031 36.953125 "/><path style=" stroke:none;fill-rule:nonzero;fill:#160059;fill-opacity:0.5;" d="M 54.355469 38.953125 L 56.367188 38.953125 L 56.367188 40.953125 L 54.355469 40.953125 Z M 54.355469 38.953125 "/><path style=" stroke:none;fill-rule:nonzero;fill:#160059;fill-opacity:0.5;" d="M 56.367188 40.953125 L 58.382812 40.953125 L 58.382812 44.953125 L 56.367188 44.953125 Z M 56.367188 40.953125 "/><path style=" stroke:none;fill-rule:nonzero;fill:#160059;fill-opacity:0.5;" d="M 58.382812 44.953125 L 60.394531 44.953125 L 60.394531 50.953125 L 58.382812 50.953125 Z M 58.382812 44.953125 "/><g clip-rule="nonzero" clip-path="url(#589365dddb)"><path style=" stroke:none;fill-rule:nonzero;fill:#160059;fill-opacity:0.5;" d="M 60.394531 50.953125 L 62.40625 50.953125 L 62.40625 66.953125 L 60.394531 66.953125 Z M 60.394531 50.953125 "/></g><path style=" stroke:none;fill-rule:nonzero;fill:#160059;fill-opacity:1;" d="M 36.242188 54.953125 L 38.253906 54.953125 L 38.253906 58.953125 L 36.242188 58.953125 Z M 36.242188 54.953125 "/><path style=" stroke:none;fill-rule:nonzero;fill:#160059;fill-opacity:1;" d="M 32.214844 58.953125 L 36.242188 58.953125 L 36.242188 60.953125 L 32.214844 60.953125 Z M 32.214844 58.953125 "/><path style=" stroke:none;fill-rule:nonzero;fill:#160059;fill-opacity:1;" d="M 54.355469 54.953125 L 56.367188 54.953125 L 56.367188 58.953125 L 54.355469 58.953125 Z M 54.355469 54.953125 "/><path style=" stroke:none;fill-rule:nonzero;fill:#160059;fill-opacity:1;" d="M 56.367188 58.953125 L 60.394531 58.953125 L 60.394531 60.953125 L 56.367188 60.953125 Z M 56.367188 58.953125 "/><path style=" stroke:none;fill-rule:nonzero;fill:#160059;fill-opacity:1;" d="M 40.265625 36.953125 L 42.28125 36.953125 L 42.28125 60.953125 L 40.265625 60.953125 Z M 40.265625 36.953125 "/><path style=" stroke:none;fill-rule:nonzero;fill:#160059;fill-opacity:1;" d="M 50.332031 36.953125 L 52.34375 36.953125 L 52.34375 60.953125 L 50.332031 60.953125 Z M 50.332031 36.953125 "/><path style=" stroke:none;fill-rule:nonzero;fill:#160059;fill-opacity:1;" d="M 40.265625 60.953125 L 42.28125 60.953125 L 42.28125 64.953125 L 40.265625 64.953125 Z M 40.265625 60.953125 "/><path style=" stroke:none;fill-rule:nonzero;fill:#160059;fill-opacity:1;" d="M 38.253906 64.953125 L 40.265625 64.953125 L 40.265625 66.953125 L 38.253906 66.953125 Z M 38.253906 64.953125 "/><path style=" stroke:none;fill-rule:nonzero;fill:#160059;fill-opacity:1;" d="M 50.332031 60.953125 L 52.34375 60.953125 L 52.34375 64.953125 L 50.332031 64.953125 Z M 50.332031 60.953125 "/><path style=" stroke:none;fill-rule:nonzero;fill:#160059;fill-opacity:1;" d="M 52.34375 64.953125 L 54.355469 64.953125 L 54.355469 66.953125 L 52.34375 66.953125 Z M 52.34375 64.953125 "/><path style=" stroke:none;fill-rule:nonzero;fill:#160059;fill-opacity:1;" d="M 54.355469 66.953125 L 60.394531 66.953125 L 60.394531 68.953125 L 54.355469 68.953125 Z M 54.355469 66.953125 "/><path style=" stroke:none;fill-rule:nonzero;fill:#160059;fill-opacity:1;" d="M 32.214844 66.953125 L 38.253906 66.953125 L 38.253906 68.953125 L 32.214844 68.953125 Z M 32.214844 66.953125 "/><path style=" stroke:none;fill-rule:nonzero;fill:#160059;fill-opacity:0.5;" d="M 34.230469 56.953125 L 36.242188 56.953125 L 36.242188 58.953125 L 34.230469 58.953125 Z M 34.230469 56.953125 "/><path style=" stroke:none;fill-rule:nonzero;fill:#160059;fill-opacity:0.5;" d="M 56.367188 56.953125 L 58.382812 56.953125 L 58.382812 58.953125 L 56.367188 58.953125 Z M 56.367188 56.953125 "/><path style=" stroke:none;fill-rule:nonzero;fill:#160059;fill-opacity:0.5;" d="M 40.265625 38.953125 L 42.28125 38.953125 L 42.28125 40.953125 L 40.265625 40.953125 Z M 40.265625 38.953125 "/><path style=" stroke:none;fill-rule:nonzero;fill:#160059;fill-opacity:0.5;" d="M 50.332031 38.953125 L 52.34375 38.953125 L 52.34375 40.953125 L 50.332031 40.953125 Z M 50.332031 38.953125 "/><path style=" stroke:none;fill-rule:nonzero;fill:#160059;fill-opacity:0.5;" d="M 48.316406 60.953125 L 50.332031 60.953125 L 50.332031 64.953125 L 48.316406 64.953125 Z M 48.316406 60.953125 "/><path style=" stroke:none;fill-rule:nonzero;fill:#160059;fill-opacity:0.5;" d="M 42.28125 60.953125 L 44.292969 60.953125 L 44.292969 64.953125 L 42.28125 64.953125 Z M 42.28125 60.953125 "/><path style=" stroke:none;fill-rule:nonzero;fill:#160059;fill-opacity:0.2;" d="M 48.316406 64.953125 L 50.332031 64.953125 L 50.332031 78.953125 L 48.316406 78.953125 Z M 48.316406 64.953125 "/><path style=" stroke:none;fill-rule:nonzero;fill:#160059;fill-opacity:0.2;" d="M 42.28125 64.953125 L 44.292969 64.953125 L 44.292969 78.953125 L 42.28125 78.953125 Z M 42.28125 64.953125 "/><path style=" stroke:none;fill-rule:nonzero;fill:#160059;fill-opacity:0.5;" d="M 50.332031 64.953125 L 52.34375 64.953125 L 52.34375 66.953125 L 50.332031 66.953125 Z M 50.332031 64.953125 "/><path style=" stroke:none;fill-rule:nonzero;fill:#160059;fill-opacity:0.5;" d="M 40.265625 64.953125 L 42.28125 64.953125 L 42.28125 66.953125 L 40.265625 66.953125 Z M 40.265625 64.953125 "/><path style=" stroke:none;fill-rule:nonzero;fill:#160059;fill-opacity:0.5;" d="M 52.34375 66.953125 L 54.355469 66.953125 L 54.355469 68.953125 L 52.34375 68.953125 Z M 52.34375 66.953125 "/><path style=" stroke:none;fill-rule:nonzero;fill:#160059;fill-opacity:0.5;" d="M 38.253906 66.953125 L 40.265625 66.953125 L 40.265625 68.953125 L 38.253906 68.953125 Z M 38.253906 66.953125 "/><path style=" stroke:none;fill-rule:nonzero;fill:#160059;fill-opacity:0.5;" d="M 54.355469 68.953125 L 56.367188 68.953125 L 56.367188 70.953125 L 54.355469 70.953125 Z M 54.355469 68.953125 "/><path style=" stroke:none;fill-rule:nonzero;fill:#160059;fill-opacity:0.5;" d="M 36.242188 68.953125 L 38.253906 68.953125 L 38.253906 70.953125 L 36.242188 70.953125 Z M 36.242188 68.953125 "/><path style=" stroke:none;fill-rule:nonzero;fill:#160059;fill-opacity:1;" d="M 44.292969 64.953125 L 48.316406 64.953125 L 48.316406 80.953125 L 44.292969 80.953125 Z M 44.292969 64.953125 "/><path style=" stroke:none;fill-rule:nonzero;fill:#160059;fill-opacity:1;" d="M 36.242188 66.953125 L 38.253906 66.953125 L 38.253906 76.953125 L 36.242188 76.953125 Z M 36.242188 66.953125 "/><path style=" stroke:none;fill-rule:nonzero;fill:#160059;fill-opacity:1;" d="M 54.355469 66.953125 L 56.367188 66.953125 L 56.367188 76.953125 L 54.355469 76.953125 Z M 54.355469 66.953125 "/><path style=" stroke:none;fill-rule:nonzero;fill:#160059;fill-opacity:1;" d="M 34.230469 76.953125 L 36.242188 76.953125 L 36.242188 80.953125 L 34.230469 80.953125 Z M 34.230469 76.953125 "/><path style=" stroke:none;fill-rule:nonzero;fill:#160059;fill-opacity:1;" d="M 56.367188 76.953125 L 58.382812 76.953125 L 58.382812 80.953125 L 56.367188 80.953125 Z M 56.367188 76.953125 "/><path style=" stroke:none;fill-rule:nonzero;fill:#160059;fill-opacity:1;" d="M 34.230469 78.953125 L 56.367188 78.953125 L 56.367188 80.953125 L 34.230469 80.953125 Z M 34.230469 78.953125 "/><path style=" stroke:none;fill-rule:nonzero;fill:#160059;fill-opacity:1;" d="M 42.28125 56.953125 L 50.332031 56.953125 L 50.332031 58.953125 L 42.28125 58.953125 Z M 42.28125 56.953125 "/><path style=" stroke:none;fill-rule:nonzero;fill:#160059;fill-opacity:0.2;" d="M 36.242188 76.953125 L 38.253906 76.953125 L 38.253906 78.953125 L 36.242188 78.953125 Z M 36.242188 76.953125 "/><path style=" stroke:none;fill-rule:nonzero;fill:#160059;fill-opacity:0.2;" d="M 54.355469 76.953125 L 56.367188 76.953125 L 56.367188 78.953125 L 54.355469 78.953125 Z M 54.355469 76.953125 "/><path style=" stroke:none;fill-rule:nonzero;fill:#ffaa00;fill-opacity:1;" d="M 44.292969 40.953125 L 48.316406 40.953125 L 48.316406 54.953125 L 44.292969 54.953125 Z M 44.292969 40.953125 "/><path style=" stroke:none;fill-rule:nonzero;fill:#af3a0c;fill-opacity:1;" d="M 44.292969 36.953125 L 48.316406 36.953125 L 48.316406 40.953125 L 44.292969 40.953125 Z M 44.292969 36.953125 "/><path style=" stroke:none;fill-rule:nonzero;fill:#160059;fill-opacity:0.2;" d="M 44.292969 54.953125 L 48.316406 54.953125 L 48.316406 56.953125 L 44.292969 56.953125 Z M 44.292969 54.953125 "/><path style=" stroke:none;fill-rule:nonzero;fill:#160059;fill-opacity:1;" d="M 36.242188 46.953125 L 38.253906 46.953125 L 38.253906 56.953125 L 36.242188 56.953125 Z M 36.242188 46.953125 "/><path style=" stroke:none;fill-rule:nonzero;fill:#160059;fill-opacity:1;" d="M 54.355469 46.953125 L 56.367188 46.953125 L 56.367188 56.953125 L 54.355469 56.953125 Z M 54.355469 46.953125 "/><path style=" stroke:none;fill-rule:nonzero;fill:#160059;fill-opacity:0.2;" d="M 38.253906 38.953125 L 40.265625 38.953125 L 40.265625 40.953125 L 38.253906 40.953125 Z M 38.253906 38.953125 "/><path style=" stroke:none;fill-rule:nonzero;fill:#160059;fill-opacity:0.2;" d="M 40.265625 28.953125 L 42.28125 28.953125 L 42.28125 30.953125 L 40.265625 30.953125 Z M 40.265625 28.953125 "/><path style=" stroke:none;fill-rule:nonzero;fill:#160059;fill-opacity:0.2;" d="M 50.332031 28.953125 L 52.34375 28.953125 L 52.34375 30.953125 L 50.332031 30.953125 Z M 50.332031 28.953125 "/><path style=" stroke:none;fill-rule:nonzero;fill:#160059;fill-opacity:0.2;" d="M 52.34375 32.953125 L 54.355469 32.953125 L 54.355469 34.953125 L 52.34375 34.953125 Z M 52.34375 32.953125 "/><path style=" stroke:none;fill-rule:nonzero;fill:#160059;fill-opacity:0.2;" d="M 50.332031 34.953125 L 52.34375 34.953125 L 52.34375 36.953125 L 50.332031 36.953125 Z M 50.332031 34.953125 "/><path style=" stroke:none;fill-rule:nonzero;fill:#160059;fill-opacity:0.2;" d="M 40.265625 34.953125 L 42.28125 34.953125 L 42.28125 36.953125 L 40.265625 36.953125 Z M 40.265625 34.953125 "/><path style=" stroke:none;fill-rule:nonzero;fill:#160059;fill-opacity:0.2;" d="M 38.253906 32.953125 L 40.265625 32.953125 L 40.265625 34.953125 L 38.253906 34.953125 Z M 38.253906 32.953125 "/><path style=" stroke:none;fill-rule:nonzero;fill:#160059;fill-opacity:0.5;" d="M 44.292969 36.953125 L 48.316406 36.953125 L 48.316406 38.953125 L 44.292969 38.953125 Z M 44.292969 36.953125 "/><path style=" stroke:none;fill-rule:nonzero;fill:#160059;fill-opacity:0.2;" d="M 44.292969 38.953125 L 48.316406 38.953125 L 48.316406 40.953125 L 44.292969 40.953125 Z M 44.292969 38.953125 "/><path style=" stroke:none;fill-rule:nonzero;fill:#160059;fill-opacity:0.2;" d="M 52.34375 38.953125 L 54.355469 38.953125 L 54.355469 40.953125 L 52.34375 40.953125 Z M 52.34375 38.953125 "/><path style=" stroke:none;fill-rule:nonzero;fill:#160059;fill-opacity:0.2;" d="M 58.382812 60.953125 L 60.394531 60.953125 L 60.394531 66.953125 L 58.382812 66.953125 Z M 58.382812 60.953125 "/><path style=" stroke:none;fill-rule:nonzero;fill:#160059;fill-opacity:0.2;" d="M 32.214844 60.953125 L 34.230469 60.953125 L 34.230469 66.953125 L 32.214844 66.953125 Z M 32.214844 60.953125 "/><g clip-rule="nonzero" clip-path="url(#818a80be18)"><path style=" stroke:none;fill-rule:nonzero;fill:#160059;fill-opacity:0.2;" d="M 36.242188 52.953125 L 36.242188 54.953125 L 30.203125 54.953125 L 30.203125 52.953125 Z M 36.242188 52.953125 "/></g><path style=" stroke:none;fill-rule:nonzero;fill:#160059;fill-opacity:0.2;" d="M 60.394531 52.953125 L 60.394531 54.953125 L 54.355469 54.953125 L 54.355469 52.953125 Z M 60.394531 52.953125 "/><path style=" stroke:none;fill-rule:nonzero;fill:#160059;fill-opacity:1;" d="M 34.230469 78.953125 L 36.242188 78.953125 L 36.242188 84.953125 L 34.230469 84.953125 Z M 34.230469 78.953125 "/><path style=" stroke:none;fill-rule:nonzero;fill:#160059;fill-opacity:1;" d="M 42.28125 78.953125 L 44.292969 78.953125 L 44.292969 84.953125 L 42.28125 84.953125 Z M 42.28125 78.953125 "/><g clip-rule="nonzero" clip-path="url(#aaa5fc51f1)"><path style=" stroke:none;fill-rule:nonzero;fill:#160059;fill-opacity:1;" d="M 36.242188 84.953125 L 42.28125 84.953125 L 42.28125 86.953125 L 36.242188 86.953125 Z M 36.242188 84.953125 "/></g><path style=" stroke:none;fill-rule:nonzero;fill:#160059;fill-opacity:1;" d="M 48.316406 78.953125 L 50.332031 78.953125 L 50.332031 84.953125 L 48.316406 84.953125 Z M 48.316406 78.953125 "/><path style=" stroke:none;fill-rule:nonzero;fill:#160059;fill-opacity:1;" d="M 56.367188 78.953125 L 58.382812 78.953125 L 58.382812 84.953125 L 56.367188 84.953125 Z M 56.367188 78.953125 "/><g clip-rule="nonzero" clip-path="url(#8d1b72ade9)"><path style=" stroke:none;fill-rule:nonzero;fill:#160059;fill-opacity:1;" d="M 50.332031 84.953125 L 56.367188 84.953125 L 56.367188 86.953125 L 50.332031 86.953125 Z M 50.332031 84.953125 "/></g><path style=" stroke:none;fill-rule:nonzero;fill:#160059;fill-opacity:0.5;" d="M 40.265625 80.953125 L 36.242188 80.953125 L 36.242188 82.953125 L 40.265625 82.953125 L 40.265625 84.953125 L 42.28125 84.953125 L 42.28125 80.953125 Z M 40.265625 80.953125 "/><path style=" stroke:none;fill-rule:nonzero;fill:#160059;fill-opacity:0.5;" d="M 52.34375 80.953125 L 56.367188 80.953125 L 56.367188 82.953125 L 52.34375 82.953125 L 52.34375 84.953125 L 50.332031 84.953125 L 50.332031 80.953125 Z M 52.34375 80.953125 "/><path style=" stroke:none;fill-rule:nonzero;fill:#160059;fill-opacity:1;" d="M 38.253906 30.953125 L 44.292969 30.953125 L 44.292969 32.953125 L 38.253906 32.953125 Z M 38.253906 30.953125 "/><path style=" stroke:none;fill-rule:nonzero;fill:#160059;fill-opacity:1;" d="M 48.316406 30.953125 L 54.355469 30.953125 L 54.355469 32.953125 L 48.316406 32.953125 Z M 48.316406 30.953125 "/><path style=" stroke:none;fill-rule:nonzero;fill:#ffaa00;fill-opacity:1;" d="M 42.28125 32.953125 L 44.292969 32.953125 L 44.292969 34.953125 L 42.28125 34.953125 Z M 42.28125 32.953125 "/><path style=" stroke:none;fill-rule:nonzero;fill:#ffaa00;fill-opacity:1;" d="M 48.316406 32.953125 L 50.332031 32.953125 L 50.332031 34.953125 L 48.316406 34.953125 Z M 48.316406 32.953125 "/><path style=" stroke:none;fill-rule:nonzero;fill:#160059;fill-opacity:0.5;" d="M 42.28125 26.953125 L 50.332031 26.953125 L 50.332031 28.953125 L 42.28125 28.953125 Z M 42.28125 26.953125 "/></g></svg>