<svg xmlns="http://www.w3.org/2000/svg" xmlns:xlink="http://www.w3.org/1999/xlink" width="128" zoomAndPan="magnify" viewBox="0 0 96 95.999999" height="128" preserveAspectRatio="xMidYMid meet" version="1.2"><defs><clipPath id="768d4f574a"><path d="M 16 16 L 83 16 L 83 95.804688 L 16 95.804688 Z M 16 16 "/></clipPath><clipPath id="3c22becffd"><path d="M 11.710938 7.304688 L 86.710938 7.304688 L 86.710938 73 L 11.710938 73 Z M 11.710938 7.304688 "/></clipPath><clipPath id="1e971d5496"><path d="M 25 77 L 73 77 L 73 95.804688 L 25 95.804688 Z M 25 77 "/></clipPath></defs><g id="4314feb9d1"><g clip-rule="nonzero" clip-path="url(#768d4f574a)"><path style=" stroke:none;fill-rule:nonzero;fill:#e0b687;fill-opacity:1;" d="M 30.460938 21.28125 L 30.460938 16.625 L 67.960938 16.625 L 67.960938 21.28125 L 72.648438 21.28125 L 72.648438 25.9375 L 77.335938 25.9375 L 77.335938 39.914062 L 82.023438 39.914062 L 82.023438 53.886719 L 77.335938 53.886719 L 77.335938 63.203125 L 72.648438 63.203125 L 72.648438 67.859375 L 67.960938 67.859375 L 67.960938 72.515625 L 58.585938 72.515625 L 58.585938 77.175781 L 77.335938 77.175781 L 77.335938 81.832031 L 82.023438 81.832031 L 82.023438 95.808594 L 16.398438 95.808594 L 16.398438 81.832031 L 21.085938 81.832031 L 21.085938 77.175781 L 39.835938 77.175781 L 39.835938 72.515625 L 30.460938 72.515625 L 30.460938 67.859375 L 25.773438 67.859375 L 25.773438 63.203125 L 21.085938 63.203125 L 21.085938 53.886719 L 16.398438 53.886719 L 16.398438 39.914062 L 21.085938 39.914062 L 21.085938 25.9375 L 25.773438 25.9375 L 25.773438 21.28125 Z M 30.460938 21.28125 "/></g><path style=" stroke:none;fill-rule:nonzero;fill:#ffffff;fill-opacity:0.1;" d="M 30.460938 16.625 L 30.460938 21.28125 L 25.773438 21.28125 L 25.773438 25.9375 L 21.085938 25.9375 L 21.085938 39.914062 L 16.398438 39.914062 L 16.398438 53.886719 L 21.085938 53.886719 L 21.085938 63.203125 L 25.773438 63.203125 L 25.773438 67.859375 L 30.460938 67.859375 L 30.460938 72.515625 L 67.960938 72.515625 L 67.960938 67.859375 L 72.648438 67.859375 L 72.648438 63.203125 L 77.335938 63.203125 L 77.335938 53.886719 L 82.023438 53.886719 L 82.023438 39.914062 L 77.335938 39.914062 L 77.335938 25.9375 L 72.648438 25.9375 L 72.648438 21.28125 L 67.960938 21.28125 L 67.960938 16.625 Z M 30.460938 16.625 "/><path style=" stroke:none;fill-rule:evenodd;fill:#ffffff;fill-opacity:1;" d="M 30.460938 35.253906 L 35.148438 35.253906 L 35.148438 44.570312 L 25.773438 44.570312 L 25.773438 39.914062 L 30.460938 39.914062 Z M 63.273438 35.253906 L 67.960938 35.253906 L 67.960938 44.570312 L 58.585938 44.570312 L 58.585938 39.914062 L 63.273438 39.914062 Z M 63.273438 35.253906 "/><path style=" stroke:none;fill-rule:evenodd;fill:#000000;fill-opacity:1;" d="M 35.148438 35.253906 L 35.148438 39.914062 L 30.460938 39.914062 L 30.460938 44.570312 L 39.835938 44.570312 L 39.835938 35.253906 Z M 67.960938 35.253906 L 67.960938 39.914062 L 63.273438 39.914062 L 63.273438 44.570312 L 72.648438 44.570312 L 72.648438 35.253906 Z M 67.960938 35.253906 "/><path style=" stroke:none;fill-rule:evenodd;fill:#ffffff;fill-opacity:0.5;" d="M 35.148438 35.253906 L 35.148438 39.914062 L 39.835938 39.914062 L 39.835938 35.253906 Z M 30.460938 39.914062 L 30.460938 44.570312 L 35.148438 44.570312 L 35.148438 39.914062 Z M 67.960938 35.253906 L 67.960938 39.914062 L 72.648438 39.914062 L 72.648438 35.253906 Z M 63.273438 39.914062 L 63.273438 44.570312 L 67.960938 44.570312 L 67.960938 39.914062 Z M 63.273438 39.914062 "/><path style=" stroke:none;fill-rule:evenodd;fill:#603015;fill-opacity:1;" d="M 58.585938 35.253906 L 58.585938 30.597656 L 63.273438 30.597656 L 63.273438 25.9375 L 67.960938 25.9375 L 67.960938 30.597656 L 72.648438 30.597656 L 72.648438 35.253906 L 67.960938 35.253906 L 67.960938 30.597656 L 63.273438 30.597656 L 63.273438 35.253906 Z M 25.773438 35.253906 L 25.773438 30.597656 L 30.460938 30.597656 L 30.460938 25.9375 L 35.148438 25.9375 L 35.148438 30.597656 L 39.835938 30.597656 L 39.835938 35.253906 L 35.148438 35.253906 L 35.148438 30.597656 L 30.460938 30.597656 L 30.460938 35.253906 Z M 25.773438 35.253906 "/><path style=" stroke:none;fill-rule:evenodd;fill:#000000;fill-opacity:0.1;" d="M 58.585938 35.253906 L 58.585938 30.597656 L 63.273438 30.597656 L 63.273438 25.9375 L 67.960938 25.9375 L 67.960938 30.597656 L 72.648438 30.597656 L 72.648438 35.253906 L 67.960938 35.253906 L 67.960938 30.597656 L 63.273438 30.597656 L 63.273438 35.253906 Z M 25.773438 35.253906 L 25.773438 30.597656 L 30.460938 30.597656 L 30.460938 25.9375 L 35.148438 25.9375 L 35.148438 30.597656 L 39.835938 30.597656 L 39.835938 35.253906 L 35.148438 35.253906 L 35.148438 30.597656 L 30.460938 30.597656 L 30.460938 35.253906 Z M 25.773438 35.253906 "/><path style=" stroke:none;fill-rule:nonzero;fill:#d29985;fill-opacity:1;" d="M 39.835938 58.542969 L 39.835938 63.203125 L 44.523438 63.203125 L 44.523438 67.859375 L 53.898438 67.859375 L 53.898438 63.203125 L 58.585938 63.203125 L 58.585938 58.542969 Z M 39.835938 58.542969 "/><g clip-rule="nonzero" clip-path="url(#3c22becffd)"><path style=" stroke:none;fill-rule:nonzero;fill:#603015;fill-opacity:1;" d="M 11.710938 72.515625 L 30.460938 72.515625 L 30.460938 67.859375 L 25.773438 67.859375 L 25.773438 63.203125 L 21.085938 63.203125 L 21.085938 30.597656 L 30.460938 30.597656 L 30.460938 25.9375 L 39.835938 25.9375 L 39.835938 21.28125 L 44.523438 21.28125 L 44.523438 16.625 L 63.273438 16.625 L 63.273438 21.28125 L 67.960938 21.28125 L 67.960938 25.9375 L 72.648438 25.9375 L 72.648438 30.597656 L 77.335938 30.597656 L 77.335938 63.203125 L 72.648438 63.203125 L 72.648438 67.859375 L 67.960938 67.859375 L 67.960938 72.515625 L 86.710938 72.515625 L 86.710938 21.28125 L 82.023438 21.28125 L 82.023438 16.625 L 77.335938 16.625 L 77.335938 11.964844 L 72.648438 11.964844 L 72.648438 7.308594 L 25.773438 7.308594 L 25.773438 11.964844 L 21.085938 11.964844 L 21.085938 16.625 L 16.398438 16.625 L 16.398438 21.28125 L 11.710938 21.28125 Z M 11.710938 72.515625 "/></g><g clip-rule="nonzero" clip-path="url(#1e971d5496)"><path style=" stroke:none;fill-rule:evenodd;fill:#03396c;fill-opacity:1;" d="M 25.773438 77.175781 L 30.460938 77.175781 L 30.460938 86.492188 L 35.148438 86.492188 L 35.148438 91.148438 L 39.835938 91.148438 L 39.835938 95.808594 L 25.773438 95.808594 Z M 67.960938 77.175781 L 72.648438 77.175781 L 72.648438 95.808594 L 58.585938 95.808594 L 58.585938 91.148438 L 63.273438 91.148438 L 63.273438 86.492188 L 67.960938 86.492188 Z M 67.960938 77.175781 "/></g></g></svg>