<svg xmlns="http://www.w3.org/2000/svg" xmlns:xlink="http://www.w3.org/1999/xlink" width="128" zoomAndPan="magnify" viewBox="0 0 96 95.999999" height="128" preserveAspectRatio="xMidYMid meet" version="1.2"><defs><clipPath id="90745b74d6"><path d="M 46.226562 57.949219 L 49.976562 57.949219 L 49.976562 61.699219 L 46.226562 61.699219 Z M 46.226562 57.949219 "/></clipPath><clipPath id="690ddaeb4d"><path d="M 13.550781 13.550781 L 82.550781 13.550781 L 82.550781 82.550781 L 13.550781 82.550781 Z M 13.550781 13.550781 "/></clipPath></defs><g id="d5f32c0a65"><g clip-rule="nonzero" clip-path="url(#90745b74d6)"><path style=" stroke:none;fill-rule:nonzero;fill:#231815;fill-opacity:1;" d="M 49.765625 59.71875 C 49.765625 59.953125 49.71875 60.179688 49.628906 60.394531 C 49.539062 60.613281 49.414062 60.804688 49.246094 60.96875 C 49.082031 61.136719 48.890625 61.261719 48.671875 61.351562 C 48.457031 61.441406 48.230469 61.488281 47.996094 61.488281 C 47.761719 61.488281 47.535156 61.441406 47.316406 61.351562 C 47.101562 61.261719 46.910156 61.136719 46.742188 60.96875 C 46.578125 60.804688 46.449219 60.613281 46.359375 60.394531 C 46.269531 60.179688 46.226562 59.953125 46.226562 59.71875 C 46.226562 59.484375 46.269531 59.257812 46.359375 59.039062 C 46.449219 58.824219 46.578125 58.632812 46.742188 58.46875 C 46.910156 58.300781 47.101562 58.171875 47.316406 58.082031 C 47.535156 57.992188 47.761719 57.949219 47.996094 57.949219 C 48.230469 57.949219 48.457031 57.992188 48.671875 58.082031 C 48.890625 58.171875 49.082031 58.300781 49.246094 58.46875 C 49.414062 58.632812 49.539062 58.824219 49.628906 59.039062 C 49.71875 59.257812 49.765625 59.484375 49.765625 59.71875 Z M 49.765625 59.71875 "/></g><g clip-rule="nonzero" clip-path="url(#690ddaeb4d)"><path style=" stroke:none;fill-rule:nonzero;fill:#ffffff;fill-opacity:1;" d="M 73.582031 43.472656 L 73.582031 37.496094 L 67.59375 37.496094 L 67.59375 34.679688 L 73.582031 34.679688 L 73.582031 28.691406 L 76.5625 28.691406 L 76.5625 19.542969 L 73.582031 19.542969 L 73.582031 13.550781 L 58.445312 13.550781 L 58.445312 19.542969 L 52.453125 19.542969 L 52.453125 25.515625 L 43.648438 25.515625 L 43.648438 19.542969 L 37.660156 19.542969 L 37.660156 13.550781 L 22.523438 13.550781 L 22.523438 19.542969 L 19.542969 19.542969 L 19.542969 28.691406 L 22.523438 28.691406 L 22.523438 34.679688 L 28.511719 34.679688 L 28.511719 37.496094 L 22.523438 37.496094 L 22.523438 43.472656 L 13.550781 43.472656 L 13.550781 58.609375 L 16.546875 58.609375 L 16.546875 64.597656 L 28.511719 64.597656 L 28.511719 70.574219 L 31.507812 70.574219 L 31.507812 76.5625 L 34.5 76.5625 L 34.5 82.550781 L 61.605469 82.550781 L 61.605469 76.5625 L 64.597656 76.5625 L 64.597656 70.574219 L 67.59375 70.574219 L 67.59375 64.597656 L 79.558594 64.597656 L 79.558594 58.609375 L 82.550781 58.609375 L 82.550781 43.472656 Z M 73.582031 43.472656 "/></g><path style=" stroke:none;fill-rule:nonzero;fill:#000000;fill-opacity:1;" d="M 42.0625 27.105469 L 42.0625 21.128906 L 36.074219 21.128906 L 36.074219 15.140625 L 24.109375 15.140625 L 24.109375 21.128906 L 21.128906 21.128906 L 21.128906 27.105469 L 24.109375 27.105469 L 24.109375 33.09375 L 30.097656 33.09375 L 30.097656 39.082031 L 24.109375 39.082031 L 24.109375 45.058594 L 15.140625 45.058594 L 15.140625 57.023438 L 18.132812 57.023438 L 18.132812 63.011719 L 30.097656 63.011719 L 30.097656 69 L 33.09375 68.988281 L 33.09375 74.976562 L 36.085938 74.976562 L 36.085938 80.964844 L 60.015625 80.964844 L 60.015625 74.976562 L 63.011719 74.976562 L 63.011719 68.988281 L 66.007812 69 L 66.007812 63.011719 L 77.972656 63.011719 L 77.972656 57.023438 L 80.964844 57.023438 L 80.964844 45.058594 L 71.996094 45.058594 L 71.996094 39.082031 L 66.007812 39.082031 L 66.007812 33.09375 L 71.996094 33.09375 L 71.996094 27.105469 L 74.976562 27.105469 L 74.976562 21.128906 L 71.996094 21.128906 L 71.996094 15.140625 L 60.03125 15.140625 L 60.03125 21.128906 L 54.042969 21.128906 L 54.042969 27.105469 Z M 42.0625 27.105469 "/><path style=" stroke:none;fill-rule:nonzero;fill:#5665ff;fill-opacity:1;" d="M 60.015625 33.09375 L 57.023438 33.09375 L 57.023438 27.105469 L 63.011719 27.105469 L 63.011719 33.09375 Z M 69 27.105469 L 69 21.128906 L 63.011719 21.128906 L 63.011719 27.117188 L 66.007812 27.117188 Z M 71.996094 51.046875 L 69 51.046875 L 69 57.023438 L 74.988281 57.023438 L 74.988281 51.046875 Z M 66.007812 45.058594 L 63.011719 45.058594 L 63.011719 39.082031 L 57.023438 39.082031 L 57.023438 33.09375 L 48.039062 33.09375 L 48.039062 33.105469 L 48.039062 33.09375 L 39.054688 33.09375 L 39.054688 39.082031 L 33.066406 39.082031 L 33.066406 45.070312 L 27.078125 45.070312 L 27.078125 51.0625 L 33.066406 51.0625 L 33.066406 63.011719 L 39.054688 63.011719 L 39.054688 74.988281 L 45.042969 74.988281 L 45.042969 63.011719 L 51.035156 63.011719 L 51.035156 74.988281 L 57.023438 74.988281 L 57.023438 63.011719 L 63.011719 63.011719 L 63.011719 51.046875 L 69 51.046875 L 69 45.058594 Z M 36.074219 27.105469 L 33.078125 27.105469 L 33.078125 33.09375 L 39.070312 33.09375 L 39.070312 27.105469 Z M 30.097656 21.128906 L 27.105469 21.128906 L 27.105469 27.117188 L 33.09375 27.117188 L 33.09375 21.128906 Z M 21.128906 51.046875 L 21.128906 57.023438 L 27.117188 57.023438 L 27.117188 51.046875 Z M 21.128906 51.046875 "/><path style=" stroke:none;fill-rule:nonzero;fill:#fb038e;fill-opacity:1;" d="M 57.035156 45.058594 L 57.035156 51.046875 L 51.046875 51.046875 L 51.046875 45.058594 Z M 42.0625 45.058594 L 39.070312 45.058594 L 39.070312 51.046875 L 45.058594 51.046875 L 45.058594 45.058594 Z M 42.0625 45.058594 "/></g></svg>