<svg xmlns="http://www.w3.org/2000/svg" xmlns:xlink="http://www.w3.org/1999/xlink" width="128" zoomAndPan="magnify" viewBox="0 0 96 95.999999" height="128" preserveAspectRatio="xMidYMid meet" version="1.2"><defs><clipPath id="e81c0d255b"><path d="M 46.226562 57.949219 L 49.976562 57.949219 L 49.976562 61.699219 L 46.226562 61.699219 Z M 46.226562 57.949219 "/></clipPath><clipPath id="7610e2f444"><path d="M 12.574219 9.230469 L 86.824219 9.230469 L 86.824219 96 L 12.574219 96 Z M 12.574219 9.230469 "/></clipPath></defs><g id="fb7ad525bb"><g clip-rule="nonzero" clip-path="url(#e81c0d255b)"><path style=" stroke:none;fill-rule:nonzero;fill:#231815;fill-opacity:1;" d="M 49.765625 59.71875 C 49.765625 59.953125 49.71875 60.179688 49.628906 60.394531 C 49.539062 60.613281 49.414062 60.804688 49.246094 60.96875 C 49.082031 61.136719 48.890625 61.261719 48.671875 61.351562 C 48.457031 61.441406 48.230469 61.488281 47.996094 61.488281 C 47.761719 61.488281 47.535156 61.441406 47.316406 61.351562 C 47.101562 61.261719 46.910156 61.136719 46.742188 60.96875 C 46.578125 60.804688 46.449219 60.613281 46.359375 60.394531 C 46.269531 60.179688 46.226562 59.953125 46.226562 59.71875 C 46.226562 59.484375 46.269531 59.257812 46.359375 59.039062 C 46.449219 58.824219 46.578125 58.632812 46.742188 58.46875 C 46.910156 58.300781 47.101562 58.171875 47.316406 58.082031 C 47.535156 57.992188 47.761719 57.949219 47.996094 57.949219 C 48.230469 57.949219 48.457031 57.992188 48.671875 58.082031 C 48.890625 58.171875 49.082031 58.300781 49.246094 58.46875 C 49.414062 58.632812 49.539062 58.824219 49.628906 59.039062 C 49.71875 59.257812 49.765625 59.484375 49.765625 59.71875 Z M 49.765625 59.71875 "/></g><path style=" stroke:none;fill-rule:nonzero;fill:#271d11;fill-opacity:1;" d="M 49.699219 75.523438 L 49.695312 71.375 L 53.820312 71.371094 L 62.066406 71.371094 L 62.070312 75.523438 Z M 49.699219 75.523438 "/><path style=" stroke:none;fill-rule:nonzero;fill:#271d11;fill-opacity:1;" d="M 57.945312 71.375 L 49.699219 71.375 L 49.699219 75.519531 L 62.066406 75.519531 L 62.066406 71.375 Z M 57.945312 71.375 "/><path style=" stroke:none;fill-rule:nonzero;fill:#997c5a;fill-opacity:1;" d="M 41.449219 83.808594 L 41.445312 79.660156 L 37.328125 79.664062 L 37.324219 75.519531 L 33.207031 75.523438 L 33.203125 71.375 L 33.203125 58.945312 L 37.332031 58.941406 L 37.335938 63.089844 L 41.453125 63.085938 L 41.457031 67.230469 L 45.574219 67.226562 L 66.191406 67.226562 L 66.1875 63.089844 L 70.3125 63.085938 L 70.316406 67.234375 L 70.316406 79.664062 L 66.191406 79.667969 L 66.195312 83.808594 Z M 49.703125 75.519531 L 53.820312 75.515625 L 62.066406 75.515625 L 62.0625 71.378906 L 49.703125 71.378906 Z M 49.703125 75.519531 "/><path style=" stroke:none;fill-rule:nonzero;fill:#997c5a;fill-opacity:1;" d="M 66.191406 63.089844 L 66.191406 67.230469 L 41.449219 67.230469 L 41.449219 63.089844 L 37.328125 63.089844 L 37.328125 58.945312 L 33.203125 58.945312 L 33.203125 75.519531 L 37.328125 75.519531 L 37.328125 79.660156 L 41.449219 79.660156 L 41.449219 83.804688 L 66.191406 83.804688 L 66.191406 79.660156 L 70.316406 79.660156 L 70.316406 63.089844 Z M 53.820312 71.375 L 62.066406 71.375 L 62.066406 75.519531 L 49.699219 75.519531 L 49.699219 71.375 Z M 53.820312 71.375 "/><path style=" stroke:none;fill-rule:nonzero;fill:#dbb07f;fill-opacity:1;" d="M 37.328125 42.378906 L 37.324219 38.230469 L 41.449219 38.226562 L 41.445312 34.089844 L 45.574219 34.085938 L 49.699219 34.085938 L 49.703125 38.230469 L 53.820312 38.226562 L 57.945312 38.226562 L 57.9375 34.089844 L 53.820312 34.09375 L 53.816406 29.945312 L 57.945312 29.941406 L 62.066406 29.941406 L 62.070312 34.089844 L 66.191406 34.085938 L 66.195312 38.230469 L 70.3125 38.226562 L 70.320312 42.378906 Z M 37.328125 42.378906 "/><path style=" stroke:none;fill-rule:nonzero;fill:#dbb07f;fill-opacity:1;" d="M 66.191406 38.230469 L 66.191406 34.089844 L 62.066406 34.089844 L 62.066406 29.945312 L 53.820312 29.945312 L 53.820312 34.089844 L 57.945312 34.089844 L 57.945312 38.230469 L 49.699219 38.230469 L 49.699219 34.089844 L 41.449219 34.089844 L 41.449219 38.230469 L 37.328125 38.230469 L 37.328125 42.375 L 70.3125 42.375 L 70.3125 38.230469 Z M 66.191406 38.230469 "/><path style=" stroke:none;fill-rule:nonzero;fill:#dbb07f;fill-opacity:1;" d="M 41.449219 67.234375 L 41.445312 63.089844 L 37.328125 63.09375 L 37.324219 58.945312 L 33.207031 58.949219 L 33.203125 54.800781 L 37.332031 54.796875 L 37.328125 50.660156 L 37.328125 46.519531 L 41.453125 46.515625 L 41.457031 50.660156 L 41.457031 54.804688 L 45.574219 54.800781 L 49.699219 54.800781 L 49.695312 50.664062 L 49.695312 46.519531 L 53.820312 46.515625 L 62.066406 46.515625 L 62.070312 50.664062 L 62.070312 54.804688 L 66.191406 54.800781 L 70.3125 54.800781 L 70.316406 58.949219 L 70.316406 63.09375 L 66.191406 63.097656 L 66.195312 67.238281 L 41.449219 67.238281 Z M 53.824219 63.089844 L 57.941406 63.085938 L 62.066406 63.085938 L 62.0625 58.949219 L 57.945312 58.953125 L 53.828125 58.953125 L 53.828125 63.089844 Z M 53.824219 63.089844 "/><path style=" stroke:none;fill-rule:nonzero;fill:#dbb07f;fill-opacity:1;" d="M 62.066406 54.800781 L 62.066406 46.515625 L 49.699219 46.515625 L 49.699219 54.800781 L 41.449219 54.800781 L 41.449219 46.515625 L 37.328125 46.515625 L 37.328125 54.800781 L 33.203125 54.800781 L 33.203125 58.945312 L 37.328125 58.945312 L 37.328125 63.089844 L 41.449219 63.089844 L 41.449219 67.230469 L 66.191406 67.230469 L 66.191406 63.089844 L 70.316406 63.089844 L 70.316406 54.800781 Z M 57.945312 63.089844 L 53.820312 63.089844 L 53.820312 58.945312 L 62.066406 58.945312 L 62.066406 63.089844 Z M 57.945312 63.089844 "/><path style=" stroke:none;fill-rule:nonzero;fill:#dbb07f;fill-opacity:1;" d="M 33.207031 96.234375 L 33.199219 92.089844 L 33.199219 75.519531 L 37.328125 75.511719 L 37.332031 79.660156 L 41.449219 79.65625 L 41.457031 83.800781 L 45.574219 83.796875 L 45.578125 87.945312 L 45.578125 96.234375 Z M 33.207031 96.234375 "/><path style=" stroke:none;fill-rule:nonzero;fill:#dbb07f;fill-opacity:1;" d="M 41.449219 79.660156 L 37.328125 79.660156 L 37.328125 75.519531 L 33.207031 75.519531 L 33.207031 96.230469 L 45.574219 96.230469 L 45.574219 83.800781 L 41.449219 83.800781 Z M 41.449219 79.660156 "/><g clip-rule="nonzero" clip-path="url(#7610e2f444)"><path style=" stroke:none;fill-rule:nonzero;fill:#0a0a0a;fill-opacity:1;" d="M 29.082031 96.234375 L 29.078125 92.089844 L 29.078125 58.945312 L 24.960938 58.949219 L 20.835938 58.949219 L 20.832031 54.800781 L 20.832031 50.660156 L 16.714844 50.664062 L 16.710938 46.515625 L 16.710938 42.375 L 20.835938 42.371094 L 20.832031 38.230469 L 16.714844 38.234375 L 12.585938 38.234375 L 12.582031 34.089844 L 16.710938 34.085938 L 16.707031 29.949219 L 20.835938 29.945312 L 20.832031 25.804688 L 16.714844 25.808594 L 16.710938 21.664062 L 16.710938 13.375 L 20.835938 13.371094 L 20.839844 17.515625 L 24.957031 17.511719 L 29.078125 17.511719 L 29.074219 13.375 L 29.074219 9.230469 L 33.203125 9.226562 L 37.328125 9.226562 L 37.332031 13.375 L 41.449219 13.371094 L 53.820312 13.371094 L 53.816406 9.230469 L 57.941406 9.226562 L 74.433594 9.226562 L 74.4375 13.375 L 70.3125 13.378906 L 70.316406 17.515625 L 74.433594 17.511719 L 78.558594 17.511719 L 78.554688 13.375 L 82.683594 13.371094 L 86.808594 13.371094 L 86.8125 17.519531 L 82.683594 17.523438 L 82.6875 21.660156 L 86.804688 21.65625 L 86.808594 25.800781 L 82.683594 25.804688 L 82.683594 34.085938 L 78.558594 34.09375 L 78.5625 38.230469 L 82.683594 38.226562 L 82.683594 46.519531 L 78.558594 46.523438 L 78.5625 50.660156 L 78.5625 58.945312 L 74.4375 58.949219 L 74.441406 63.085938 L 74.441406 79.65625 L 70.3125 79.660156 L 70.308594 75.515625 L 70.308594 54.800781 L 66.191406 54.804688 L 62.066406 54.804688 L 62.0625 50.660156 L 62.0625 46.515625 L 57.945312 46.519531 L 49.699219 46.519531 L 49.703125 50.65625 L 49.703125 54.800781 L 45.574219 54.804688 L 41.449219 54.804688 L 41.445312 50.65625 L 41.445312 46.515625 L 37.328125 46.519531 L 37.332031 50.65625 L 37.332031 54.796875 L 33.207031 54.800781 L 33.210938 58.941406 L 33.210938 96.230469 L 29.082031 96.230469 Z M 20.835938 46.523438 L 20.839844 50.660156 L 24.957031 50.65625 L 24.953125 46.519531 Z M 37.332031 42.375 L 41.449219 42.371094 L 70.3125 42.371094 L 70.308594 38.234375 L 66.191406 38.238281 L 66.1875 34.089844 L 62.070312 34.09375 L 62.066406 29.949219 L 57.949219 29.953125 L 53.824219 29.953125 L 53.828125 34.089844 L 57.945312 34.085938 L 57.949219 38.230469 L 53.824219 38.234375 L 49.699219 38.234375 L 49.695312 34.089844 L 45.574219 34.09375 L 41.453125 34.09375 L 41.457031 38.230469 L 37.332031 38.234375 Z M 37.332031 42.375 "/><path style=" stroke:none;fill-rule:nonzero;fill:#0a0a0a;fill-opacity:1;" d="M 78.558594 13.375 L 78.558594 17.519531 L 70.3125 17.519531 L 70.3125 13.375 L 74.4375 13.375 L 74.4375 9.230469 L 53.820312 9.230469 L 53.820312 13.375 L 37.328125 13.375 L 37.328125 9.230469 L 29.078125 9.230469 L 29.078125 17.519531 L 20.835938 17.519531 L 20.835938 13.375 L 16.710938 13.375 L 16.710938 25.804688 L 20.835938 25.804688 L 20.835938 29.949219 L 16.710938 29.949219 L 16.710938 34.089844 L 12.585938 34.089844 L 12.585938 38.230469 L 20.835938 38.230469 L 20.835938 42.375 L 16.710938 42.375 L 16.710938 50.660156 L 20.835938 50.660156 L 20.835938 46.519531 L 24.957031 46.519531 L 24.957031 50.660156 L 20.835938 50.660156 L 20.835938 58.949219 L 29.082031 58.949219 L 29.082031 96.230469 L 33.207031 96.230469 L 33.207031 54.800781 L 37.328125 54.800781 L 37.328125 46.515625 L 41.453125 46.515625 L 41.453125 54.800781 L 49.699219 54.800781 L 49.699219 46.515625 L 62.066406 46.515625 L 62.066406 54.800781 L 70.316406 54.800781 L 70.316406 79.660156 L 74.4375 79.660156 L 74.4375 58.945312 L 78.558594 58.945312 L 78.558594 46.515625 L 82.683594 46.515625 L 82.683594 38.230469 L 78.558594 38.230469 L 78.558594 34.089844 L 82.683594 34.089844 L 82.683594 25.800781 L 86.808594 25.800781 L 86.808594 21.660156 L 82.683594 21.660156 L 82.683594 17.519531 L 86.808594 17.519531 L 86.808594 13.375 Z M 70.3125 42.375 L 37.328125 42.375 L 37.328125 38.230469 L 41.449219 38.230469 L 41.449219 34.089844 L 49.699219 34.089844 L 49.699219 38.230469 L 57.945312 38.230469 L 57.945312 34.089844 L 53.820312 34.089844 L 53.820312 29.945312 L 62.066406 29.945312 L 62.066406 34.089844 L 66.191406 34.089844 L 66.191406 38.230469 L 70.316406 38.230469 L 70.316406 42.375 Z M 70.3125 42.375 "/></g><path style=" stroke:none;fill-rule:nonzero;fill:#0a0a0a;fill-opacity:1;" d="M 66.191406 83.808594 L 66.1875 79.660156 L 70.3125 79.65625 L 70.320312 83.808594 Z M 66.191406 83.808594 "/><path style=" stroke:none;fill-rule:nonzero;fill:#0a0a0a;fill-opacity:1;" d="M 66.191406 79.660156 L 70.3125 79.660156 L 70.3125 83.804688 L 66.191406 83.804688 Z M 66.191406 79.660156 "/><path style=" stroke:none;fill-rule:nonzero;fill:#0a0a0a;fill-opacity:1;" d="M 45.574219 96.234375 L 45.570312 92.089844 L 45.570312 83.800781 L 49.699219 83.796875 L 66.191406 83.796875 L 66.195312 87.945312 L 62.066406 87.953125 L 49.699219 87.953125 L 49.703125 92.089844 L 49.703125 96.234375 Z M 45.574219 96.234375 "/><path style=" stroke:none;fill-rule:nonzero;fill:#0a0a0a;fill-opacity:1;" d="M 57.945312 83.800781 L 45.574219 83.800781 L 45.574219 96.230469 L 49.699219 96.230469 L 49.699219 87.945312 L 66.191406 87.945312 L 66.191406 83.800781 Z M 57.945312 83.800781 "/><path style=" stroke:none;fill-rule:nonzero;fill:#0a0a0a;fill-opacity:1;" d="M 53.820312 63.09375 L 53.816406 58.945312 L 57.945312 58.941406 L 62.066406 58.941406 L 62.070312 63.09375 Z M 53.820312 63.09375 "/><path style=" stroke:none;fill-rule:nonzero;fill:#0a0a0a;fill-opacity:1;" d="M 62.066406 63.089844 L 62.066406 58.945312 L 53.820312 58.945312 L 53.820312 63.089844 Z M 62.066406 63.089844 "/></g></svg>