<svg xmlns="http://www.w3.org/2000/svg" xmlns:xlink="http://www.w3.org/1999/xlink" width="128" zoomAndPan="magnify" viewBox="0 0 96 95.999999" height="128" preserveAspectRatio="xMidYMid meet" version="1.2"><defs><clipPath id="e5405bf9cf"><path d="M 46.226562 57.949219 L 49.976562 57.949219 L 49.976562 61.699219 L 46.226562 61.699219 Z M 46.226562 57.949219 "/></clipPath><clipPath id="3fa3e7ae53"><path d="M 18.742188 27 L 60 27 L 60 81 L 18.742188 81 Z M 18.742188 27 "/></clipPath><clipPath id="b64dcce65e"><path d="M 35 72 L 46 72 L 46 85.402344 L 35 85.402344 Z M 35 72 "/></clipPath><clipPath id="767b1bc3fd"><path d="M 49 72 L 61 72 L 61 85.402344 L 49 85.402344 Z M 49 72 "/></clipPath><clipPath id="60635067c9"><path d="M 61 10.402344 L 68 10.402344 L 68 15 L 61 15 Z M 61 10.402344 "/></clipPath><clipPath id="fd7fa4f377"><path d="M 52 11 L 80.992188 11 L 80.992188 73 L 52 73 Z M 52 11 "/></clipPath></defs><g id="7ce25d9f2d"><g clip-rule="nonzero" clip-path="url(#e5405bf9cf)"><path style=" stroke:none;fill-rule:nonzero;fill:#231815;fill-opacity:1;" d="M 49.765625 59.71875 C 49.765625 59.953125 49.71875 60.179688 49.628906 60.394531 C 49.539062 60.613281 49.414062 60.804688 49.246094 60.96875 C 49.082031 61.136719 48.890625 61.261719 48.671875 61.351562 C 48.457031 61.441406 48.230469 61.488281 47.996094 61.488281 C 47.761719 61.488281 47.535156 61.441406 47.316406 61.351562 C 47.101562 61.261719 46.910156 61.136719 46.742188 60.96875 C 46.578125 60.804688 46.449219 60.613281 46.359375 60.394531 C 46.269531 60.179688 46.226562 59.953125 46.226562 59.71875 C 46.226562 59.484375 46.269531 59.257812 46.359375 59.039062 C 46.449219 58.824219 46.578125 58.632812 46.742188 58.46875 C 46.910156 58.300781 47.101562 58.171875 47.316406 58.082031 C 47.535156 57.992188 47.761719 57.949219 47.996094 57.949219 C 48.230469 57.949219 48.457031 57.992188 48.671875 58.082031 C 48.890625 58.171875 49.082031 58.300781 49.246094 58.46875 C 49.414062 58.632812 49.539062 58.824219 49.628906 59.039062 C 49.71875 59.257812 49.765625 59.484375 49.765625 59.71875 Z M 49.765625 59.71875 "/></g><path style=" stroke:none;fill-rule:nonzero;fill:#efecdf;fill-opacity:1;" d="M 43.574219 18.195312 L 52.03125 18.195312 L 52.03125 27.28125 L 43.574219 27.28125 Z M 43.574219 18.195312 "/><path style=" stroke:none;fill-rule:nonzero;fill:#414042;fill-opacity:1;" d="M 52.855469 14.816406 L 43.765625 14.816406 L 43.765625 15.960938 L 42.503906 15.960938 L 42.503906 22.167969 L 55.074219 25.109375 Z M 45.460938 20.699219 L 43.984375 20.699219 L 43.984375 19.226562 L 45.460938 19.226562 Z M 51.375 20.699219 L 49.898438 20.699219 L 49.898438 19.226562 L 51.375 19.226562 Z M 51.375 20.699219 "/><g clip-rule="nonzero" clip-path="url(#3fa3e7ae53)"><path style=" stroke:none;fill-rule:nonzero;fill:#414042;fill-opacity:1;" d="M 57.949219 71.515625 L 57.949219 57.136719 L 57.460938 55.621094 L 55.8125 27.28125 L 42.503906 28.050781 L 41.027344 28.050781 L 41.027344 29.519531 L 32.65625 29.519531 L 32.65625 30.828125 L 30.183594 30.828125 L 30.183594 35.527344 L 25.109375 35.527344 L 25.109375 37.609375 L 23.28125 37.609375 L 23.28125 43.53125 L 20.324219 43.53125 L 20.324219 46.230469 L 18.84375 46.230469 L 18.84375 64.667969 L 20.359375 64.667969 L 20.359375 62.296875 L 21.648438 62.296875 L 21.648438 58.933594 L 23.035156 58.933594 L 23.035156 57.339844 L 26.523438 57.339844 L 26.523438 58.976562 L 27.835938 58.976562 L 27.835938 60.863281 L 29.347656 60.863281 L 29.347656 58.976562 L 30.710938 58.976562 L 30.710938 57.316406 L 31.746094 57.316406 L 31.746094 56.113281 L 33.597656 56.113281 L 33.597656 57.3125 L 35.109375 57.3125 L 35.109375 58.363281 L 36.625 58.363281 L 36.625 54.859375 L 38.007812 54.859375 L 38.007812 52.792969 L 39.546875 52.792969 L 39.546875 54.859375 L 41.027344 54.859375 L 41.027344 57.460938 L 39.546875 57.460938 L 39.546875 72.167969 L 38.070312 72.167969 L 38.070312 78.050781 C 38.070312 78.050781 43.253906 82.015625 44.359375 79.652344 C 45.460938 77.292969 43.984375 72.167969 43.984375 72.167969 L 45.460938 72.167969 L 46.941406 57.460938 L 51.375 57.460938 L 51.375 72.167969 L 52.855469 72.167969 L 52.855469 78.050781 C 52.855469 78.050781 59.164062 82.859375 59.707031 80.074219 C 60.25 77.292969 58.769531 72.167969 58.769531 72.167969 Z M 57.949219 71.515625 "/></g><path style=" stroke:none;fill-rule:nonzero;fill:#414042;fill-opacity:1;" d="M 61.726562 14.816406 L 61.726562 17.757812 L 60.25 17.757812 L 60.25 26.582031 L 58.769531 26.582031 L 58.769531 29.832031 L 56.613281 29.832031 L 57.214844 38.785156 L 60.429688 37.855469 L 61.320312 37.613281 L 62.589844 36.191406 L 62.84375 28.632812 L 63.207031 26.582031 L 63.945312 19.226562 L 64.683594 17.757812 L 65.425781 13.789062 Z M 61.726562 14.816406 "/><path style=" stroke:none;fill-rule:nonzero;fill:#000000;fill-opacity:1;" d="M 45.460938 57.460938 L 46.941406 57.460938 L 46.941406 72.167969 L 45.460938 72.167969 Z M 45.460938 57.460938 "/><g clip-rule="nonzero" clip-path="url(#b64dcce65e)"><path style=" stroke:none;fill-rule:nonzero;fill:#000000;fill-opacity:1;" d="M 43.984375 78.050781 L 38.070312 78.050781 L 38.070312 80.992188 L 36.589844 80.992188 L 36.589844 82.460938 L 35.109375 82.460938 L 35.109375 85.402344 L 45.460938 85.402344 L 45.460938 72.167969 L 43.984375 72.167969 Z M 43.984375 78.050781 "/></g><path style=" stroke:none;fill-rule:nonzero;fill:#000000;fill-opacity:1;" d="M 38.070312 29.519531 L 41.027344 29.519531 L 41.027344 47.660156 L 38.070312 47.660156 Z M 38.070312 29.519531 "/><path style=" stroke:none;fill-rule:nonzero;fill:#000000;fill-opacity:1;" d="M 51.398438 37.609375 L 49.898438 37.609375 L 49.898438 36.347656 L 45.480469 36.347656 L 45.480469 37.609375 L 43.984375 37.609375 L 43.984375 48.640625 L 51.398438 48.640625 Z M 51.398438 37.609375 "/><path style=" stroke:none;fill-rule:nonzero;fill:#000000;fill-opacity:1;" d="M 64.683594 14.816406 L 66.164062 14.816406 L 66.164062 17.757812 L 64.683594 17.757812 Z M 64.683594 14.816406 "/><path style=" stroke:none;fill-rule:nonzero;fill:#000000;fill-opacity:1;" d="M 63.207031 17.757812 L 64.683594 17.757812 L 64.683594 26.582031 L 63.207031 26.582031 Z M 63.207031 17.757812 "/><g clip-rule="nonzero" clip-path="url(#767b1bc3fd)"><path style=" stroke:none;fill-rule:nonzero;fill:#000000;fill-opacity:1;" d="M 52.855469 78.050781 L 52.855469 80.992188 L 51.375 80.992188 L 51.375 82.460938 L 49.898438 82.460938 L 49.898438 85.402344 L 60.25 85.402344 L 60.25 72.167969 L 58.769531 72.167969 L 58.769531 78.050781 Z M 52.855469 78.050781 "/></g><path style=" stroke:none;fill-rule:nonzero;fill:#000000;fill-opacity:1;" d="M 48.828125 14.816406 L 48.828125 13.789062 L 50.472656 13.789062 L 50.472656 12.808594 L 51.457031 12.808594 L 51.457031 11.828125 L 47.105469 11.828125 L 47.105469 12.855469 L 45.460938 12.855469 L 45.460938 14.816406 Z M 48.828125 14.816406 "/><path style=" stroke:none;fill-rule:nonzero;fill:#edbf8e;fill-opacity:1;" d="M 38.070312 47.660156 L 41.027344 47.660156 L 41.027344 50.761719 L 38.070312 50.761719 Z M 38.070312 47.660156 "/><g clip-rule="nonzero" clip-path="url(#60635067c9)"><path style=" stroke:none;fill-rule:nonzero;fill:#edbf8e;fill-opacity:1;" d="M 66.164062 10.402344 L 66.164062 11.875 L 64.683594 11.875 L 64.683594 10.402344 L 63.207031 10.402344 L 63.207031 13.34375 L 61.726562 13.34375 L 61.726562 14.816406 L 67.644531 14.816406 L 67.644531 10.402344 Z M 66.164062 10.402344 "/></g><path style=" stroke:none;fill-rule:nonzero;fill:#edbf8e;fill-opacity:1;" d="M 48.285156 23.050781 L 47.09375 23.050781 L 47.09375 22.167969 L 42.503906 22.167969 L 42.503906 28.050781 L 43.984375 28.050781 L 43.984375 29.519531 L 51.375 29.519531 L 51.375 28.050781 L 52.855469 28.050781 L 52.855469 22.167969 L 48.285156 22.167969 Z M 49.898438 26.582031 L 45.460938 26.582031 L 45.460938 25.109375 L 49.898438 25.109375 Z M 49.898438 26.582031 "/><path style=" stroke:none;fill-rule:nonzero;fill:#95a9c6;fill-opacity:1;" d="M 58.769531 48.640625 L 58.769531 50.109375 L 57.292969 50.109375 L 57.292969 51.582031 L 55.8125 51.582031 L 55.8125 50.109375 L 54.335938 50.109375 L 54.335938 51.582031 L 52.855469 51.582031 L 52.855469 50.109375 L 51.375 50.109375 L 51.375 51.582031 L 49.898438 51.582031 L 49.898438 50.109375 L 48.417969 50.109375 L 48.417969 51.582031 L 46.941406 51.582031 L 46.941406 50.109375 L 45.460938 50.109375 L 45.460938 51.582031 L 43.984375 51.582031 L 43.984375 50.109375 L 42.503906 50.109375 L 42.503906 51.582031 L 41.027344 51.582031 L 41.027344 47.167969 L 42.503906 47.167969 L 42.503906 48.640625 L 43.984375 48.640625 L 43.984375 47.167969 L 45.460938 47.167969 L 45.460938 48.640625 L 46.941406 48.640625 L 46.941406 47.167969 L 48.417969 47.167969 L 48.417969 48.640625 L 49.898438 48.640625 L 49.898438 47.167969 L 51.375 47.167969 L 51.375 48.640625 L 52.855469 48.640625 L 52.855469 47.167969 L 54.335938 47.167969 L 54.335938 48.640625 L 55.8125 48.640625 L 55.8125 47.167969 L 57.292969 47.167969 L 57.292969 48.640625 Z M 58.769531 48.640625 "/><g clip-rule="nonzero" clip-path="url(#fd7fa4f377)"><path style=" stroke:none;fill-rule:nonzero;fill:#000000;fill-opacity:1;" d="M 79.402344 46.210938 L 79.402344 43.515625 L 76.445312 43.515625 L 76.445312 37.589844 L 74.617188 37.589844 L 74.617188 35.507812 L 69.542969 35.507812 L 69.542969 30.8125 L 67.070312 30.8125 L 67.070312 29.503906 L 63.207031 29.503906 L 63.207031 26.582031 L 61.742188 26.582031 L 61.726562 35.402344 L 59.828125 35.402344 L 59.828125 37.066406 L 57.292969 37.066406 L 57.292969 14.816406 L 59.136719 14.816406 L 59.136719 13.789062 L 60.78125 13.789062 L 60.78125 12.808594 L 61.765625 12.808594 L 61.765625 11.828125 L 57.417969 11.828125 L 57.417969 12.855469 L 55.773438 12.855469 L 55.773438 14.816406 L 52.855469 14.816406 L 52.855469 28.050781 L 54.335938 28.050781 L 54.335938 57.460938 L 57.292969 57.460938 L 57.292969 72.167969 L 58.769531 72.167969 L 58.769531 54.84375 L 60.179688 54.84375 L 60.179688 52.777344 L 61.71875 52.777344 L 61.71875 54.84375 L 63.101562 54.84375 L 63.101562 58.347656 L 64.613281 58.347656 L 64.613281 57.292969 L 66.128906 57.292969 L 66.128906 56.097656 L 67.980469 56.097656 L 67.980469 57.300781 L 69.015625 57.300781 L 69.015625 58.960938 L 70.378906 58.960938 L 70.378906 60.847656 L 71.890625 60.847656 L 71.890625 58.960938 L 73.199219 58.960938 L 73.199219 57.320312 L 76.6875 57.320312 L 76.6875 58.917969 L 78.078125 58.917969 L 78.078125 62.28125 L 79.367188 62.28125 L 79.367188 64.652344 L 80.878906 64.652344 L 80.878906 46.210938 Z M 79.402344 46.210938 "/></g></g></svg>