<svg xmlns="http://www.w3.org/2000/svg" xmlns:xlink="http://www.w3.org/1999/xlink" width="128" zoomAndPan="magnify" viewBox="0 0 96 95.999999" height="128" preserveAspectRatio="xMidYMid meet" version="1.2"><defs><clipPath id="f9afca070c"><path d="M 46.226562 57.949219 L 49.976562 57.949219 L 49.976562 61.699219 L 46.226562 61.699219 Z M 46.226562 57.949219 "/></clipPath><clipPath id="37cda44adc"><path d="M 11.167969 8.125 L 88.417969 8.125 L 88.417969 85.375 L 11.167969 85.375 Z M 11.167969 8.125 "/></clipPath></defs><g id="2fac575258"><g clip-rule="nonzero" clip-path="url(#f9afca070c)"><path style=" stroke:none;fill-rule:nonzero;fill:#231815;fill-opacity:1;" d="M 49.765625 59.71875 C 49.765625 59.953125 49.71875 60.179688 49.628906 60.394531 C 49.539062 60.613281 49.414062 60.804688 49.246094 60.96875 C 49.082031 61.136719 48.890625 61.261719 48.671875 61.351562 C 48.457031 61.441406 48.230469 61.488281 47.996094 61.488281 C 47.761719 61.488281 47.535156 61.441406 47.316406 61.351562 C 47.101562 61.261719 46.910156 61.136719 46.742188 60.96875 C 46.578125 60.804688 46.449219 60.613281 46.359375 60.394531 C 46.269531 60.179688 46.226562 59.953125 46.226562 59.71875 C 46.226562 59.484375 46.269531 59.257812 46.359375 59.039062 C 46.449219 58.824219 46.578125 58.632812 46.742188 58.46875 C 46.910156 58.300781 47.101562 58.171875 47.316406 58.082031 C 47.535156 57.992188 47.761719 57.949219 47.996094 57.949219 C 48.230469 57.949219 48.457031 57.992188 48.671875 58.082031 C 48.890625 58.171875 49.082031 58.300781 49.246094 58.46875 C 49.414062 58.632812 49.539062 58.824219 49.628906 59.039062 C 49.71875 59.257812 49.765625 59.484375 49.765625 59.71875 Z M 49.765625 59.71875 "/></g><g clip-rule="nonzero" clip-path="url(#37cda44adc)"><path style=" stroke:none;fill-rule:nonzero;fill:#ffffff;fill-opacity:1;" d="M 85.066406 41.636719 L 85.066406 34.933594 L 81.714844 34.933594 L 81.714844 28.226562 L 75.007812 28.226562 L 75.007812 25.074219 L 78.359375 25.074219 L 78.359375 14.832031 L 75.007812 14.832031 L 75.007812 8.125 L 58.058594 8.125 L 58.058594 14.832031 L 51.371094 14.832031 L 51.371094 21.523438 L 48.21875 21.523438 L 48.21875 14.832031 L 41.511719 14.832031 L 41.511719 8.125 L 24.5625 8.125 L 24.5625 14.832031 L 21.210938 14.832031 L 21.210938 25.074219 L 24.5625 25.074219 L 24.5625 28.226562 L 17.875 28.226562 L 17.875 34.933594 L 14.519531 34.933594 L 14.519531 41.636719 L 11.167969 41.636719 L 11.167969 65.277344 L 14.519531 65.277344 L 14.519531 71.980469 L 21.226562 71.980469 L 21.226562 78.671875 L 24.5625 78.671875 L 24.5625 85.375 L 41.511719 85.375 L 41.511719 78.671875 L 48.21875 78.671875 L 48.21875 71.964844 L 51.371094 71.964844 L 51.371094 78.671875 L 58.058594 78.671875 L 58.058594 85.375 L 75.007812 85.375 L 75.007812 78.671875 L 78.359375 78.671875 L 78.359375 71.980469 L 85.066406 71.980469 L 85.066406 65.277344 L 88.417969 65.277344 L 88.417969 41.636719 Z M 85.066406 41.636719 "/></g><path style=" stroke:none;fill-rule:nonzero;fill:#000000;fill-opacity:1;" d="M 83.289062 43.398438 L 83.289062 36.710938 L 79.9375 36.710938 L 79.9375 30.003906 L 73.246094 30.003906 L 73.246094 23.296875 L 76.582031 23.296875 L 76.582031 16.609375 L 73.246094 16.609375 L 73.246094 9.902344 L 59.835938 9.902344 L 59.835938 16.609375 L 53.144531 16.609375 L 53.144531 23.296875 L 46.441406 23.296875 L 46.441406 16.609375 L 39.734375 16.609375 L 39.734375 9.902344 L 26.339844 9.902344 L 26.339844 16.609375 L 22.988281 16.609375 L 22.988281 23.296875 L 26.339844 23.296875 L 26.339844 30.003906 L 19.648438 30.003906 L 19.648438 36.710938 L 16.296875 36.710938 L 16.296875 43.398438 L 12.945312 43.398438 L 12.945312 63.5 L 16.296875 63.5 L 16.296875 70.203125 L 22.988281 70.203125 L 22.988281 76.894531 L 26.339844 76.894531 L 26.339844 83.601562 L 39.734375 83.601562 L 39.734375 76.894531 L 46.441406 76.894531 L 46.441406 70.203125 L 53.144531 70.203125 L 53.144531 76.894531 L 59.835938 76.894531 L 59.835938 83.601562 L 73.246094 83.601562 L 73.246094 76.894531 L 76.582031 76.894531 L 76.582031 70.203125 L 83.289062 70.203125 L 83.289062 63.5 L 86.640625 63.5 L 86.640625 43.398438 Z M 83.289062 43.398438 "/><path style=" stroke:none;fill-rule:nonzero;fill:#c328d0;fill-opacity:1;" d="M 63.1875 76.894531 L 63.1875 70.1875 L 69.894531 70.1875 L 69.894531 76.894531 Z M 69.894531 23.296875 L 69.894531 16.609375 L 63.1875 16.609375 L 63.1875 23.3125 L 66.542969 23.3125 Z M 79.9375 43.398438 L 79.9375 63.5 L 73.230469 63.5 L 73.230469 56.792969 L 66.527344 56.792969 L 66.527344 63.5 L 63.171875 63.5 L 63.171875 70.203125 L 56.46875 70.203125 L 56.46875 63.5 L 43.058594 63.5 L 43.058594 70.203125 L 36.351562 70.203125 L 36.351562 63.5 L 33 63.5 L 33 56.792969 L 26.292969 56.792969 L 26.292969 63.5 L 19.589844 63.5 L 19.589844 43.398438 L 22.941406 43.398438 L 22.941406 36.695312 L 29.648438 36.695312 L 29.648438 29.988281 L 36.351562 29.988281 L 36.351562 23.28125 L 43.058594 23.28125 L 43.058594 29.988281 L 56.46875 29.988281 L 56.46875 23.28125 L 63.171875 23.28125 L 63.171875 29.988281 L 69.878906 29.988281 L 69.878906 36.710938 L 76.582031 36.710938 L 76.582031 43.414062 Z M 33.046875 16.609375 L 29.691406 16.609375 L 29.691406 23.3125 L 36.398438 23.3125 L 36.398438 16.609375 Z M 29.691406 70.203125 L 29.691406 76.910156 L 36.398438 76.910156 L 36.398438 70.203125 Z M 29.691406 70.203125 "/><path style=" stroke:none;fill-rule:nonzero;fill:#77c914;fill-opacity:1;" d="M 56.5 43.398438 L 56.5 36.695312 L 63.203125 36.695312 L 63.203125 43.398438 Z M 39.734375 43.398438 L 43.089844 43.398438 L 43.089844 36.695312 L 36.382812 36.695312 L 36.382812 43.398438 Z M 39.734375 43.398438 "/></g></svg>