<svg xmlns="http://www.w3.org/2000/svg" xmlns:xlink="http://www.w3.org/1999/xlink" width="128" zoomAndPan="magnify" viewBox="0 0 96 95.999999" height="128" preserveAspectRatio="xMidYMid meet" version="1.2"><defs><clipPath id="5ca833d268"><path d="M 46.226562 57.949219 L 49.976562 57.949219 L 49.976562 61.699219 L 46.226562 61.699219 Z M 46.226562 57.949219 "/></clipPath><clipPath id="4f91eeca6f"><path d="M 11 5.117188 L 88.851562 5.117188 L 88.851562 83.117188 L 11 83.117188 Z M 11 5.117188 "/></clipPath></defs><g id="6d322d6ab4"><g clip-rule="nonzero" clip-path="url(#5ca833d268)"><path style=" stroke:none;fill-rule:nonzero;fill:#231815;fill-opacity:1;" d="M 49.765625 59.71875 C 49.765625 59.953125 49.71875 60.179688 49.628906 60.394531 C 49.539062 60.613281 49.414062 60.804688 49.246094 60.96875 C 49.082031 61.136719 48.890625 61.261719 48.671875 61.351562 C 48.457031 61.441406 48.230469 61.488281 47.996094 61.488281 C 47.761719 61.488281 47.535156 61.441406 47.316406 61.351562 C 47.101562 61.261719 46.910156 61.136719 46.742188 60.96875 C 46.578125 60.804688 46.449219 60.613281 46.359375 60.394531 C 46.269531 60.179688 46.226562 59.953125 46.226562 59.71875 C 46.226562 59.484375 46.269531 59.257812 46.359375 59.039062 C 46.449219 58.824219 46.578125 58.632812 46.742188 58.46875 C 46.910156 58.300781 47.101562 58.171875 47.316406 58.082031 C 47.535156 57.992188 47.761719 57.949219 47.996094 57.949219 C 48.230469 57.949219 48.457031 57.992188 48.671875 58.082031 C 48.890625 58.171875 49.082031 58.300781 49.246094 58.46875 C 49.414062 58.632812 49.539062 58.824219 49.628906 59.039062 C 49.71875 59.257812 49.765625 59.484375 49.765625 59.71875 Z M 49.765625 59.71875 "/></g><g clip-rule="nonzero" clip-path="url(#4f91eeca6f)"><path style=" stroke:none;fill-rule:nonzero;fill:#00000f;fill-opacity:1;" d="M 88.828125 32.105469 C 88.824219 32.105469 88.824219 32.105469 88.820312 32.105469 C 88.820312 32.101562 88.820312 32.097656 88.820312 32.097656 C 87.457031 32.097656 86.097656 32.097656 84.761719 32.097656 C 85.359375 31.015625 86.445312 30.316406 87.550781 29.519531 C 87.542969 29.519531 87.535156 29.519531 87.53125 29.519531 C 87.535156 29.515625 87.539062 29.515625 87.542969 29.511719 C 87.386719 29.5 87.347656 29.484375 87.324219 29.496094 C 84.632812 30.734375 82.148438 32.265625 80.167969 34.519531 C 79.359375 35.441406 78.808594 36.476562 78.734375 37.714844 C 78.65625 38.921875 78.6875 40.140625 78.53125 41.335938 C 78.277344 43.246094 77.160156 44.6875 74.683594 44.210938 C 73.382812 43.960938 72.058594 43.773438 70.738281 43.671875 C 68.898438 43.53125 68.789062 43.652344 68.257812 45.449219 C 67.917969 46.585938 67.625 47.742188 66.898438 48.722656 C 65.492188 50.609375 63.582031 51.703125 61.339844 52.269531 C 60.554688 52.464844 59.761719 52.613281 58.96875 52.78125 C 59.390625 51.996094 59.820312 51.277344 60.167969 50.519531 C 60.703125 49.347656 60.6875 48.070312 60.796875 46.816406 C 60.910156 45.511719 61.226562 44.378906 62.757812 44.035156 C 63.457031 43.875 63.699219 43.347656 63.546875 42.625 C 63.355469 41.734375 63.140625 40.851562 62.925781 39.96875 C 62.339844 37.589844 63.203125 35.523438 65.289062 34.535156 C 66.753906 33.839844 68.339844 33.609375 69.933594 33.867188 C 71.53125 34.121094 73.097656 34.539062 74.671875 34.894531 C 75.160156 35.003906 75.597656 34.964844 75.972656 34.609375 C 76.484375 34.117188 77.019531 33.652344 77.503906 33.132812 C 79.898438 30.578125 80.972656 27.644531 79.929688 24.164062 C 79.496094 22.707031 79.785156 21.410156 80.664062 20.210938 C 82.203125 18.117188 84.246094 16.753906 86.726562 16.03125 C 86.976562 15.957031 87.21875 15.867188 87.464844 15.789062 C 87.453125 15.738281 87.4375 15.691406 87.417969 15.644531 C 87.417969 15.644531 87.414062 15.644531 87.414062 15.644531 C 87.414062 15.640625 87.414062 15.640625 87.410156 15.632812 C 85.53125 15.789062 83.660156 15.980469 81.898438 16.792969 C 82.433594 15.570312 83.421875 14.761719 84.34375 13.886719 C 84.328125 13.894531 84.3125 13.902344 84.300781 13.90625 C 84.308594 13.898438 84.324219 13.886719 84.332031 13.875 C 83.734375 14.164062 83.183594 14.503906 82.628906 14.839844 C 81.015625 15.824219 79.652344 17.035156 78.570312 18.621094 C 77.355469 20.398438 77.039062 22.199219 77.710938 24.25 C 78.582031 26.90625 77.71875 29.636719 75.550781 31.417969 C 74.871094 31.976562 74.105469 32.195312 73.230469 31.957031 C 72.78125 31.832031 72.324219 31.75 71.878906 31.617188 C 69.023438 30.777344 66.28125 31.246094 63.59375 32.339844 C 62.902344 32.621094 62.417969 33.101562 62.214844 33.84375 C 62.128906 34.160156 62.011719 34.464844 61.933594 34.785156 C 61.492188 36.625 61.328125 38.5 61.410156 40.386719 C 61.457031 41.378906 61.195312 42.191406 60.320312 42.742188 C 60.117188 42.871094 59.949219 43.050781 59.769531 43.210938 C 59.140625 43.765625 58.796875 44.449219 58.808594 45.300781 C 58.820312 45.925781 58.816406 46.550781 58.785156 47.171875 C 58.71875 48.578125 58.476562 49.945312 57.714844 51.171875 C 57.625 51.320312 57.5 51.445312 57.390625 51.582031 C 57.328125 51.570312 57.269531 51.558594 57.210938 51.542969 C 57.191406 51.078125 57.207031 50.609375 57.136719 50.152344 C 57.097656 49.886719 57.019531 49.550781 56.855469 49.367188 C 56.832031 49.339844 56.804688 49.316406 56.777344 49.296875 C 56.484375 49.082031 56.277344 48.929688 56.144531 48.796875 C 55.855469 48.5 55.941406 48.273438 56.234375 47.519531 C 56.265625 47.441406 56.292969 47.355469 56.328125 47.277344 C 56.539062 46.804688 56.484375 46.371094 56.132812 45.984375 C 55.8125 45.621094 55.457031 45.289062 55.15625 44.910156 C 54.617188 44.222656 53.953125 43.574219 53.636719 42.789062 C 53.402344 42.21875 53.152344 41.757812 52.757812 41.359375 C 52.625 41.226562 52.476562 41.097656 52.308594 40.976562 C 52.097656 40.828125 51.914062 40.667969 51.753906 40.496094 C 51.039062 39.734375 50.78125 38.753906 51.015625 37.625 C 51.113281 37.15625 51.28125 36.699219 51.46875 36.257812 C 51.644531 35.835938 51.578125 35.523438 51.292969 35.246094 C 51.25 35.203125 51.203125 35.164062 51.152344 35.121094 C 51.007812 35.011719 50.902344 34.925781 50.828125 34.851562 C 50.605469 34.625 50.679688 34.488281 50.964844 33.980469 C 51.296875 33.390625 51.480469 32.804688 50.957031 32.222656 C 49.632812 30.746094 50.296875 28.828125 51.339844 27.800781 C 52.460938 26.695312 53.835938 26.03125 55.332031 25.753906 C 56.621094 25.519531 57.195312 24.804688 57.421875 23.632812 C 57.46875 23.398438 57.5 23.152344 57.589844 22.933594 C 57.65625 22.777344 57.792969 22.566406 57.929688 22.535156 C 58.570312 22.386719 58.933594 21.941406 59.226562 21.421875 C 59.722656 20.558594 60.492188 20.117188 61.4375 19.96875 C 62.011719 19.875 62.601562 19.847656 63.1875 19.824219 C 63.933594 19.800781 64.0625 19.726562 64.332031 19.042969 C 64.558594 18.464844 64.730469 17.859375 65.023438 17.320312 C 65.90625 15.683594 66.847656 14.078125 67.738281 12.445312 C 67.890625 12.167969 68.046875 11.761719 67.957031 11.507812 C 67.277344 9.671875 66.53125 7.859375 65.808594 6.042969 C 65.746094 5.878906 65.65625 5.746094 65.550781 5.640625 C 65.371094 5.464844 65.140625 5.363281 64.855469 5.328125 C 64.289062 5.261719 63.726562 5.171875 63.15625 5.132812 C 62.96875 5.121094 62.738281 5.199219 62.589844 5.3125 C 62.214844 5.59375 61.867188 5.90625 61.527344 6.226562 C 61.425781 6.324219 61.308594 6.492188 61.320312 6.621094 C 61.375 7.183594 61.460938 7.746094 61.5625 8.308594 C 61.566406 8.339844 61.59375 8.378906 61.628906 8.410156 C 61.6875 8.464844 61.769531 8.511719 61.832031 8.515625 C 61.898438 8.519531 62.019531 8.375 62.035156 8.28125 C 62.097656 7.976562 62.109375 7.664062 62.160156 7.359375 C 62.242188 6.890625 62.492188 6.558594 62.984375 6.488281 C 63.332031 6.4375 63.648438 6.496094 63.875 6.71875 C 63.949219 6.792969 64.007812 6.886719 64.058594 7 C 64.90625 8.921875 65.019531 10.839844 63.890625 12.691406 C 63.660156 13.066406 63.234375 13.328125 62.882812 13.617188 C 62.613281 13.835938 62.316406 14.015625 62.023438 14.203125 C 61.71875 14.402344 61.425781 14.703125 61.09375 14.769531 C 59.503906 15.089844 57.878906 15.25 56.316406 15.648438 C 53.765625 16.304688 54.554688 15.734375 53.121094 17.9375 C 52.882812 18.300781 52.496094 18.652344 52.097656 18.8125 C 49.488281 19.863281 46.878906 20.914062 44.46875 22.367188 C 42.53125 23.535156 40.640625 24.777344 38.746094 26.015625 C 37.476562 26.84375 36.957031 27.996094 37.269531 29.535156 C 37.371094 30.023438 37.320312 30.570312 37.222656 31.070312 C 36.996094 32.1875 36.273438 33.035156 35.597656 33.914062 C 34.511719 35.324219 33.46875 36.765625 32.4375 38.214844 C 32.058594 38.75 31.953125 39.355469 32.09375 40.035156 C 32.382812 41.449219 32.691406 42.871094 32.828125 44.304688 C 33.027344 46.410156 32.472656 48.410156 31.667969 50.34375 C 31.320312 51.175781 31.035156 52.027344 31.117188 52.945312 C 31.21875 54.066406 31.398438 55.179688 31.441406 56.300781 C 31.5 57.753906 31.757812 59.226562 31.175781 60.648438 C 31.082031 60.878906 31.089844 61.160156 31.09375 61.414062 C 31.09375 61.71875 31.277344 62.160156 31.140625 62.292969 C 30.953125 62.480469 30.535156 62.425781 30.21875 62.484375 C 25.90625 63.324219 21.640625 64.347656 17.457031 65.679688 C 15.695312 66.242188 13.957031 66.882812 12.492188 68.058594 C 11.566406 68.800781 10.851562 69.714844 11.070312 70.984375 C 11.226562 71.894531 11.621094 72.625 12.195312 73.207031 C 12.640625 73.660156 13.199219 74.023438 13.84375 74.300781 C 14.332031 74.511719 14.867188 74.625 15.378906 74.78125 C 15.378906 74.800781 15.375 74.820312 15.375 74.839844 C 14.777344 74.796875 14.179688 74.753906 13.535156 74.707031 C 13.585938 74.847656 13.601562 74.957031 13.65625 75.035156 C 14 75.496094 14.359375 75.941406 14.757812 76.34375 C 15.269531 76.859375 15.84375 77.300781 16.53125 77.613281 C 16.886719 77.777344 17.339844 77.847656 17.722656 77.789062 C 18.003906 77.742188 18.199219 77.773438 18.351562 77.914062 C 18.398438 77.960938 18.445312 78.015625 18.488281 78.085938 C 18.628906 78.320312 18.796875 78.527344 18.980469 78.707031 C 19.382812 79.105469 19.878906 79.382812 20.421875 79.589844 C 22.304688 80.300781 24.191406 81.007812 26.085938 81.671875 C 26.765625 81.910156 27.488281 82.179688 28.1875 82.160156 C 29.835938 82.113281 31.402344 82.398438 32.964844 82.867188 C 33.765625 83.109375 34.5625 83.113281 35.269531 82.507812 C 35.398438 82.402344 35.707031 82.46875 35.921875 82.507812 C 36.367188 82.59375 36.804688 82.75 37.253906 82.800781 C 37.714844 82.851562 38.1875 82.804688 38.65625 82.8125 C 40.921875 82.859375 43.183594 82.765625 45.429688 82.414062 C 50.898438 81.554688 55.875 79.460938 60.460938 76.394531 C 63.898438 74.097656 66.964844 71.355469 69.894531 68.453125 C 74.070312 64.320312 77.964844 59.949219 80.804688 54.75 C 81.363281 53.734375 81.78125 52.632812 82.214844 51.550781 C 82.292969 51.347656 82.207031 50.96875 82.050781 50.8125 C 82.050781 50.808594 82.046875 50.808594 82.046875 50.804688 C 82.042969 50.804688 82.042969 50.804688 82.042969 50.800781 C 81.929688 50.6875 81.5625 50.738281 81.34375 50.816406 C 80.746094 51.039062 80.179688 51.335938 79.582031 51.554688 C 76.335938 52.75 72.917969 53.152344 69.519531 53.605469 C 67.554688 53.867188 65.554688 53.898438 63.570312 54.03125 C 63.386719 54.042969 63.203125 54.03125 63.019531 54.03125 C 63.140625 53.882812 63.257812 53.820312 63.378906 53.773438 C 65.339844 53.027344 66.914062 51.769531 68.183594 50.121094 C 68.984375 49.082031 69.445312 47.875 69.84375 46.640625 C 70.0625 45.96875 70.347656 45.761719 71.042969 45.832031 C 72.226562 45.957031 73.402344 46.132812 74.578125 46.304688 C 75.496094 46.4375 76.421875 46.679688 77.316406 46.222656 C 79.25 45.234375 80.65625 43.789062 81.199219 41.636719 C 81.367188 40.96875 81.460938 40.28125 81.566406 39.601562 C 81.757812 38.335938 81.953125 37.070312 82.644531 35.964844 C 83.898438 33.964844 85.839844 32.992188 88.042969 32.441406 C 88.3125 32.375 88.582031 32.304688 88.851562 32.234375 C 88.839844 32.191406 88.835938 32.148438 88.828125 32.105469 Z M 88.828125 32.105469 "/></g><path style=" stroke:none;fill-rule:nonzero;fill:#ff9cf6;fill-opacity:1;" d="M 67.40625 63.863281 C 67.496094 63.832031 67.535156 63.804688 67.558594 63.8125 C 68.402344 64.175781 69.097656 63.761719 69.78125 63.371094 C 71.375 62.449219 72.863281 61.382812 74.199219 60.113281 C 74.320312 60 74.425781 59.871094 74.554688 59.734375 C 74.121094 59.335938 73.730469 58.976562 73.335938 58.613281 C 73.359375 58.574219 73.382812 58.53125 73.402344 58.488281 C 73.804688 58.464844 74.207031 58.390625 74.601562 58.417969 C 75.96875 58.5 77 57.878906 77.878906 56.921875 C 79.289062 55.386719 80.542969 53.738281 81.453125 51.855469 C 81.535156 51.691406 81.636719 51.535156 81.726562 51.378906 C 81.765625 51.398438 81.804688 51.414062 81.84375 51.433594 C 81.609375 51.953125 81.445312 52.519531 81.132812 52.988281 C 80.253906 54.289062 79.363281 55.585938 78.394531 56.816406 C 77.386719 58.085938 76.113281 58.9375 74.347656 58.710938 C 74.335938 58.757812 74.328125 58.804688 74.320312 58.851562 C 74.652344 59.089844 74.984375 59.328125 75.425781 59.648438 C 73.167969 61.535156 71.042969 63.492188 68.195312 64.414062 C 68.277344 65.367188 68.328125 65.257812 67.183594 65.585938 C 66.953125 65.652344 66.707031 65.671875 66.46875 65.691406 C 65.652344 65.761719 64.945312 66.035156 64.3125 66.589844 C 63.09375 67.660156 61.566406 67.988281 60.011719 68.175781 C 55.460938 68.71875 50.894531 68.828125 46.328125 68.554688 C 43.175781 68.367188 40.039062 67.917969 36.890625 67.585938 C 34.761719 67.363281 32.632812 67.117188 30.503906 66.914062 C 26.84375 66.570312 23.175781 66.515625 19.507812 66.625 C 18.511719 66.65625 17.507812 66.785156 16.527344 66.96875 C 15.5625 67.148438 14.625 67.457031 13.644531 67.652344 C 14.128906 67.445312 14.605469 67.210938 15.101562 67.03125 C 17.128906 66.304688 19.25 66.085938 21.378906 66.113281 C 25.183594 66.160156 28.988281 66.242188 32.789062 66.441406 C 34.902344 66.550781 37.003906 66.949219 39.113281 67.183594 C 41.3125 67.425781 43.507812 67.730469 45.714844 67.828125 C 48.652344 67.960938 51.597656 68.003906 54.535156 67.929688 C 56.964844 67.867188 59.414062 67.773438 61.789062 67.167969 C 62.507812 66.984375 63.222656 66.648438 63.839844 66.234375 C 64.8125 65.578125 65.882812 65.34375 67 65.179688 C 67.984375 65.03125 68.019531 64.933594 67.480469 64.121094 C 67.4375 64.0625 67.433594 63.96875 67.40625 63.863281 Z M 67.40625 63.863281 "/><path style=" stroke:none;fill-rule:nonzero;fill:#ff9cf6;fill-opacity:1;" d="M 49.105469 54.597656 C 46.574219 55.78125 46.589844 58.128906 47.488281 59.285156 C 48.191406 60.183594 49.109375 60.613281 50.25 60.476562 C 51.378906 60.34375 52.140625 59.636719 52.730469 58.703125 C 52.5 60.648438 50.886719 62.367188 48.425781 62.070312 C 46.65625 61.859375 45.070312 59.988281 45.246094 58.203125 C 45.460938 56.050781 47.160156 54.417969 49.105469 54.597656 Z M 49.105469 54.597656 "/><path style=" stroke:none;fill-rule:nonzero;fill:#ff9cf6;fill-opacity:1;" d="M 39.589844 41.3125 C 39.691406 42.445312 40.140625 43.210938 41.308594 43.476562 C 40.21875 43.761719 39.714844 44.484375 39.550781 45.535156 C 39.367188 44.535156 39.007812 43.742188 37.746094 43.632812 C 38.257812 43.289062 38.738281 43.089844 39.015625 42.734375 C 39.296875 42.386719 39.378906 41.875 39.589844 41.3125 Z M 39.589844 41.3125 "/><path style=" stroke:none;fill-rule:nonzero;fill:#ff9cf6;fill-opacity:1;" d="M 59.269531 62.953125 C 58.996094 62.289062 58.96875 62.257812 57.917969 61.429688 C 58.78125 61.304688 59.074219 60.699219 59.226562 59.902344 C 59.386719 60.316406 59.445312 60.675781 59.644531 60.914062 C 59.847656 61.160156 60.191406 61.289062 60.566406 61.527344 C 59.835938 61.789062 59.335938 62.1875 59.269531 62.953125 Z M 59.269531 62.953125 "/><path style=" stroke:none;fill-rule:nonzero;fill:#ff9cf6;fill-opacity:1;" d="M 48.445312 27.851562 C 48.105469 28.101562 47.792969 28.335938 47.480469 28.570312 C 47.570312 28.640625 47.660156 28.710938 47.75 28.78125 C 47.484375 28.46875 47.21875 28.152344 46.988281 27.886719 C 47.246094 27.625 47.519531 27.347656 47.804688 27.054688 C 48.007812 27.308594 48.265625 27.628906 48.445312 27.851562 Z M 48.445312 27.851562 "/><path style=" stroke:none;fill-rule:nonzero;fill:#ff9cf6;fill-opacity:1;" d="M 34.308594 52.082031 C 34.160156 51.90625 33.949219 51.652344 33.707031 51.367188 C 33.933594 51.128906 34.195312 50.851562 34.476562 50.550781 C 34.691406 50.808594 34.917969 51.082031 35.160156 51.375 C 34.910156 51.585938 34.613281 51.832031 34.308594 52.082031 Z M 34.308594 52.082031 "/><path style=" stroke:none;fill-rule:nonzero;fill:#ff9cf6;fill-opacity:1;" d="M 38.558594 57.015625 C 38.304688 56.777344 38.085938 56.566406 37.816406 56.3125 C 38.0625 56.050781 38.332031 55.765625 38.605469 55.476562 C 38.855469 55.78125 39.078125 56.046875 39.300781 56.3125 C 39.050781 56.550781 38.792969 56.792969 38.558594 57.015625 Z M 38.558594 57.015625 "/><path style=" stroke:none;fill-rule:nonzero;fill:#ff9cf6;fill-opacity:1;" d="M 80.449219 37.242188 C 80.714844 37.613281 81.019531 37.855469 80.992188 38.058594 C 80.964844 38.277344 80.632812 38.460938 80.4375 38.660156 C 80.253906 38.476562 79.917969 38.285156 79.921875 38.109375 C 79.9375 37.863281 80.203125 37.628906 80.449219 37.242188 Z M 80.449219 37.242188 "/><path style=" stroke:none;fill-rule:nonzero;fill:#ff9cf6;fill-opacity:1;" d="M 75.941406 33.210938 C 75.628906 33.488281 75.464844 33.75 75.261719 33.785156 C 74.886719 33.851562 74.632812 33.5625 74.617188 33.214844 C 74.601562 32.804688 74.972656 32.726562 75.277344 32.761719 C 75.464844 32.78125 75.628906 32.992188 75.941406 33.210938 Z M 75.941406 33.210938 "/><path style=" stroke:none;fill-rule:nonzero;fill:#ff9cf6;fill-opacity:1;" d="M 80.46875 17.414062 C 81.101562 18.078125 81.09375 18.214844 80.328125 18.785156 C 80.253906 18.671875 80.191406 18.523438 80.082031 18.425781 C 79.96875 18.328125 79.816406 18.273438 79.648438 18.179688 C 80.003906 17.847656 80.226562 17.640625 80.46875 17.414062 Z M 80.46875 17.414062 "/><path style=" stroke:none;fill-rule:nonzero;fill:#ff9cf6;fill-opacity:1;" d="M 47.171875 39.8125 C 46.855469 40.046875 46.652344 40.300781 46.425781 40.324219 C 46.28125 40.339844 45.9375 39.953125 45.972656 39.847656 C 46.054688 39.617188 46.289062 39.371094 46.519531 39.292969 C 46.636719 39.253906 46.875 39.5625 47.171875 39.8125 Z M 47.171875 39.8125 "/><path style=" stroke:none;fill-rule:nonzero;fill:#ff9cf6;fill-opacity:1;" d="M 51.609375 47.390625 C 51.417969 47.523438 51.214844 47.773438 51.03125 47.757812 C 50.855469 47.742188 50.542969 47.4375 50.566406 47.304688 C 50.597656 47.097656 50.84375 46.820312 51.039062 46.777344 C 51.195312 46.746094 51.421875 47.015625 51.613281 47.15625 C 51.613281 47.234375 51.609375 47.3125 51.609375 47.390625 Z M 51.609375 47.390625 "/><path style=" stroke:none;fill-rule:nonzero;fill:#ff9cf6;fill-opacity:1;" d="M 35.773438 46.21875 C 35.59375 46.335938 35.394531 46.570312 35.234375 46.546875 C 35.046875 46.519531 34.78125 46.289062 34.746094 46.113281 C 34.6875 45.789062 34.953125 45.601562 35.265625 45.652344 C 35.445312 45.683594 35.597656 45.867188 35.765625 45.980469 C 35.769531 46.0625 35.773438 46.140625 35.773438 46.21875 Z M 35.773438 46.21875 "/><path style=" stroke:none;fill-rule:nonzero;fill:#ff9cf6;fill-opacity:1;" d="M 60.421875 17.800781 C 60.097656 18.054688 59.890625 18.328125 59.753906 18.296875 C 59.570312 18.253906 59.359375 17.992188 59.316406 17.792969 C 59.296875 17.683594 59.585938 17.417969 59.761719 17.390625 C 59.910156 17.367188 60.097656 17.585938 60.421875 17.800781 Z M 60.421875 17.800781 "/><path style=" stroke:none;fill-rule:nonzero;fill:#ff9cf6;fill-opacity:1;" d="M 46.347656 65.402344 C 46.082031 65.585938 45.90625 65.800781 45.777344 65.777344 C 45.597656 65.742188 45.453125 65.53125 45.292969 65.394531 C 45.464844 65.214844 45.632812 65.035156 45.800781 64.855469 C 45.949219 65.003906 46.101562 65.152344 46.347656 65.402344 Z M 46.347656 65.402344 "/><path style=" stroke:none;fill-rule:nonzero;fill:#ff9cf6;fill-opacity:1;" d="M 54.089844 21.960938 C 53.800781 22.199219 53.574219 22.472656 53.492188 22.433594 C 53.292969 22.34375 53.164062 22.105469 53.007812 21.925781 C 53.164062 21.800781 53.3125 21.59375 53.480469 21.574219 C 53.621094 21.5625 53.792969 21.761719 54.089844 21.960938 Z M 54.089844 21.960938 "/><path style=" stroke:none;fill-rule:nonzero;fill:#ff9cf6;fill-opacity:1;" d="M 26.476562 64.503906 C 26.421875 64.71875 26.414062 64.96875 26.292969 65.132812 C 26.238281 65.207031 25.917969 65.160156 25.785156 65.074219 C 25.675781 65 25.65625 64.785156 25.597656 64.632812 C 25.835938 64.542969 26.078125 64.449219 26.320312 64.359375 C 26.371094 64.40625 26.421875 64.457031 26.476562 64.503906 Z M 26.476562 64.503906 "/><path style=" stroke:none;fill-rule:nonzero;fill:#ff9cf6;fill-opacity:1;" d="M 63.789062 33.996094 C 63.570312 33.71875 63.449219 33.5625 63.324219 33.410156 C 63.460938 33.304688 63.597656 33.113281 63.730469 33.117188 C 63.863281 33.125 64.054688 33.308594 64.089844 33.445312 C 64.117188 33.558594 63.949219 33.71875 63.789062 33.996094 Z M 63.789062 33.996094 "/><path style=" stroke:none;fill-rule:nonzero;fill:#ff9cf6;fill-opacity:1;" d="M 43.28125 59.933594 C 43.082031 59.707031 42.886719 59.542969 42.910156 59.5 C 43.007812 59.320312 43.175781 59.179688 43.316406 59.027344 C 43.421875 59.128906 43.628906 59.246094 43.617188 59.324219 C 43.585938 59.5 43.445312 59.65625 43.28125 59.933594 Z M 43.28125 59.933594 "/><path style=" stroke:none;fill-rule:nonzero;fill:#ff9cf6;fill-opacity:1;" d="M 69.089844 60.242188 C 68.804688 60.417969 68.644531 60.597656 68.535156 60.570312 C 68.386719 60.53125 68.277344 60.335938 68.148438 60.210938 C 68.265625 60.09375 68.382812 59.886719 68.5 59.890625 C 68.652344 59.890625 68.800781 60.058594 69.089844 60.242188 Z M 69.089844 60.242188 "/><path style=" stroke:none;fill-rule:nonzero;fill:#ff9cf6;fill-opacity:1;" d="M 44.039062 34.714844 C 43.882812 34.464844 43.714844 34.308594 43.746094 34.238281 C 43.820312 34.066406 43.988281 33.9375 44.121094 33.796875 C 44.230469 33.917969 44.445312 34.050781 44.433594 34.15625 C 44.414062 34.3125 44.238281 34.453125 44.039062 34.714844 Z M 44.039062 34.714844 "/><path style=" stroke:none;fill-rule:nonzero;fill:#ff9cf6;fill-opacity:1;" d="M 39.722656 27.941406 C 39.429688 28.117188 39.273438 28.285156 39.136719 28.269531 C 39.015625 28.257812 38.800781 28.011719 38.824219 27.925781 C 38.867188 27.78125 39.050781 27.621094 39.203125 27.585938 C 39.304688 27.5625 39.453125 27.746094 39.722656 27.941406 Z M 39.722656 27.941406 "/><path style=" stroke:none;fill-rule:nonzero;fill:#ff9cf6;fill-opacity:1;" d="M 37.605469 37.453125 C 37.328125 37.640625 37.1875 37.8125 37.03125 37.824219 C 36.925781 37.832031 36.683594 37.582031 36.707031 37.515625 C 36.761719 37.355469 36.910156 37.171875 37.066406 37.117188 C 37.164062 37.085938 37.335938 37.273438 37.605469 37.453125 Z M 37.605469 37.453125 "/><path style=" stroke:none;fill-rule:nonzero;fill:#ff9cf6;fill-opacity:1;" d="M 55.28125 65.652344 C 55.042969 65.824219 54.90625 65.996094 54.800781 65.980469 C 54.664062 65.960938 54.550781 65.785156 54.429688 65.675781 C 54.550781 65.539062 54.652344 65.359375 54.804688 65.289062 C 54.871094 65.261719 55.039062 65.460938 55.28125 65.652344 Z M 55.28125 65.652344 "/><path style=" stroke:none;fill-rule:nonzero;fill:#ff9cf6;fill-opacity:1;" d="M 45.222656 50.550781 C 45.046875 50.289062 44.890625 50.144531 44.875 49.988281 C 44.871094 49.910156 45.132812 49.726562 45.253906 49.738281 C 45.386719 49.753906 45.574219 49.9375 45.59375 50.066406 C 45.605469 50.175781 45.414062 50.3125 45.222656 50.550781 Z M 45.222656 50.550781 "/><path style=" stroke:none;fill-rule:nonzero;fill:#ff9cf6;fill-opacity:1;" d="M 70.042969 45.378906 C 70.042969 44.988281 70.042969 44.761719 70.042969 44.535156 C 70.085938 44.511719 70.132812 44.492188 70.175781 44.46875 C 70.304688 44.660156 70.433594 44.851562 70.558594 45.042969 C 70.417969 45.136719 70.273438 45.230469 70.042969 45.378906 Z M 70.042969 45.378906 "/><path style=" stroke:none;fill-rule:nonzero;fill:#ff9cf6;fill-opacity:1;" d="M 72.589844 54.679688 C 72.738281 54.839844 72.835938 54.9375 72.929688 55.039062 C 72.835938 55.121094 72.734375 55.277344 72.648438 55.269531 C 72.53125 55.257812 72.394531 55.136719 72.335938 55.027344 C 72.3125 54.984375 72.464844 54.839844 72.589844 54.679688 Z M 72.589844 54.679688 "/><path style=" stroke:none;fill-rule:nonzero;fill:#ff9cf6;fill-opacity:1;" d="M 61.226562 53.339844 C 61.28125 53.480469 61.386719 53.628906 61.367188 53.757812 C 61.351562 53.851562 61.171875 53.992188 61.066406 53.988281 C 60.964844 53.984375 60.839844 53.839844 60.789062 53.726562 C 60.765625 53.679688 60.921875 53.558594 60.996094 53.46875 C 61.074219 53.425781 61.152344 53.382812 61.226562 53.339844 Z M 61.226562 53.339844 "/><path style=" stroke:none;fill-rule:nonzero;fill:#ff9cf6;fill-opacity:1;" d="M 78.980469 43.457031 C 79.109375 43.609375 79.269531 43.71875 79.261719 43.808594 C 79.25 43.90625 79.042969 44.078125 78.988281 44.058594 C 78.855469 44.003906 78.765625 43.855469 78.660156 43.742188 C 78.75 43.664062 78.835938 43.585938 78.980469 43.457031 Z M 78.980469 43.457031 "/></g></svg>