<svg xmlns="http://www.w3.org/2000/svg" xmlns:xlink="http://www.w3.org/1999/xlink" width="128" zoomAndPan="magnify" viewBox="0 0 96 95.999999" height="128" preserveAspectRatio="xMidYMid meet" version="1.2"><defs><clipPath id="8fab2d9e9e"><path d="M 46.226562 57.949219 L 49.976562 57.949219 L 49.976562 61.699219 L 46.226562 61.699219 Z M 46.226562 57.949219 "/></clipPath><clipPath id="2d007325a9"><path d="M 15 13.53125 L 78 13.53125 L 78 53 L 15 53 Z M 15 13.53125 "/></clipPath><clipPath id="ea2d31424b"><path d="M 12.792969 45 L 79.542969 45 L 79.542969 82.53125 L 12.792969 82.53125 Z M 12.792969 45 "/></clipPath></defs><g id="d2aaae8e62"><g clip-rule="nonzero" clip-path="url(#8fab2d9e9e)"><path style=" stroke:none;fill-rule:nonzero;fill:#231815;fill-opacity:1;" d="M 49.765625 59.71875 C 49.765625 59.953125 49.71875 60.179688 49.628906 60.394531 C 49.539062 60.613281 49.414062 60.804688 49.246094 60.96875 C 49.082031 61.136719 48.890625 61.261719 48.671875 61.351562 C 48.457031 61.441406 48.230469 61.488281 47.996094 61.488281 C 47.761719 61.488281 47.535156 61.441406 47.316406 61.351562 C 47.101562 61.261719 46.910156 61.136719 46.742188 60.96875 C 46.578125 60.804688 46.449219 60.613281 46.359375 60.394531 C 46.269531 60.179688 46.226562 59.953125 46.226562 59.71875 C 46.226562 59.484375 46.269531 59.257812 46.359375 59.039062 C 46.449219 58.824219 46.578125 58.632812 46.742188 58.46875 C 46.910156 58.300781 47.101562 58.171875 47.316406 58.082031 C 47.535156 57.992188 47.761719 57.949219 47.996094 57.949219 C 48.230469 57.949219 48.457031 57.992188 48.671875 58.082031 C 48.890625 58.171875 49.082031 58.300781 49.246094 58.46875 C 49.414062 58.632812 49.539062 58.824219 49.628906 59.039062 C 49.71875 59.257812 49.765625 59.484375 49.765625 59.71875 Z M 49.765625 59.71875 "/></g><g clip-rule="nonzero" clip-path="url(#2d007325a9)"><path style=" stroke:none;fill-rule:nonzero;fill:#000000;fill-opacity:1;" d="M 77.15625 45.136719 L 47.757812 14.222656 C 47.339844 13.785156 46.777344 13.542969 46.167969 13.542969 C 45.558594 13.542969 44.996094 13.785156 44.578125 14.222656 L 15.179688 45.136719 C 22.042969 48.539062 32.804688 52.421875 46.167969 52.421875 C 53.667969 52.421875 65.074219 51.144531 77.15625 45.136719 Z M 63.3125 36.539062 C 63.550781 36.730469 63.589844 37.082031 63.398438 37.320312 L 56.292969 46.238281 C 56.183594 46.375 56.019531 46.445312 55.859375 46.445312 C 55.738281 46.445312 55.613281 46.40625 55.511719 46.324219 C 55.273438 46.132812 55.234375 45.78125 55.425781 45.542969 L 62.53125 36.625 C 62.722656 36.386719 63.070312 36.347656 63.3125 36.539062 Z M 59.433594 33.464844 C 59.675781 33.65625 59.714844 34.003906 59.523438 34.246094 L 50.476562 45.59375 C 50.367188 45.730469 50.207031 45.800781 50.042969 45.800781 C 49.921875 45.800781 49.800781 45.761719 49.699219 45.679688 C 49.457031 45.488281 49.417969 45.136719 49.609375 44.898438 L 58.65625 33.550781 C 58.847656 33.3125 59.195312 33.273438 59.433594 33.464844 Z M 25.496094 43.867188 C 25.375 43.867188 25.25 43.828125 25.148438 43.746094 C 24.910156 43.554688 24.871094 43.207031 25.0625 42.964844 L 45.089844 17.839844 C 45.28125 17.597656 45.628906 17.5625 45.867188 17.753906 C 46.109375 17.945312 46.148438 18.292969 45.957031 18.535156 L 25.929688 43.660156 C 25.820312 43.796875 25.65625 43.867188 25.496094 43.867188 Z M 31.308594 44.328125 C 31.1875 44.328125 31.066406 44.285156 30.960938 44.203125 C 30.722656 44.011719 30.683594 43.664062 30.875 43.421875 L 47.671875 22.347656 C 47.863281 22.109375 48.214844 22.070312 48.453125 22.261719 C 48.691406 22.453125 48.730469 22.804688 48.539062 23.042969 L 31.742188 44.117188 C 31.632812 44.253906 31.472656 44.328125 31.308594 44.328125 Z M 37.769531 45.15625 C 37.648438 45.15625 37.527344 45.117188 37.421875 45.035156 C 37.183594 44.84375 37.144531 44.492188 37.335938 44.253906 L 50.902344 27.234375 C 51.09375 26.992188 51.441406 26.953125 51.683594 27.144531 C 51.921875 27.335938 51.960938 27.6875 51.769531 27.929688 L 38.203125 44.949219 C 38.09375 45.085938 37.933594 45.15625 37.769531 45.15625 Z M 44.230469 45.15625 C 44.109375 45.15625 43.984375 45.117188 43.882812 45.035156 C 43.644531 44.84375 43.605469 44.492188 43.796875 44.253906 L 54.777344 30.476562 C 54.96875 30.234375 55.320312 30.195312 55.558594 30.386719 C 55.796875 30.578125 55.835938 30.929688 55.644531 31.167969 L 44.664062 44.949219 C 44.554688 45.085938 44.390625 45.15625 44.230469 45.15625 Z M 44.230469 45.15625 "/></g><g clip-rule="nonzero" clip-path="url(#ea2d31424b)"><path style=" stroke:none;fill-rule:nonzero;fill:#000000;fill-opacity:1;" d="M 78.859375 46.929688 L 77.957031 45.980469 C 65.570312 52.214844 53.847656 53.53125 46.167969 53.53125 C 32.390625 53.53125 21.335938 49.472656 14.378906 45.980469 L 13.476562 46.929688 C 13 47.429688 12.792969 48.109375 12.90625 48.789062 C 13.019531 49.472656 13.441406 50.046875 14.058594 50.367188 C 18.320312 52.578125 24.214844 55.050781 31.402344 56.621094 C 32.0625 59.664062 33.824219 63.566406 35.355469 66.144531 C 37.160156 69.195312 39.84375 72.738281 42.734375 75.082031 C 42.410156 75.335938 42.199219 75.726562 42.199219 76.167969 C 42.199219 76.929688 42.816406 77.546875 43.574219 77.546875 L 44.613281 77.546875 C 44.101562 78.292969 43.433594 79.261719 43.121094 79.726562 C 42.691406 80.371094 42.261719 81.015625 41.832031 81.65625 C 41.660156 81.914062 41.730469 82.257812 41.984375 82.429688 C 42.078125 82.492188 42.183594 82.523438 42.292969 82.523438 C 42.46875 82.523438 42.644531 82.4375 42.753906 82.277344 C 43.183594 81.632812 43.613281 80.988281 44.042969 80.34375 C 44.453125 79.734375 45.484375 78.246094 45.957031 77.546875 L 46.597656 77.546875 L 49.582031 82.277344 C 49.691406 82.4375 49.867188 82.523438 50.042969 82.523438 C 50.152344 82.523438 50.257812 82.492188 50.351562 82.429688 C 50.609375 82.257812 50.675781 81.914062 50.503906 81.65625 L 47.910156 77.546875 L 48.761719 77.546875 C 49.519531 77.546875 50.136719 76.929688 50.136719 76.167969 C 50.136719 75.632812 49.824219 75.167969 49.378906 74.941406 C 52.277344 72.59375 55.210938 69.132812 56.980469 66.144531 C 58.527344 63.539062 60.175781 59.710938 60.816406 56.648438 C 66.222656 55.488281 72.179688 53.539062 78.28125 50.367188 C 78.898438 50.046875 79.316406 49.472656 79.429688 48.789062 C 79.542969 48.109375 79.335938 47.429688 78.859375 46.929688 Z M 56.027344 65.578125 C 54.132812 68.773438 50.820312 72.578125 47.742188 74.792969 L 44.179688 74.792969 C 41.113281 72.578125 38.203125 68.773438 36.308594 65.578125 C 34.921875 63.234375 33.308594 59.71875 32.601562 56.871094 C 36.738281 57.699219 41.277344 58.21875 46.167969 58.21875 C 49.851562 58.21875 54.460938 57.910156 59.625 56.894531 C 58.945312 59.753906 57.433594 63.207031 56.027344 65.578125 Z M 56.027344 65.578125 "/></g></g></svg>