<svg xmlns="http://www.w3.org/2000/svg" xmlns:xlink="http://www.w3.org/1999/xlink" width="128" zoomAndPan="magnify" viewBox="0 0 96 95.999999" height="128" preserveAspectRatio="xMidYMid meet" version="1.2"><defs><clipPath id="7a8cddb1e4"><path d="M 21 52 L 83.144531 52 L 83.144531 70.285156 L 21 70.285156 Z M 21 52 "/></clipPath><clipPath id="74483d2f83"><path d="M 12.644531 28 L 82 28 L 82 61 L 12.644531 61 Z M 12.644531 28 "/></clipPath><clipPath id="727289d0c2"><path d="M 12.644531 26.035156 L 82 26.035156 L 82 49 L 12.644531 49 Z M 12.644531 26.035156 "/></clipPath><clipPath id="4b7046b735"><path d="M 24.523438 50.503906 L 32.023438 50.503906 L 32.023438 58.003906 L 24.523438 58.003906 Z M 24.523438 50.503906 "/></clipPath></defs><g id="26b9228cef"><g clip-rule="nonzero" clip-path="url(#7a8cddb1e4)"><path style=" stroke:none;fill-rule:nonzero;fill:#ed001b;fill-opacity:1;" d="M 68.871094 59.160156 C 72.691406 58.417969 83.144531 52.902344 83.144531 52.902344 L 80.828125 62.40625 L 72.074219 61.679688 L 79.269531 66.1875 L 73.589844 70.269531 L 66.867188 61.6875 C 52.839844 63.710938 38.769531 65.421875 24.664062 66.820312 C 23.121094 64.011719 22.191406 61.007812 21.875 57.8125 C 21.875 57.8125 50.09375 54.367188 68.871094 59.160156 Z M 68.871094 59.160156 "/></g><g clip-rule="nonzero" clip-path="url(#74483d2f83)"><path style=" stroke:none;fill-rule:nonzero;fill:#0b0007;fill-opacity:1;" d="M 81.949219 46.601562 C 81.910156 47.601562 81.589844 48.507812 80.992188 49.308594 C 78.617188 52.605469 75.992188 56.300781 72.792969 59.027344 C 72.21875 59.507812 71.578125 59.855469 70.859375 60.0625 C 70.144531 60.269531 69.417969 60.324219 68.679688 60.226562 C 53.78125 58.199219 38.324219 57.628906 23.507812 59.980469 C 18.226562 60.816406 14.453125 54.585938 12.9375 50.03125 C 12.628906 49.121094 12.648438 48.21875 12.996094 47.324219 C 14.097656 46.863281 15.816406 46.484375 19.054688 47.28125 C 23.417969 47.582031 28.148438 44.109375 30.867188 40.640625 C 33.582031 37.175781 34.582031 33.816406 38.171875 31.289062 C 43.644531 27.4375 51.59375 26.992188 56.242188 31.828125 C 58.582031 34.257812 59.828125 37.363281 61.785156 40.121094 C 63.75 42.871094 67.0625 45.636719 70.417969 45.535156 C 72.386719 45.472656 73.328125 45.257812 75.265625 44.878906 C 77.316406 44.480469 78.886719 43.710938 81.777344 45.335938 C 81.910156 45.746094 81.96875 46.167969 81.949219 46.601562 Z M 81.949219 46.601562 "/></g><g clip-rule="nonzero" clip-path="url(#727289d0c2)"><path style=" stroke:none;fill-rule:nonzero;fill:#ff9831;fill-opacity:1;" d="M 81.777344 45.335938 C 80.207031 45.195312 78.539062 45.484375 77.003906 45.894531 C 74.355469 46.601562 71.65625 47.617188 68.949219 47.183594 C 65.5625 46.640625 62.925781 43.941406 60.925781 41.121094 C 60.371094 40.335938 59.84375 39.527344 59.3125 38.722656 C 59.617188 37.023438 58.703125 35.558594 57.417969 35.984375 C 56.9375 35.335938 56.417969 34.71875 55.863281 34.132812 C 55.4375 31.542969 53.054688 30.527344 51.878906 31.25 C 47.074219 29.082031 40.910156 29.960938 37.121094 33.726562 C 34.367188 36.460938 32.9375 40.289062 30.386719 43.21875 C 26.238281 47.976562 19.09375 49.648438 12.996094 47.324219 C 13.101562 47.0625 13.238281 46.816406 13.40625 46.589844 C 14.816406 44.65625 17.0625 45.472656 19.054688 45.609375 C 23.417969 45.910156 27.257812 42.710938 29.972656 39.242188 C 32.6875 35.777344 34.90625 31.761719 38.5 29.234375 C 42.785156 26.210938 48.753906 26.046875 53.367188 28.445312 C 53.527344 30.835938 56.023438 32.039062 57.28125 31.519531 C 57.804688 32.121094 58.289062 32.75 58.734375 33.410156 C 58.554688 34.914062 59.359375 36.523438 60.550781 36.292969 C 61.183594 37.335938 61.816406 38.378906 62.519531 39.367188 C 64.480469 42.117188 67.386719 44.601562 70.742188 44.503906 C 72.714844 44.441406 74.546875 43.496094 76.480469 43.117188 C 78.535156 42.714844 81.105469 43.234375 81.777344 45.335938 Z M 81.777344 45.335938 "/></g><path style=" stroke:none;fill-rule:nonzero;fill:#f2f2ed;fill-opacity:1;" d="M 54.992188 40.777344 C 54.996094 40.324219 55.027344 39.660156 55.246094 39.265625 C 55.472656 38.828125 55.824219 38.585938 56.308594 38.53125 C 56.800781 38.527344 57.164062 38.738281 57.398438 39.175781 C 57.617188 39.597656 57.648438 40.03125 57.496094 40.480469 C 58.078125 40.464844 58.5625 40.6875 58.9375 41.140625 C 59.179688 41.417969 59.261719 41.742188 59.179688 42.101562 C 59.074219 42.394531 58.886719 42.613281 58.617188 42.765625 C 58.015625 43.144531 57.367188 43.257812 56.671875 43.101562 C 56.6875 43.15625 52.800781 45.589844 52.800781 45.589844 C 52.59375 44.605469 52.144531 43.753906 51.445312 43.035156 Z M 40.871094 45.601562 C 41.054688 44.605469 41.5625 43.375 42.289062 42.679688 C 42.289062 42.679688 39.832031 41.007812 39.851562 40.964844 C 39.96875 40.339844 39.878906 39.652344 39.5 39.144531 C 39.117188 38.636719 38.40625 38.367188 37.824219 38.605469 C 37.441406 38.773438 37.179688 39.058594 37.039062 39.457031 C 36.902344 39.851562 36.894531 40.25 37.015625 40.648438 C 36.628906 40.714844 35.195312 42.375 35.511719 43.289062 C 35.679688 43.726562 35.992188 43.984375 36.449219 44.0625 C 36.867188 44.140625 37.53125 43.726562 37.890625 43.5 Z M 38.746094 49.902344 C 38.417969 49.726562 38.070312 49.605469 37.703125 49.535156 C 37.308594 49.46875 36.964844 49.566406 36.671875 49.839844 C 36.355469 50.167969 36.335938 50.71875 36.5625 51.117188 C 36.820312 51.53125 37.1875 51.777344 37.664062 51.859375 C 37.496094 52.292969 37.464844 52.738281 37.5625 53.195312 C 37.667969 53.671875 37.941406 54.011719 38.378906 54.214844 C 38.59375 54.308594 38.8125 54.328125 39.035156 54.277344 C 39.261719 54.226562 39.453125 54.113281 39.605469 53.941406 C 39.828125 53.625 39.886719 53.28125 39.785156 52.910156 C 39.761719 52.914062 42.289062 51.28125 42.289062 51.28125 C 41.507812 50.582031 41.058594 49.710938 40.941406 48.664062 Z M 52.304688 48.664062 C 51.984375 49.671875 51.433594 50.53125 50.65625 51.242188 C 50.65625 51.242188 53.320312 53.195312 53.253906 53.238281 C 53.183594 53.769531 53.511719 54.3125 54.019531 54.578125 C 54.269531 54.71875 54.535156 54.761719 54.816406 54.703125 C 55.148438 54.605469 55.371094 54.390625 55.484375 54.054688 C 55.589844 53.761719 55.585938 53.449219 55.589844 53.0625 C 55.984375 52.949219 56.355469 52.78125 56.703125 52.558594 C 57.046875 52.34375 57.28125 52.039062 57.40625 51.648438 C 57.519531 51.230469 57.417969 50.882812 57.089844 50.605469 C 56.824219 50.402344 56.523438 50.320312 56.191406 50.359375 C 55.867188 50.394531 55.574219 50.511719 55.3125 50.703125 Z M 51.109375 49.652344 C 50.734375 50.21875 50.214844 50.71875 50.09375 51.386719 C 50.015625 51.839844 50.121094 52.316406 50.023438 52.765625 C 49.996094 52.886719 49.953125 53.003906 49.894531 53.117188 C 49.835938 53.230469 49.765625 53.332031 49.679688 53.425781 C 49.597656 53.519531 49.503906 53.601562 49.398438 53.671875 C 49.292969 53.738281 49.179688 53.792969 49.0625 53.832031 C 48.941406 53.871094 48.820312 53.894531 48.695312 53.902344 C 48.570312 53.910156 48.445312 53.902344 48.324219 53.875 C 48.203125 53.851562 48.085938 53.808594 47.972656 53.753906 C 47.859375 53.699219 47.757812 53.628906 47.664062 53.546875 C 47.390625 53.820312 47.058594 53.941406 46.675781 53.910156 C 46.296875 53.871094 46.007812 53.691406 45.800781 53.367188 C 45.546875 53.714844 45.207031 53.90625 44.777344 53.933594 C 44.570312 53.949219 44.375 53.902344 44.191406 53.800781 C 44.011719 53.695312 43.871094 53.550781 43.777344 53.363281 C 43.648438 53.082031 43.683594 52.75 43.628906 52.445312 C 43.523438 51.820312 43.070312 51.324219 42.695312 50.816406 C 41.738281 49.5 41.324219 48.03125 41.453125 46.40625 C 41.523438 45.617188 41.746094 44.878906 42.125 44.183594 C 42.503906 43.492188 43.007812 42.90625 43.628906 42.425781 C 44.878906 41.503906 46.566406 41.191406 48.03125 41.6875 C 49.933594 42.332031 51.089844 43.601562 51.621094 45.09375 C 52.144531 46.589844 51.996094 48.34375 51.109375 49.652344 Z M 46.21875 47.023438 C 45.886719 46.554688 45.277344 46.394531 44.652344 46.601562 C 44.375 46.703125 44.15625 46.875 43.988281 47.121094 C 43.820312 47.363281 43.742188 47.632812 43.742188 47.929688 C 43.757812 48.222656 43.855469 48.488281 44.039062 48.722656 C 44.21875 48.957031 44.449219 49.117188 44.730469 49.203125 C 45.015625 49.277344 45.296875 49.265625 45.570312 49.164062 C 45.84375 49.0625 46.066406 48.890625 46.238281 48.648438 C 46.398438 48.402344 46.476562 48.128906 46.472656 47.832031 C 46.46875 47.535156 46.386719 47.265625 46.21875 47.023438 Z M 49.027344 46.03125 C 48.75 45.929688 48.46875 45.917969 48.183594 45.996094 C 47.894531 46.074219 47.660156 46.226562 47.46875 46.453125 C 47.277344 46.679688 47.167969 46.945312 47.140625 47.242188 C 47.113281 47.539062 47.171875 47.816406 47.320312 48.078125 C 47.464844 48.335938 47.671875 48.53125 47.9375 48.660156 C 48.207031 48.789062 48.484375 48.832031 48.777344 48.78125 C 49.070312 48.734375 49.320312 48.609375 49.535156 48.398438 C 49.746094 48.191406 49.882812 47.941406 49.941406 47.648438 C 49.976562 47.480469 49.984375 47.3125 49.957031 47.140625 C 49.929688 46.972656 49.875 46.8125 49.792969 46.664062 C 49.707031 46.515625 49.597656 46.386719 49.46875 46.277344 C 49.335938 46.167969 49.1875 46.085938 49.027344 46.03125 Z M 49.027344 46.03125 "/><path style=" stroke:none;fill-rule:nonzero;fill:#fccbb8;fill-opacity:1;" d="M 56.808594 31.003906 C 56.972656 31.171875 57.128906 31.347656 57.28125 31.519531 C 56.824219 32.402344 56.355469 33.269531 55.863281 34.132812 C 55.472656 33.710938 55.054688 33.320312 54.613281 32.953125 C 53.777344 32.261719 52.867188 31.691406 51.878906 31.25 C 52.394531 30.324219 52.890625 29.390625 53.367188 28.445312 C 54.652344 29.109375 55.800781 29.964844 56.808594 31.003906 Z M 58.734375 33.410156 L 57.417969 35.984375 C 58.082031 36.867188 58.699219 37.792969 59.3125 38.722656 L 60.550781 36.292969 C 59.960938 35.316406 59.375 34.339844 58.734375 33.410156 Z M 58.734375 33.410156 "/><g clip-rule="nonzero" clip-path="url(#4b7046b735)"><path style=" stroke:none;fill-rule:nonzero;fill:#000000;fill-opacity:1;" d="M 32.023438 54.253906 C 32.023438 54.75 31.925781 55.230469 31.738281 55.6875 C 31.546875 56.148438 31.277344 56.554688 30.925781 56.90625 C 30.574219 57.257812 30.167969 57.527344 29.707031 57.71875 C 29.25 57.90625 28.769531 58.003906 28.273438 58.003906 C 27.777344 58.003906 27.296875 57.90625 26.835938 57.71875 C 26.378906 57.527344 25.972656 57.257812 25.621094 56.90625 C 25.269531 56.554688 25 56.148438 24.808594 55.6875 C 24.617188 55.230469 24.523438 54.75 24.523438 54.253906 C 24.523438 53.753906 24.617188 53.277344 24.808594 52.816406 C 25 52.359375 25.269531 51.953125 25.621094 51.601562 C 25.972656 51.25 26.378906 50.980469 26.835938 50.789062 C 27.296875 50.597656 27.777344 50.503906 28.273438 50.503906 C 28.769531 50.503906 29.25 50.597656 29.707031 50.789062 C 30.167969 50.980469 30.574219 51.25 30.925781 51.601562 C 31.277344 51.953125 31.546875 52.359375 31.738281 52.816406 C 31.925781 53.277344 32.023438 53.753906 32.023438 54.253906 Z M 32.023438 54.253906 "/></g></g></svg>