<svg xmlns="http://www.w3.org/2000/svg" xmlns:xlink="http://www.w3.org/1999/xlink" width="128" zoomAndPan="magnify" viewBox="0 0 96 95.999999" height="128" preserveAspectRatio="xMidYMid meet" version="1.2"><defs><clipPath id="784db40491"><path d="M 46.226562 57.949219 L 49.976562 57.949219 L 49.976562 61.699219 L 46.226562 61.699219 Z M 46.226562 57.949219 "/></clipPath><clipPath id="b18f93cc84"><path d="M 14.660156 13 L 81 13 L 81 77 L 14.660156 77 Z M 14.660156 13 "/></clipPath><clipPath id="20249f6031"><path d="M 14.660156 13 L 81 13 L 81 77 L 14.660156 77 Z M 14.660156 13 "/></clipPath></defs><g id="1051d3b60b"><g clip-rule="nonzero" clip-path="url(#784db40491)"><path style=" stroke:none;fill-rule:nonzero;fill:#231815;fill-opacity:1;" d="M 49.765625 59.71875 C 49.765625 59.953125 49.71875 60.179688 49.628906 60.394531 C 49.539062 60.613281 49.414062 60.804688 49.246094 60.96875 C 49.082031 61.136719 48.890625 61.261719 48.671875 61.351562 C 48.457031 61.441406 48.230469 61.488281 47.996094 61.488281 C 47.761719 61.488281 47.535156 61.441406 47.316406 61.351562 C 47.101562 61.261719 46.910156 61.136719 46.742188 60.96875 C 46.578125 60.804688 46.449219 60.613281 46.359375 60.394531 C 46.269531 60.179688 46.226562 59.953125 46.226562 59.71875 C 46.226562 59.484375 46.269531 59.257812 46.359375 59.039062 C 46.449219 58.824219 46.578125 58.632812 46.742188 58.46875 C 46.910156 58.300781 47.101562 58.171875 47.316406 58.082031 C 47.535156 57.992188 47.761719 57.949219 47.996094 57.949219 C 48.230469 57.949219 48.457031 57.992188 48.671875 58.082031 C 48.890625 58.171875 49.082031 58.300781 49.246094 58.46875 C 49.414062 58.632812 49.539062 58.824219 49.628906 59.039062 C 49.71875 59.257812 49.765625 59.484375 49.765625 59.71875 Z M 49.765625 59.71875 "/></g><g clip-rule="nonzero" clip-path="url(#b18f93cc84)"><path style=" stroke:none;fill-rule:nonzero;fill:#000000;fill-opacity:1;" d="M 80.40625 38.417969 C 80.488281 33.921875 79.847656 29.871094 76.878906 26.308594 C 73.597656 22.382812 69.339844 19.792969 64.753906 17.664062 C 56.054688 13.625 45.726562 11.988281 36.453125 15.121094 C 32.136719 16.578125 28.191406 19.589844 25.125 22.894531 C 23.488281 24.65625 22.289062 26.730469 21.046875 28.773438 C 20.324219 29.949219 19.757812 31.140625 19.1875 32.394531 C 18.6875 33.5 17.816406 34.273438 17.515625 35.472656 C 17.503906 35.523438 17.492188 35.574219 17.492188 35.625 C 15.707031 42.496094 14.765625 49.546875 15.035156 56.65625 C 15.25 62.363281 16.085938 69.648438 19.46875 74.449219 C 22.496094 78.757812 29.390625 75.738281 33.105469 74.285156 C 35.738281 73.261719 38.28125 72.195312 41.003906 71.511719 C 47.003906 75.539062 54.8125 75.089844 61.023438 71.730469 C 65.210938 69.46875 69.558594 67.410156 73.613281 64.914062 C 76.316406 63.246094 78.402344 60.898438 78.410156 57.601562 C 78.410156 57.484375 78.386719 57.382812 78.34375 57.292969 C 81.292969 51.941406 80.296875 44.445312 80.40625 38.417969 "/></g><path style=" stroke:none;fill-rule:nonzero;fill:#ff970d;fill-opacity:1;" d="M 50.785156 15.773438 C 50.777344 15.578125 46.921875 15.632812 42.316406 16.792969 C 40.023438 17.386719 37.996094 18.1875 36.667969 19.042969 C 36.339844 19.25 36.042969 19.441406 35.800781 19.652344 C 35.550781 19.855469 35.335938 20.019531 35.199219 20.1875 C 34.910156 20.503906 34.765625 20.699219 34.796875 20.742188 C 34.882812 20.839844 35.609375 20.183594 36.945312 19.527344 C 38.28125 18.828125 40.261719 18.136719 42.511719 17.554688 C 47.003906 16.421875 50.785156 16.015625 50.785156 15.773438 Z M 58.042969 16.578125 C 55.25 16.722656 52.382812 17.347656 49.910156 17.765625 C 44.75 18.625 39.734375 20.148438 35.007812 22.394531 C 33.070312 21.847656 31.148438 21.289062 29.164062 20.964844 C 31.164062 19.351562 33.386719 18.007812 35.691406 16.921875 C 39.574219 15.09375 44.199219 14.90625 48.417969 14.980469 C 51.738281 15.042969 54.929688 15.628906 58.042969 16.578125 "/><path style=" stroke:none;fill-rule:nonzero;fill:#4d4d4d;fill-opacity:1;" d="M 62.910156 44.132812 C 65.773438 42.730469 64.394531 37.507812 61.21875 37.695312 C 61.167969 37.695312 61.121094 37.707031 61.082031 37.71875 C 61.066406 37.71875 61.050781 37.71875 61.035156 37.71875 C 59.007812 38.023438 57.917969 39.816406 58.242188 41.769531 C 58.589844 43.917969 61.019531 45.050781 62.910156 44.132812 Z M 62.550781 36.601562 C 65.929688 36.308594 66.476562 39.390625 65.898438 41.914062 C 65.410156 44.03125 64.371094 46.113281 63.089844 48.027344 C 60.222656 48.285156 57.359375 46.5 55.820312 44.132812 C 54.6875 42.390625 55.003906 40.042969 55.265625 38.058594 C 55.429688 38.042969 55.585938 38.027344 55.75 38.007812 C 58.0625 37.738281 60.226562 36.808594 62.550781 36.601562 "/><path style=" stroke:none;fill-rule:nonzero;fill:#e6e6e6;fill-opacity:1;" d="M 61.269531 39.09375 C 62.957031 39.042969 63.546875 41.425781 62.597656 42.605469 C 61.667969 43.757812 60.042969 42.761719 59.644531 41.644531 C 59.203125 40.378906 60.09375 39.335938 61.269531 39.09375 "/><path style=" stroke:none;fill-rule:nonzero;fill:#e6e6e6;fill-opacity:1;" d="M 34.105469 72.339844 C 33.125 72.753906 32.148438 73.171875 31.171875 73.542969 C 28.726562 74.46875 26.097656 75.304688 23.453125 75.195312 C 20.953125 75.089844 19.921875 72.722656 19.15625 70.710938 C 15.386719 60.871094 15.78125 49.789062 17.992188 39.550781 C 18.128906 39.84375 18.304688 40.128906 18.554688 40.402344 C 18.757812 40.625 19.144531 40.671875 19.402344 40.507812 C 19.984375 40.136719 20.601562 39.863281 21.242188 39.648438 C 21.269531 39.675781 21.296875 39.707031 21.332031 39.734375 C 22.921875 40.925781 24.789062 41.65625 26.308594 42.945312 C 28.425781 44.722656 26.722656 48.214844 26.261719 50.46875 C 25.742188 52.953125 25.4375 55.476562 24.914062 57.964844 C 24.46875 60.085938 24.050781 62.125 24.289062 64.304688 C 24.820312 69.15625 29.421875 71.890625 34.105469 72.339844 "/><path style=" stroke:none;fill-rule:nonzero;fill:#ff970d;fill-opacity:1;" d="M 62.070312 49.449219 C 61.328125 50.425781 60.53125 51.347656 59.738281 52.191406 C 56.355469 55.785156 52.042969 58.277344 48.40625 61.574219 C 47.304688 62.574219 46 64.222656 45.652344 65.839844 C 45.058594 63.527344 47.019531 60.042969 47.777344 58.269531 C 49.011719 55.40625 50.460938 52.632812 51.777344 49.800781 C 53.117188 46.910156 54.304688 41.804688 50.105469 40.808594 C 47.308594 40.144531 44.242188 40.058594 41.394531 39.597656 C 38.429688 39.117188 35.464844 38.675781 32.472656 38.433594 C 28.160156 38.082031 23.269531 36.816406 19.269531 38.976562 C 18.898438 38.171875 19.09375 37.089844 19.121094 36.273438 C 30.761719 35.382812 42.230469 39.039062 53.855469 38.183594 C 53.554688 40.671875 53.398438 43.390625 55.042969 45.46875 C 56.730469 47.605469 59.316406 49.308594 62.070312 49.449219 "/><path style=" stroke:none;fill-rule:nonzero;fill:#ff970d;fill-opacity:1;" d="M 37.902344 34.007812 C 37.902344 33.902344 36.613281 33.765625 34.527344 33.636719 C 32.441406 33.527344 29.5625 33.382812 26.378906 33.214844 C 25.042969 33.148438 23.765625 33.089844 22.574219 33.042969 C 23.398438 31.433594 24.367188 30.148438 24.925781 29.128906 C 25.566406 28.003906 25.78125 27.289062 25.71875 27.257812 C 25.640625 27.210938 25.273438 27.878906 24.550781 28.890625 C 24.175781 29.40625 23.726562 30.019531 23.214844 30.722656 C 22.714844 31.4375 22.148438 32.257812 21.664062 33.238281 L 21.433594 33.714844 L 21.980469 33.753906 C 23.328125 33.835938 24.796875 33.921875 26.34375 34 C 27.9375 34.070312 29.449219 34.164062 30.835938 34.171875 C 32.222656 34.191406 33.472656 34.199219 34.511719 34.191406 C 36.609375 34.179688 37.902344 34.117188 37.902344 34.007812 Z M 59.5 65.949219 C 59.945312 65.753906 60.183594 65.644531 60.171875 65.589844 C 60.164062 65.539062 59.882812 65.550781 59.410156 65.65625 C 58.929688 65.761719 58.253906 65.953125 57.429688 66.195312 C 56.601562 66.425781 55.625 66.714844 54.523438 66.917969 C 53.980469 67.023438 53.398438 67.109375 52.808594 67.117188 C 52.222656 67.132812 51.613281 67.074219 51.082031 66.855469 C 50.949219 66.804688 50.824219 66.734375 50.710938 66.664062 L 50.550781 66.5625 L 50.367188 66.402344 C 50.1875 66.234375 50.023438 66.023438 49.953125 65.808594 C 49.796875 65.375 49.964844 64.863281 50.226562 64.417969 C 50.777344 63.511719 51.550781 62.820312 52.167969 62.246094 C 52.804688 61.671875 53.34375 61.226562 53.699219 60.898438 C 54.058594 60.570312 54.238281 60.355469 54.199219 60.316406 C 54.160156 60.273438 53.925781 60.402344 53.515625 60.652344 C 53.105469 60.910156 52.515625 61.289062 51.816406 61.816406 C 51.128906 62.355469 50.292969 63.003906 49.609375 64.039062 C 49.445312 64.304688 49.296875 64.597656 49.203125 64.9375 C 49.117188 65.273438 49.097656 65.671875 49.222656 66.046875 C 49.34375 66.425781 49.574219 66.734375 49.859375 67 L 50.039062 67.15625 C 50.117188 67.214844 50.203125 67.269531 50.285156 67.324219 C 50.449219 67.429688 50.609375 67.515625 50.785156 67.582031 C 51.476562 67.867188 52.183594 67.910156 52.835938 67.886719 C 53.484375 67.863281 54.101562 67.761719 54.667969 67.632812 C 55.808594 67.371094 56.792969 67.027344 57.601562 66.71875 C 58.417969 66.414062 59.058594 66.140625 59.5 65.949219 Z M 69.175781 42.457031 C 69.4375 41.378906 69.601562 40.214844 69.535156 38.988281 C 69.464844 37.78125 69.144531 36.472656 68.460938 35.355469 C 68.144531 34.773438 67.695312 34.285156 67.234375 33.828125 C 66.742188 33.414062 66.21875 33.019531 65.632812 32.789062 C 65.347656 32.644531 65.042969 32.574219 64.75 32.480469 C 64.449219 32.402344 64.144531 32.371094 63.84375 32.324219 C 63.546875 32.320312 63.246094 32.292969 62.957031 32.316406 C 62.664062 32.351562 62.371094 32.351562 62.09375 32.421875 C 61.953125 32.453125 61.820312 32.480469 61.679688 32.515625 L 61.476562 32.5625 L 61.429688 32.574219 L 61.398438 32.578125 L 61.355469 32.59375 L 61.34375 32.597656 L 61.253906 32.636719 C 61.011719 32.738281 60.769531 32.835938 60.53125 32.933594 C 60.0625 33.132812 59.597656 33.390625 59.164062 33.59375 C 58.742188 33.804688 58.332031 34.019531 57.933594 34.15625 C 57.542969 34.324219 57.132812 34.453125 56.738281 34.570312 C 55.207031 34.953125 53.867188 35.046875 52.96875 35.160156 C 52.0625 35.261719 51.558594 35.355469 51.558594 35.40625 C 51.5625 35.460938 52.070312 35.472656 52.988281 35.460938 C 53.90625 35.441406 55.226562 35.449219 56.894531 35.105469 C 57.285156 35 57.699219 34.894531 58.140625 34.726562 C 58.589844 34.585938 59.007812 34.382812 59.453125 34.179688 C 59.898438 33.988281 60.3125 33.765625 60.785156 33.574219 C 61.023438 33.484375 61.265625 33.390625 61.511719 33.296875 L 61.597656 33.265625 L 61.617188 33.261719 L 61.664062 33.25 L 61.847656 33.214844 C 61.972656 33.183594 62.09375 33.160156 62.222656 33.132812 C 63.226562 32.957031 64.328125 33.027344 65.320312 33.492188 C 65.828125 33.695312 66.277344 34.042969 66.707031 34.40625 C 67.105469 34.804688 67.5 35.234375 67.785156 35.753906 C 67.953125 35.996094 68.050781 36.277344 68.183594 36.53125 C 68.285156 36.808594 68.398438 37.078125 68.476562 37.351562 C 68.546875 37.628906 68.636719 37.910156 68.671875 38.183594 L 68.734375 38.597656 L 68.765625 39.035156 C 68.835938 40.15625 68.703125 41.261719 68.472656 42.285156 C 68.003906 44.351562 67.15625 46.101562 66.398438 47.523438 C 65.625 48.949219 64.910156 50.0625 64.4375 50.839844 C 63.957031 51.617188 63.695312 52.054688 63.742188 52.085938 C 63.785156 52.121094 64.125 51.742188 64.6875 51.015625 C 65.246094 50.285156 66.035156 49.214844 66.882812 47.800781 C 67.714844 46.378906 68.648438 44.613281 69.175781 42.457031 Z M 76.234375 31.835938 C 76.285156 31.8125 76.113281 31.328125 75.753906 30.476562 C 75.382812 29.632812 74.84375 28.390625 73.898438 27 C 73.4375 26.289062 72.820312 25.59375 72.082031 24.902344 C 71.898438 24.722656 71.699219 24.585938 71.503906 24.425781 C 71.300781 24.269531 71.128906 24.117188 70.886719 23.949219 C 70.445312 23.664062 70.007812 23.335938 69.535156 23.0625 C 67.660156 21.910156 65.492188 20.796875 63.082031 19.9375 C 62.78125 19.832031 62.464844 19.75 62.160156 19.65625 C 61.851562 19.5625 61.546875 19.460938 61.25 19.410156 C 60.945312 19.34375 60.652344 19.277344 60.351562 19.21875 C 60.023438 19.15625 59.730469 19.132812 59.421875 19.09375 C 58.203125 18.980469 57.035156 19.03125 55.929688 19.148438 C 53.730469 19.390625 51.800781 19.875 50.203125 20.3125 C 48.613281 20.753906 47.335938 21.164062 46.460938 21.453125 C 45.585938 21.746094 45.105469 21.929688 45.121094 21.984375 C 45.132812 22.035156 45.640625 21.953125 46.542969 21.75 C 47.441406 21.535156 48.738281 21.230469 50.34375 20.847656 C 51.945312 20.484375 53.859375 20.066406 56 19.867188 C 57.070312 19.777344 58.199219 19.738281 59.347656 19.859375 C 59.621094 19.898438 59.933594 19.929688 60.195312 19.976562 C 60.488281 20.042969 60.785156 20.109375 61.085938 20.171875 C 61.390625 20.226562 61.671875 20.324219 61.957031 20.414062 C 62.246094 20.503906 62.535156 20.582031 62.828125 20.683594 C 65.164062 21.511719 67.300781 22.585938 69.160156 23.683594 C 69.632812 23.941406 70.054688 24.25 70.492188 24.515625 C 70.882812 24.792969 71.3125 25.113281 71.671875 25.410156 C 72.355469 26.023438 72.976562 26.664062 73.445312 27.324219 C 74.414062 28.621094 75.023438 29.808594 75.480469 30.609375 C 75.921875 31.421875 76.1875 31.859375 76.234375 31.835938 Z M 77.683594 51.078125 C 78.132812 49.472656 78.171875 47.949219 78.058594 46.710938 C 77.945312 45.460938 77.667969 44.492188 77.457031 43.832031 C 77.226562 43.1875 77.0625 42.839844 77.011719 42.855469 C 76.871094 42.890625 77.394531 44.351562 77.503906 46.742188 C 77.542969 47.9375 77.449219 49.375 76.984375 50.875 C 76.546875 52.386719 75.71875 53.933594 74.609375 55.375 C 73.488281 56.8125 72.210938 58.027344 70.980469 59.039062 C 69.746094 60.058594 68.558594 60.886719 67.550781 61.566406 C 65.53125 62.921875 64.226562 63.703125 64.289062 63.808594 C 64.332031 63.890625 65.726562 63.285156 67.847656 62.039062 C 68.90625 61.410156 70.144531 60.617188 71.429688 59.601562 C 72.71875 58.597656 74.054688 57.363281 75.226562 55.855469 C 76.390625 54.339844 77.253906 52.6875 77.683594 51.078125 Z M 79.027344 37.515625 C 78.992188 41.878906 79.308594 46.355469 78.933594 50.699219 C 78.570312 55.019531 76.515625 58.941406 72.566406 60.933594 C 70.265625 62.070312 68.179688 63.550781 65.988281 64.867188 C 63.523438 66.351562 60.75 67.445312 58.035156 68.378906 C 55.515625 69.238281 52.984375 69.652344 50.363281 69.09375 C 49.21875 68.855469 47.941406 68.40625 47.210938 67.429688 C 46.253906 66.144531 47.777344 64.285156 48.566406 63.394531 C 51.457031 60.105469 55.679688 57.761719 58.960938 54.867188 C 61.921875 52.261719 64.289062 49.042969 66.027344 45.507812 C 67.300781 42.933594 68.390625 39.539062 66.648438 36.9375 C 64.386719 33.5625 59.421875 35.964844 56.417969 36.519531 C 50.070312 37.6875 43.308594 36.671875 36.976562 35.875 C 31.089844 35.136719 25.207031 34.429688 19.28125 34.867188 C 19.625 34.261719 20.078125 33.703125 20.394531 33.097656 C 20.90625 32.128906 21.273438 31.109375 21.828125 30.148438 C 22.957031 28.179688 24.171875 26.199219 25.621094 24.445312 C 26.300781 23.617188 27.039062 22.84375 27.828125 22.113281 C 27.914062 22.164062 28.015625 22.203125 28.125 22.214844 C 30.449219 22.480469 32.679688 23.195312 34.925781 23.816406 C 35.195312 23.898438 35.417969 23.816406 35.566406 23.664062 C 39.996094 21.550781 44.648438 20.179688 49.464844 19.253906 C 53.65625 18.453125 59.507812 17.046875 63.636719 18.695312 C 63.691406 18.71875 63.746094 18.734375 63.804688 18.742188 C 67.421875 20.355469 70.851562 22.355469 73.789062 25.035156 C 77.523438 28.449219 79.074219 32.53125 79.027344 37.515625 "/><path style=" stroke:none;fill-rule:nonzero;fill:#4d4d4d;fill-opacity:1;" d="M 76.636719 59.660156 C 75.769531 61.949219 73.527344 63.402344 71.332031 64.628906 C 67.699219 66.664062 63.980469 68.550781 60.316406 70.523438 C 54.925781 73.433594 48.351562 73.972656 42.949219 71.039062 C 43.609375 70.839844 44.203125 70.585938 44.722656 70.230469 C 45.230469 70.496094 45.714844 70.691406 46.160156 70.851562 C 47.6875 71.371094 48.652344 71.582031 48.691406 71.488281 C 48.734375 71.378906 47.8125 70.96875 46.367188 70.332031 C 46.027344 70.183594 45.660156 70.003906 45.28125 69.789062 C 45.632812 69.46875 45.929688 69.085938 46.171875 68.632812 C 46.242188 68.652344 46.308594 68.652344 46.371094 68.640625 C 46.515625 68.796875 46.679688 68.941406 46.871094 69.078125 C 50.246094 71.527344 54.703125 70.894531 58.40625 69.722656 C 60.789062 68.96875 63.109375 67.910156 65.355469 66.8125 C 68.109375 65.46875 70.511719 63.496094 73.269531 62.140625 C 74.628906 61.457031 75.730469 60.617188 76.636719 59.660156 "/><path style=" stroke:none;fill-rule:nonzero;fill:#4d4d4d;fill-opacity:1;" d="M 50.0625 46.726562 C 50.367188 47.128906 50.699219 47.394531 51.125 47.539062 C 49.84375 51.777344 46.710938 57.203125 46.167969 58.519531 C 45 61.328125 42.949219 65.15625 45.074219 67.722656 C 44.832031 68.261719 44.484375 68.664062 44.070312 68.980469 C 44.0625 68.972656 44.054688 68.96875 44.050781 68.964844 C 43.855469 68.835938 43.660156 68.613281 43.457031 68.433594 L 43.308594 68.289062 C 43.285156 68.265625 43.234375 68.195312 43.195312 68.148438 C 43.113281 68.050781 43.03125 67.949219 42.945312 67.847656 C 42.644531 67.414062 42.367188 66.929688 42.207031 66.378906 C 41.835938 65.296875 41.804688 64.15625 41.878906 63.140625 C 41.957031 62.121094 42.15625 61.203125 42.355469 60.449219 C 42.769531 58.933594 43.210938 58.046875 43.101562 57.988281 C 43.050781 57.964844 42.894531 58.152344 42.648438 58.535156 C 42.417969 58.925781 42.101562 59.507812 41.828125 60.277344 C 41.550781 61.046875 41.28125 61.988281 41.160156 63.070312 C 41.042969 64.148438 41.046875 65.390625 41.457031 66.628906 C 41.644531 67.246094 41.96875 67.816406 42.332031 68.3125 C 42.429688 68.429688 42.53125 68.546875 42.628906 68.660156 C 42.683594 68.722656 42.714844 68.769531 42.792969 68.839844 L 42.945312 68.980469 C 43.101562 69.117188 43.238281 69.253906 43.398438 69.382812 C 42.769531 69.691406 42.046875 69.871094 41.308594 70.027344 C 41.277344 70 41.242188 69.980469 41.203125 69.953125 C 41.121094 69.890625 41.039062 69.851562 40.953125 69.835938 C 37.597656 66.542969 39.804688 60.609375 41.625 57.035156 C 42.714844 54.898438 44.9375 53.683594 45.949219 51.5 C 46.875 49.496094 47.070312 46.539062 47.0625 44.28125 C 47.089844 44.289062 47.117188 44.300781 47.144531 44.308594 C 48.617188 44.75 49.203125 45.589844 50.0625 46.726562 "/><path style=" stroke:none;fill-rule:nonzero;fill:#4d4d4d;fill-opacity:1;" d="M 37.359375 69.160156 C 37.351562 69.09375 37 69.132812 36.390625 69.140625 C 35.789062 69.160156 34.898438 69.128906 33.851562 68.886719 C 33.335938 68.746094 32.769531 68.585938 32.199219 68.324219 C 31.621094 68.070312 31.039062 67.738281 30.492188 67.300781 C 29.9375 66.875 29.40625 66.359375 28.980469 65.738281 C 28.859375 65.59375 28.777344 65.421875 28.675781 65.257812 C 28.570312 65.101562 28.484375 64.929688 28.40625 64.746094 L 28.28125 64.484375 C 28.246094 64.421875 28.210938 64.300781 28.171875 64.210938 C 28.097656 64.015625 28.023438 63.816406 27.949219 63.621094 C 27.707031 62.859375 27.53125 62.074219 27.4375 61.316406 C 27.363281 60.546875 27.351562 59.796875 27.390625 59.085938 C 27.488281 57.660156 27.753906 56.378906 27.988281 55.304688 C 28.480469 53.152344 28.78125 51.808594 28.671875 51.78125 C 28.574219 51.753906 28.082031 53.03125 27.445312 55.164062 C 27.144531 56.238281 26.8125 57.535156 26.671875 59.035156 C 26.605469 59.78125 26.601562 60.574219 26.675781 61.394531 C 26.761719 62.214844 26.9375 63.046875 27.214844 63.898438 C 27.289062 64.09375 27.363281 64.292969 27.4375 64.484375 C 27.480469 64.585938 27.5 64.667969 27.558594 64.789062 L 27.703125 65.085938 C 27.792969 65.28125 27.890625 65.480469 28.003906 65.65625 C 28.121094 65.835938 28.21875 66.027344 28.355469 66.183594 C 28.839844 66.875 29.441406 67.433594 30.054688 67.878906 C 30.667969 68.335938 31.316406 68.675781 31.945312 68.925781 C 32.570312 69.183594 33.1875 69.316406 33.746094 69.429688 C 34.871094 69.617188 35.800781 69.566406 36.429688 69.449219 C 37.042969 69.339844 37.359375 69.207031 37.359375 69.160156 Z M 39.492188 70.308594 C 39.152344 70.453125 38.804688 70.589844 38.453125 70.691406 C 38.429688 70.699219 38.40625 70.703125 38.382812 70.710938 C 34.742188 71.75 30.640625 70.640625 27.804688 68.160156 C 23.84375 64.683594 26.273438 58.640625 26.972656 54.269531 C 27.296875 52.257812 27.710938 50.253906 28.160156 48.261719 C 28.394531 47.214844 29.078125 45.574219 28.84375 44.382812 C 29.839844 43.804688 29.957031 42.535156 31.539062 42.542969 C 31.734375 42.550781 31.925781 42.542969 32.121094 42.542969 C 32.128906 42.582031 32.144531 42.617188 32.152344 42.65625 C 31.683594 45.855469 31.082031 48.863281 30.152344 51.964844 C 29.363281 54.589844 28.433594 57.464844 28.820312 60.234375 C 29.140625 62.523438 29.925781 64.804688 31.746094 66.316406 C 33.460938 67.75 35.945312 67.359375 38.042969 67.1875 C 38.269531 68.324219 38.722656 69.394531 39.492188 70.308594 "/><path style=" stroke:none;fill-rule:nonzero;fill:#4d4d4d;fill-opacity:1;" d="M 50.25 42.277344 C 51.679688 42.617188 51.894531 44.136719 51.488281 46.128906 C 50.847656 45.722656 50.339844 44.707031 49.914062 44.191406 C 49.335938 43.484375 48.332031 43.238281 47.511719 42.957031 C 44.753906 42.023438 41.800781 41.699219 38.941406 41.1875 C 36.292969 40.714844 33.566406 41.160156 30.898438 41.144531 C 30.1875 41.140625 29.324219 41.292969 28.796875 41.816406 C 28.476562 42.136719 28.5 42.710938 28.242188 43.039062 C 27.09375 41.273438 24.910156 40.332031 23.078125 39.222656 C 26.425781 38.753906 30.167969 39.644531 33.347656 39.898438 C 36.507812 40.160156 39.632812 40.71875 42.761719 41.226562 C 45.214844 41.621094 47.839844 41.703125 50.25 42.277344 "/><path style=" stroke:none;fill-rule:nonzero;fill:#333333;fill-opacity:1;" d="M 45.667969 43.9375 C 45.683594 45.285156 45.625 46.683594 45.378906 48.027344 C 40.933594 48.75 35.007812 47.25 33.566406 42.527344 C 35.714844 42.484375 37.804688 42.417969 40.007812 42.785156 C 41.90625 43.097656 43.800781 43.425781 45.667969 43.898438 C 45.667969 43.910156 45.667969 43.925781 45.667969 43.9375 "/><path style=" stroke:none;fill-rule:nonzero;fill:#333333;fill-opacity:1;" d="M 33.199219 45.027344 C 35.59375 48.675781 40.734375 49.96875 45.046875 49.476562 C 44.628906 50.875 43.960938 52.171875 42.898438 53.222656 C 41.207031 54.914062 40.160156 56.671875 39.265625 58.878906 C 38.429688 60.945312 37.761719 63.445312 37.875 65.796875 C 35.613281 65.996094 33.28125 66.324219 31.691406 64.269531 C 30.457031 62.660156 30.082031 60.34375 30.144531 58.371094 C 30.226562 55.8125 31.242188 53.191406 31.972656 50.761719 C 32.542969 48.835938 32.898438 46.957031 33.199219 45.027344 "/><g clip-rule="nonzero" clip-path="url(#20249f6031)"><path style=" stroke:none;fill-rule:nonzero;fill:#000000;fill-opacity:1;" d="M 31.171875 73.542969 C 32.148438 73.171875 33.125 72.753906 34.105469 72.339844 C 29.421875 71.890625 24.820312 69.15625 24.289062 64.304688 C 24.050781 62.125 24.46875 60.085938 24.914062 57.964844 C 25.4375 55.476562 25.742188 52.953125 26.261719 50.46875 C 26.722656 48.214844 28.425781 44.722656 26.308594 42.945312 C 24.789062 41.65625 22.921875 40.925781 21.332031 39.734375 C 21.296875 39.707031 21.269531 39.675781 21.242188 39.648438 C 20.601562 39.863281 19.984375 40.136719 19.402344 40.507812 C 19.144531 40.671875 18.757812 40.625 18.554688 40.402344 C 18.304688 40.128906 18.128906 39.84375 17.992188 39.550781 C 15.78125 49.789062 15.386719 60.871094 19.15625 70.710938 C 19.921875 72.722656 20.953125 75.089844 23.453125 75.195312 C 26.097656 75.304688 28.726562 74.46875 31.171875 73.542969 Z M 38.453125 70.691406 C 38.804688 70.589844 39.152344 70.453125 39.492188 70.308594 C 38.722656 69.394531 38.269531 68.324219 38.042969 67.1875 C 35.945312 67.359375 33.460938 67.75 31.746094 66.316406 C 29.925781 64.804688 29.140625 62.523438 28.820312 60.234375 C 28.433594 57.464844 29.363281 54.589844 30.152344 51.964844 C 31.082031 48.863281 31.683594 45.855469 32.152344 42.65625 C 32.144531 42.617188 32.128906 42.582031 32.121094 42.542969 C 31.925781 42.542969 31.734375 42.550781 31.539062 42.542969 C 29.957031 42.535156 29.839844 43.804688 28.84375 44.382812 C 29.078125 45.574219 28.394531 47.214844 28.160156 48.261719 C 27.710938 50.253906 27.296875 52.257812 26.972656 54.269531 C 26.273438 58.640625 23.84375 64.683594 27.804688 68.160156 C 30.640625 70.640625 34.742188 71.75 38.382812 70.710938 C 38.40625 70.703125 38.429688 70.699219 38.453125 70.691406 Z M 45.046875 49.476562 C 40.734375 49.96875 35.59375 48.675781 33.199219 45.027344 C 32.898438 46.957031 32.542969 48.835938 31.972656 50.761719 C 31.242188 53.191406 30.226562 55.8125 30.144531 58.371094 C 30.082031 60.34375 30.457031 62.660156 31.691406 64.269531 C 33.28125 66.324219 35.613281 65.996094 37.875 65.796875 C 37.761719 63.445312 38.429688 60.945312 39.265625 58.878906 C 40.160156 56.671875 41.207031 54.914062 42.898438 53.222656 C 43.960938 52.171875 44.628906 50.875 45.046875 49.476562 Z M 45.378906 48.027344 C 45.625 46.683594 45.683594 45.285156 45.667969 43.9375 C 45.667969 43.925781 45.667969 43.910156 45.667969 43.898438 C 43.800781 43.425781 41.90625 43.097656 40.007812 42.785156 C 37.804688 42.417969 35.714844 42.484375 33.566406 42.527344 C 35.007812 47.25 40.933594 48.75 45.378906 48.027344 Z M 51.125 47.539062 C 50.699219 47.394531 50.367188 47.128906 50.0625 46.726562 C 49.203125 45.589844 48.617188 44.75 47.144531 44.308594 C 47.117188 44.300781 47.089844 44.289062 47.0625 44.28125 C 47.070312 46.539062 46.875 49.496094 45.949219 51.5 C 44.9375 53.683594 42.714844 54.898438 41.625 57.035156 C 39.804688 60.609375 37.597656 66.542969 40.953125 69.835938 C 41.039062 69.851562 41.121094 69.890625 41.203125 69.953125 C 41.242188 69.980469 41.277344 70 41.308594 70.027344 C 42.046875 69.871094 42.769531 69.691406 43.398438 69.382812 C 43.238281 69.253906 43.101562 69.117188 42.945312 68.980469 L 42.792969 68.839844 C 42.714844 68.769531 42.683594 68.722656 42.628906 68.660156 C 42.53125 68.546875 42.429688 68.429688 42.332031 68.3125 C 41.96875 67.816406 41.644531 67.246094 41.457031 66.628906 C 41.046875 65.390625 41.042969 64.148438 41.160156 63.070312 C 41.28125 61.988281 41.550781 61.046875 41.828125 60.277344 C 42.101562 59.507812 42.417969 58.925781 42.648438 58.535156 C 42.894531 58.152344 43.050781 57.964844 43.101562 57.988281 C 43.210938 58.046875 42.769531 58.933594 42.355469 60.449219 C 42.15625 61.203125 41.957031 62.121094 41.878906 63.140625 C 41.804688 64.15625 41.835938 65.296875 42.207031 66.378906 C 42.367188 66.929688 42.644531 67.414062 42.945312 67.847656 C 43.03125 67.949219 43.113281 68.050781 43.195312 68.148438 C 43.234375 68.195312 43.285156 68.265625 43.308594 68.289062 L 43.457031 68.433594 C 43.660156 68.613281 43.855469 68.835938 44.050781 68.964844 C 44.054688 68.96875 44.0625 68.972656 44.070312 68.980469 C 44.484375 68.664062 44.832031 68.261719 45.074219 67.722656 C 42.949219 65.15625 45 61.328125 46.167969 58.519531 C 46.710938 57.203125 49.84375 51.777344 51.125 47.539062 Z M 51.488281 46.128906 C 51.894531 44.136719 51.679688 42.617188 50.25 42.277344 C 47.839844 41.703125 45.214844 41.621094 42.761719 41.226562 C 39.632812 40.71875 36.507812 40.160156 33.347656 39.898438 C 30.167969 39.644531 26.425781 38.753906 23.078125 39.222656 C 24.910156 40.332031 27.09375 41.273438 28.242188 43.039062 C 28.5 42.710938 28.476562 42.136719 28.796875 41.816406 C 29.324219 41.292969 30.1875 41.140625 30.898438 41.144531 C 33.566406 41.160156 36.292969 40.714844 38.941406 41.1875 C 41.800781 41.699219 44.753906 42.023438 47.511719 42.957031 C 48.332031 43.238281 49.335938 43.484375 49.914062 44.191406 C 50.339844 44.707031 50.847656 45.722656 51.488281 46.128906 Z M 49.910156 17.765625 C 52.382812 17.347656 55.25 16.722656 58.042969 16.578125 C 54.929688 15.628906 51.738281 15.042969 48.417969 14.980469 C 44.199219 14.90625 39.574219 15.09375 35.691406 16.921875 C 33.386719 18.007812 31.164062 19.351562 29.164062 20.964844 C 31.148438 21.289062 33.070312 21.847656 35.007812 22.394531 C 39.734375 20.148438 44.75 18.625 49.910156 17.765625 Z M 59.738281 52.191406 C 60.53125 51.347656 61.328125 50.425781 62.070312 49.449219 C 59.316406 49.308594 56.730469 47.605469 55.042969 45.46875 C 53.398438 43.390625 53.554688 40.671875 53.855469 38.183594 C 42.230469 39.039062 30.761719 35.382812 19.121094 36.273438 C 19.09375 37.089844 18.898438 38.171875 19.269531 38.976562 C 23.269531 36.816406 28.160156 38.082031 32.472656 38.433594 C 35.464844 38.675781 38.429688 39.117188 41.394531 39.597656 C 44.242188 40.058594 47.308594 40.144531 50.105469 40.808594 C 54.304688 41.804688 53.117188 46.910156 51.777344 49.800781 C 50.460938 52.632812 49.011719 55.40625 47.777344 58.269531 C 47.019531 60.042969 45.058594 63.527344 45.652344 65.839844 C 46 64.222656 47.304688 62.574219 48.40625 61.574219 C 52.042969 58.277344 56.355469 55.785156 59.738281 52.191406 Z M 65.898438 41.914062 C 66.476562 39.390625 65.929688 36.308594 62.550781 36.601562 C 60.226562 36.808594 58.0625 37.738281 55.75 38.007812 C 55.585938 38.027344 55.429688 38.042969 55.265625 38.058594 C 55.003906 40.042969 54.6875 42.390625 55.820312 44.132812 C 57.359375 46.5 60.222656 48.285156 63.089844 48.027344 C 64.371094 46.113281 65.410156 44.03125 65.898438 41.914062 Z M 71.332031 64.628906 C 73.527344 63.402344 75.769531 61.949219 76.636719 59.660156 C 75.730469 60.617188 74.628906 61.457031 73.269531 62.140625 C 70.511719 63.496094 68.109375 65.46875 65.355469 66.8125 C 63.109375 67.910156 60.789062 68.96875 58.40625 69.722656 C 54.703125 70.894531 50.246094 71.527344 46.871094 69.078125 C 46.679688 68.941406 46.515625 68.796875 46.371094 68.640625 C 46.308594 68.652344 46.242188 68.652344 46.171875 68.632812 C 45.929688 69.085938 45.632812 69.46875 45.28125 69.789062 C 45.660156 70.003906 46.027344 70.183594 46.367188 70.332031 C 47.8125 70.96875 48.734375 71.378906 48.691406 71.488281 C 48.652344 71.582031 47.6875 71.371094 46.160156 70.851562 C 45.714844 70.691406 45.230469 70.496094 44.722656 70.230469 C 44.203125 70.585938 43.609375 70.839844 42.949219 71.039062 C 48.351562 73.972656 54.925781 73.433594 60.316406 70.523438 C 63.980469 68.550781 67.699219 66.664062 71.332031 64.628906 Z M 78.933594 50.699219 C 79.308594 46.355469 78.992188 41.878906 79.027344 37.515625 C 79.074219 32.53125 77.523438 28.449219 73.789062 25.035156 C 70.851562 22.355469 67.421875 20.355469 63.804688 18.742188 C 63.746094 18.734375 63.691406 18.71875 63.636719 18.695312 C 59.507812 17.046875 53.65625 18.453125 49.464844 19.253906 C 44.648438 20.179688 39.996094 21.550781 35.566406 23.664062 C 35.417969 23.816406 35.195312 23.898438 34.925781 23.816406 C 32.679688 23.195312 30.449219 22.480469 28.125 22.214844 C 28.015625 22.203125 27.914062 22.164062 27.828125 22.113281 C 27.039062 22.84375 26.300781 23.617188 25.621094 24.445312 C 24.171875 26.199219 22.957031 28.179688 21.828125 30.148438 C 21.273438 31.109375 20.90625 32.128906 20.394531 33.097656 C 20.078125 33.703125 19.625 34.261719 19.28125 34.867188 C 25.207031 34.429688 31.089844 35.136719 36.976562 35.875 C 43.308594 36.671875 50.070312 37.6875 56.417969 36.519531 C 59.421875 35.964844 64.386719 33.5625 66.648438 36.9375 C 68.390625 39.539062 67.300781 42.933594 66.027344 45.507812 C 64.289062 49.042969 61.921875 52.261719 58.960938 54.867188 C 55.679688 57.761719 51.457031 60.105469 48.566406 63.394531 C 47.777344 64.285156 46.253906 66.144531 47.210938 67.429688 C 47.941406 68.40625 49.21875 68.855469 50.363281 69.09375 C 52.984375 69.652344 55.515625 69.238281 58.035156 68.378906 C 60.75 67.445312 63.523438 66.351562 65.988281 64.867188 C 68.179688 63.550781 70.265625 62.070312 72.566406 60.933594 C 76.515625 58.941406 78.570312 55.019531 78.933594 50.699219 Z M 76.875 26.308594 C 79.847656 29.871094 80.488281 33.921875 80.40625 38.417969 C 80.296875 44.445312 81.292969 51.941406 78.34375 57.292969 C 78.386719 57.382812 78.410156 57.484375 78.410156 57.601562 C 78.402344 60.898438 76.316406 63.246094 73.613281 64.914062 C 69.558594 67.410156 65.210938 69.46875 61.023438 71.730469 C 54.8125 75.089844 47.003906 75.539062 41.003906 71.511719 C 38.28125 72.195312 35.738281 73.261719 33.105469 74.285156 C 29.390625 75.738281 22.496094 78.757812 19.46875 74.449219 C 16.085938 69.648438 15.25 62.363281 15.035156 56.65625 C 14.765625 49.546875 15.707031 42.496094 17.492188 35.625 C 17.492188 35.574219 17.503906 35.523438 17.515625 35.472656 C 17.816406 34.273438 18.6875 33.5 19.1875 32.394531 C 19.757812 31.140625 20.324219 29.949219 21.046875 28.773438 C 22.289062 26.730469 23.488281 24.65625 25.125 22.894531 C 28.191406 19.589844 32.136719 16.578125 36.453125 15.121094 C 45.726562 11.988281 56.054688 13.625 64.753906 17.664062 C 69.339844 19.792969 73.597656 22.382812 76.875 26.308594 "/></g><path style=" stroke:none;fill-rule:nonzero;fill:#000000;fill-opacity:1;" d="M 78.058594 46.710938 C 78.171875 47.949219 78.132812 49.472656 77.683594 51.078125 C 77.253906 52.6875 76.390625 54.339844 75.226562 55.855469 C 74.054688 57.363281 72.71875 58.597656 71.429688 59.601562 C 70.144531 60.617188 68.90625 61.410156 67.847656 62.039062 C 65.726562 63.285156 64.332031 63.890625 64.289062 63.808594 C 64.226562 63.703125 65.53125 62.921875 67.550781 61.566406 C 68.558594 60.886719 69.746094 60.058594 70.980469 59.039062 C 72.210938 58.027344 73.488281 56.8125 74.609375 55.375 C 75.71875 53.933594 76.546875 52.386719 76.984375 50.875 C 77.449219 49.375 77.542969 47.9375 77.503906 46.742188 C 77.394531 44.351562 76.871094 42.890625 77.011719 42.855469 C 77.0625 42.839844 77.226562 43.1875 77.457031 43.832031 C 77.667969 44.492188 77.945312 45.460938 78.058594 46.710938 "/><path style=" stroke:none;fill-rule:nonzero;fill:#000000;fill-opacity:1;" d="M 75.753906 30.476562 C 76.113281 31.328125 76.285156 31.8125 76.234375 31.835938 C 76.1875 31.859375 75.921875 31.421875 75.480469 30.609375 C 75.023438 29.808594 74.414062 28.621094 73.445312 27.324219 C 72.976562 26.664062 72.355469 26.023438 71.671875 25.410156 C 71.3125 25.113281 70.882812 24.792969 70.492188 24.515625 C 70.054688 24.25 69.632812 23.941406 69.160156 23.683594 C 67.300781 22.585938 65.164062 21.511719 62.828125 20.683594 C 62.535156 20.582031 62.246094 20.503906 61.957031 20.414062 C 61.671875 20.324219 61.390625 20.226562 61.085938 20.171875 C 60.785156 20.109375 60.488281 20.042969 60.195312 19.976562 C 59.933594 19.929688 59.621094 19.898438 59.347656 19.859375 C 58.199219 19.738281 57.070312 19.777344 56 19.867188 C 53.859375 20.066406 51.945312 20.484375 50.34375 20.847656 C 48.738281 21.230469 47.441406 21.535156 46.542969 21.75 C 45.640625 21.953125 45.132812 22.035156 45.121094 21.984375 C 45.105469 21.929688 45.585938 21.746094 46.460938 21.453125 C 47.335938 21.164062 48.613281 20.753906 50.203125 20.3125 C 51.800781 19.875 53.730469 19.390625 55.929688 19.148438 C 57.035156 19.03125 58.203125 18.980469 59.421875 19.09375 C 59.730469 19.132812 60.023438 19.15625 60.351562 19.21875 C 60.652344 19.277344 60.945312 19.34375 61.25 19.410156 C 61.546875 19.460938 61.851562 19.5625 62.160156 19.65625 C 62.464844 19.75 62.78125 19.832031 63.082031 19.9375 C 65.492188 20.796875 67.660156 21.910156 69.535156 23.0625 C 70.007812 23.335938 70.445312 23.664062 70.886719 23.949219 C 71.128906 24.117188 71.300781 24.269531 71.503906 24.425781 C 71.699219 24.585938 71.898438 24.722656 72.082031 24.902344 C 72.820312 25.59375 73.4375 26.289062 73.898438 27 C 74.84375 28.390625 75.382812 29.632812 75.753906 30.476562 "/><path style=" stroke:none;fill-rule:nonzero;fill:#000000;fill-opacity:1;" d="M 69.535156 38.988281 C 69.601562 40.214844 69.4375 41.378906 69.175781 42.457031 C 68.648438 44.613281 67.714844 46.378906 66.882812 47.800781 C 66.035156 49.214844 65.246094 50.285156 64.6875 51.015625 C 64.125 51.742188 63.785156 52.121094 63.742188 52.085938 C 63.695312 52.054688 63.957031 51.617188 64.4375 50.839844 C 64.910156 50.0625 65.625 48.949219 66.398438 47.523438 C 67.15625 46.101562 68.003906 44.351562 68.472656 42.285156 C 68.703125 41.261719 68.835938 40.15625 68.765625 39.035156 L 68.734375 38.597656 L 68.671875 38.183594 C 68.636719 37.910156 68.546875 37.628906 68.476562 37.351562 C 68.398438 37.078125 68.285156 36.808594 68.183594 36.53125 C 68.050781 36.277344 67.953125 35.996094 67.785156 35.753906 C 67.5 35.234375 67.105469 34.804688 66.707031 34.40625 C 66.277344 34.042969 65.828125 33.695312 65.320312 33.492188 C 64.328125 33.027344 63.226562 32.957031 62.222656 33.132812 C 62.09375 33.160156 61.972656 33.183594 61.847656 33.214844 L 61.664062 33.25 L 61.617188 33.261719 L 61.597656 33.265625 L 61.511719 33.296875 C 61.265625 33.390625 61.023438 33.484375 60.785156 33.574219 C 60.3125 33.765625 59.898438 33.988281 59.453125 34.179688 C 59.007812 34.382812 58.589844 34.585938 58.140625 34.726562 C 57.699219 34.894531 57.285156 35 56.894531 35.105469 C 55.226562 35.449219 53.90625 35.441406 52.988281 35.460938 C 52.070312 35.472656 51.5625 35.460938 51.558594 35.40625 C 51.558594 35.355469 52.0625 35.261719 52.96875 35.160156 C 53.867188 35.046875 55.207031 34.953125 56.738281 34.570312 C 57.132812 34.453125 57.542969 34.324219 57.933594 34.15625 C 58.332031 34.019531 58.742188 33.804688 59.164062 33.59375 C 59.597656 33.390625 60.0625 33.132812 60.53125 32.933594 C 60.769531 32.835938 61.011719 32.738281 61.253906 32.636719 L 61.34375 32.597656 L 61.355469 32.59375 L 61.398438 32.578125 L 61.429688 32.574219 L 61.476562 32.5625 L 61.679688 32.515625 C 61.820312 32.480469 61.953125 32.453125 62.09375 32.421875 C 62.371094 32.351562 62.664062 32.351562 62.957031 32.316406 C 63.246094 32.292969 63.546875 32.320312 63.84375 32.324219 C 64.144531 32.371094 64.449219 32.402344 64.75 32.480469 C 65.042969 32.574219 65.347656 32.644531 65.632812 32.789062 C 66.21875 33.019531 66.742188 33.414062 67.234375 33.828125 C 67.695312 34.285156 68.144531 34.773438 68.460938 35.355469 C 69.144531 36.472656 69.464844 37.78125 69.535156 38.988281 "/><path style=" stroke:none;fill-rule:nonzero;fill:#000000;fill-opacity:1;" d="M 62.597656 42.605469 C 63.546875 41.425781 62.957031 39.042969 61.269531 39.09375 C 60.09375 39.335938 59.203125 40.378906 59.644531 41.644531 C 60.042969 42.761719 61.667969 43.757812 62.597656 42.605469 Z M 61.21875 37.695312 C 64.394531 37.507812 65.773438 42.730469 62.910156 44.132812 C 61.019531 45.050781 58.589844 43.917969 58.242188 41.769531 C 57.917969 39.816406 59.007812 38.023438 61.035156 37.71875 C 61.050781 37.71875 61.066406 37.71875 61.082031 37.71875 C 61.121094 37.707031 61.167969 37.695312 61.21875 37.695312 "/><path style=" stroke:none;fill-rule:nonzero;fill:#000000;fill-opacity:1;" d="M 60.171875 65.589844 C 60.183594 65.644531 59.945312 65.753906 59.5 65.949219 C 59.058594 66.140625 58.417969 66.414062 57.601562 66.71875 C 56.792969 67.027344 55.808594 67.371094 54.667969 67.632812 C 54.101562 67.761719 53.484375 67.863281 52.835938 67.886719 C 52.183594 67.910156 51.476562 67.867188 50.785156 67.582031 C 50.609375 67.515625 50.449219 67.429688 50.285156 67.324219 C 50.203125 67.269531 50.117188 67.214844 50.039062 67.15625 L 49.859375 67 C 49.574219 66.734375 49.34375 66.425781 49.222656 66.046875 C 49.097656 65.671875 49.117188 65.273438 49.203125 64.9375 C 49.296875 64.597656 49.445312 64.304688 49.609375 64.039062 C 50.292969 63.003906 51.128906 62.355469 51.816406 61.816406 C 52.515625 61.289062 53.105469 60.910156 53.515625 60.652344 C 53.925781 60.402344 54.160156 60.273438 54.199219 60.316406 C 54.238281 60.355469 54.058594 60.570312 53.699219 60.898438 C 53.34375 61.226562 52.804688 61.671875 52.167969 62.246094 C 51.550781 62.820312 50.777344 63.511719 50.226562 64.417969 C 49.964844 64.863281 49.796875 65.375 49.953125 65.808594 C 50.023438 66.023438 50.1875 66.234375 50.367188 66.402344 L 50.550781 66.5625 L 50.710938 66.664062 C 50.824219 66.734375 50.949219 66.804688 51.082031 66.855469 C 51.613281 67.074219 52.222656 67.132812 52.808594 67.117188 C 53.398438 67.109375 53.980469 67.023438 54.523438 66.917969 C 55.625 66.714844 56.601562 66.425781 57.429688 66.195312 C 58.253906 65.953125 58.929688 65.761719 59.410156 65.65625 C 59.882812 65.550781 60.164062 65.539062 60.171875 65.589844 "/><path style=" stroke:none;fill-rule:nonzero;fill:#000000;fill-opacity:1;" d="M 42.316406 16.792969 C 46.921875 15.632812 50.777344 15.578125 50.785156 15.773438 C 50.785156 16.015625 47.003906 16.421875 42.511719 17.554688 C 40.261719 18.136719 38.28125 18.828125 36.945312 19.527344 C 35.609375 20.183594 34.882812 20.839844 34.796875 20.742188 C 34.765625 20.699219 34.910156 20.503906 35.199219 20.1875 C 35.335938 20.019531 35.550781 19.855469 35.800781 19.652344 C 36.042969 19.441406 36.339844 19.25 36.667969 19.042969 C 37.996094 18.1875 40.023438 17.386719 42.316406 16.792969 "/><path style=" stroke:none;fill-rule:nonzero;fill:#000000;fill-opacity:1;" d="M 36.390625 69.140625 C 37 69.132812 37.351562 69.09375 37.359375 69.160156 C 37.359375 69.207031 37.042969 69.339844 36.429688 69.449219 C 35.800781 69.566406 34.871094 69.617188 33.746094 69.429688 C 33.1875 69.316406 32.570312 69.183594 31.945312 68.925781 C 31.316406 68.675781 30.667969 68.335938 30.054688 67.878906 C 29.441406 67.433594 28.839844 66.875 28.355469 66.183594 C 28.21875 66.027344 28.121094 65.835938 28.003906 65.65625 C 27.890625 65.480469 27.792969 65.28125 27.703125 65.085938 L 27.558594 64.789062 C 27.5 64.667969 27.480469 64.585938 27.4375 64.484375 C 27.363281 64.292969 27.289062 64.09375 27.214844 63.898438 C 26.9375 63.046875 26.761719 62.214844 26.675781 61.394531 C 26.601562 60.574219 26.605469 59.78125 26.671875 59.035156 C 26.8125 57.535156 27.144531 56.238281 27.445312 55.164062 C 28.082031 53.03125 28.574219 51.753906 28.671875 51.78125 C 28.78125 51.808594 28.480469 53.152344 27.988281 55.304688 C 27.753906 56.378906 27.488281 57.660156 27.390625 59.085938 C 27.351562 59.796875 27.363281 60.546875 27.4375 61.316406 C 27.53125 62.074219 27.707031 62.859375 27.949219 63.621094 C 28.023438 63.816406 28.097656 64.015625 28.171875 64.210938 C 28.210938 64.300781 28.246094 64.421875 28.28125 64.484375 L 28.40625 64.746094 C 28.484375 64.929688 28.570312 65.101562 28.675781 65.257812 C 28.777344 65.421875 28.859375 65.59375 28.980469 65.738281 C 29.40625 66.359375 29.9375 66.875 30.492188 67.300781 C 31.039062 67.738281 31.621094 68.070312 32.199219 68.324219 C 32.769531 68.585938 33.335938 68.746094 33.851562 68.886719 C 34.898438 69.128906 35.789062 69.160156 36.390625 69.140625 "/><path style=" stroke:none;fill-rule:nonzero;fill:#000000;fill-opacity:1;" d="M 34.527344 33.636719 C 36.613281 33.765625 37.902344 33.902344 37.902344 34.007812 C 37.902344 34.117188 36.609375 34.179688 34.511719 34.191406 C 33.472656 34.199219 32.222656 34.191406 30.835938 34.171875 C 29.449219 34.164062 27.9375 34.070312 26.34375 34 C 24.796875 33.921875 23.328125 33.835938 21.980469 33.753906 L 21.433594 33.714844 L 21.664062 33.238281 C 22.148438 32.257812 22.714844 31.4375 23.214844 30.722656 C 23.726562 30.019531 24.175781 29.40625 24.550781 28.890625 C 25.273438 27.878906 25.640625 27.210938 25.71875 27.257812 C 25.78125 27.289062 25.566406 28.003906 24.925781 29.128906 C 24.367188 30.148438 23.398438 31.433594 22.574219 33.042969 C 23.765625 33.089844 25.042969 33.148438 26.378906 33.214844 C 29.5625 33.382812 32.441406 33.527344 34.527344 33.636719 "/></g></svg>