<svg xmlns="http://www.w3.org/2000/svg" xmlns:xlink="http://www.w3.org/1999/xlink" width="128" zoomAndPan="magnify" viewBox="0 0 96 95.999999" height="128" preserveAspectRatio="xMidYMid meet" version="1.2"><defs><clipPath id="a3be2265c2"><path d="M 41.789062 50.1875 L 49.289062 50.1875 L 49.289062 57.6875 L 41.789062 57.6875 Z M 41.789062 50.1875 "/></clipPath><clipPath id="adaeecb93b"><path d="M 16.109375 19.765625 L 88.726562 19.765625 L 88.726562 68.515625 L 16.109375 68.515625 Z M 16.109375 19.765625 "/></clipPath><clipPath id="fb90e71101"><path d="M 16.042969 62 L 78 62 L 78 68 L 16.042969 68 Z M 16.042969 62 "/></clipPath></defs><g id="a9dee74a17"><g clip-rule="nonzero" clip-path="url(#a3be2265c2)"><path style=" stroke:none;fill-rule:nonzero;fill:#000000;fill-opacity:1;" d="M 49.289062 53.9375 C 49.289062 54.433594 49.195312 54.910156 49.003906 55.371094 C 48.8125 55.832031 48.542969 56.234375 48.191406 56.585938 C 47.839844 56.9375 47.433594 57.210938 46.976562 57.402344 C 46.515625 57.589844 46.039062 57.6875 45.539062 57.6875 C 45.042969 57.6875 44.566406 57.589844 44.105469 57.402344 C 43.644531 57.210938 43.238281 56.9375 42.886719 56.585938 C 42.535156 56.234375 42.265625 55.832031 42.074219 55.371094 C 41.886719 54.910156 41.789062 54.433594 41.789062 53.9375 C 41.789062 53.4375 41.886719 52.960938 42.074219 52.5 C 42.265625 52.042969 42.535156 51.636719 42.886719 51.285156 C 43.238281 50.933594 43.644531 50.660156 44.105469 50.472656 C 44.566406 50.28125 45.042969 50.1875 45.539062 50.1875 C 46.039062 50.1875 46.515625 50.28125 46.976562 50.472656 C 47.433594 50.660156 47.839844 50.933594 48.191406 51.285156 C 48.542969 51.636719 48.8125 52.042969 49.003906 52.5 C 49.195312 52.960938 49.289062 53.4375 49.289062 53.9375 Z M 49.289062 53.9375 "/></g><g clip-rule="nonzero" clip-path="url(#adaeecb93b)"><path style=" stroke:none;fill-rule:evenodd;fill:#000000;fill-opacity:1;" d="M 76.253906 63.796875 C 74.28125 62.863281 71.335938 62.910156 68.351562 62.828125 C 58.710938 62.558594 49.003906 61.890625 39.816406 62.738281 C 32.726562 63.394531 26.121094 64.367188 20.0625 65.828125 C 19 66.085938 17.554688 66.226562 16.992188 67.332031 C 20.109375 67.699219 22.761719 66.816406 25.683594 66.183594 C 40.96875 62.859375 60.628906 62.808594 77.394531 64.859375 C 77.335938 64.164062 76.6875 64.003906 76.253906 63.796875 Z M 80.03125 42.867188 C 79.042969 43.140625 77.859375 42.402344 76.519531 42.691406 C 76.804688 43.8125 79.226562 44.164062 79.238281 45.429688 C 79.25 46.347656 77.847656 46.902344 77.921875 47.8125 C 78.355469 47.351562 78.945312 47.113281 79.589844 46.753906 C 80.164062 46.433594 80.84375 45.777344 81.433594 45.78125 C 82.871094 45.792969 84.039062 48.058594 85.210938 48.34375 C 85.285156 46.960938 83.625 46.058594 83.804688 44.988281 C 83.957031 44.082031 85.40625 44.007812 86 43.308594 C 84.933594 43.292969 83.886719 43.257812 82.925781 43.132812 C 82.222656 42.722656 82.125 41.699219 81.609375 41.101562 C 80.972656 41.605469 80.871094 42.636719 80.03125 42.867188 Z M 54.042969 42.25 C 54.582031 42.351562 54.824219 42.753906 55.359375 42.867188 C 55.265625 42.046875 55.339844 41.0625 55.183594 40.304688 C 54.921875 41.074219 54.386719 41.566406 54.042969 42.25 Z M 49.476562 41.191406 C 48.824219 41.628906 47.574219 40.964844 46.929688 41.453125 C 47.65625 41.839844 48.445312 42.167969 48.949219 42.777344 C 48.523438 44.324219 47.789062 45.558594 47.542969 47.285156 C 49.121094 46.25 50.417969 44.9375 52.109375 44.015625 C 53.273438 44.730469 54.570312 45.308594 55.710938 46.046875 C 55.621094 45.695312 55.515625 45.359375 55.359375 45.074219 C 54.949219 45.105469 54.585938 45.421875 54.394531 44.988281 C 54.390625 44.191406 55.460938 44.472656 55.269531 43.484375 C 54.488281 43.15625 53.574219 42.953125 53.164062 42.25 C 53.558594 41.589844 54.113281 41.085938 54.480469 40.394531 C 53.695312 40.398438 52.964844 40.460938 52.285156 40.570312 C 51.378906 39.980469 51.085938 38.773438 50.265625 38.097656 C 49.875 39 50.09375 40.515625 49.476562 41.191406 Z M 37.273438 30.328125 C 36.257812 31.984375 35.664062 34.066406 35.078125 36.15625 C 35.613281 37.175781 36.167969 38.179688 37.007812 38.894531 C 37.371094 37.667969 37.320312 36.027344 37.535156 34.65625 C 38.671875 34.03125 40.621094 34.222656 41.835938 33.683594 C 40.722656 33.246094 39.890625 32.519531 38.941406 31.917969 C 38.792969 31.164062 40.097656 30.210938 39.90625 29.707031 C 39.09375 30.007812 38.269531 31.003906 37.273438 30.328125 Z M 50.355469 27.765625 C 49.484375 28.007812 48.410156 28.046875 47.367188 28.117188 C 47.394531 29.09375 49.128906 29.304688 49.210938 30.238281 C 49.289062 31.105469 47.96875 31.707031 48.070312 32.625 C 49.15625 31.855469 50.65625 31.296875 51.757812 30.679688 C 52.121094 30.476562 52.234375 30.167969 52.636719 30.148438 C 53.824219 30.101562 55.542969 32.035156 56.585938 31.121094 C 56.179688 30.617188 55.582031 29.671875 55.183594 29.265625 C 54.851562 28.933594 54.585938 29.113281 54.566406 28.648438 C 54.539062 27.765625 56.425781 27.34375 56.324219 26.617188 C 55.171875 26.527344 54.066406 27.335938 53.164062 27.148438 C 52.3125 26.96875 52.273438 25.988281 51.582031 25.558594 C 51.144531 26.265625 50.675781 26.941406 50.355469 27.765625 Z M 78.539062 27.148438 C 77.574219 26.332031 76.464844 25.429688 75.726562 24.5 C 75.398438 24.082031 75.265625 23.5 74.851562 23.171875 C 73.796875 22.351562 70.90625 21.859375 69.492188 21.320312 C 69.226562 21.902344 69.195312 22.726562 68.617188 22.996094 C 67.777344 22.78125 67.613281 21.886719 66.949219 21.496094 C 66.589844 21.921875 65.914062 22.4375 65.28125 23.171875 C 64.820312 23.703125 64.171875 24.96875 63.4375 24.675781 C 62.667969 24.371094 63.269531 22.40625 62.996094 21.40625 C 56.078125 22.621094 49.621094 24.945312 43.503906 27.058594 C 42.023438 27.570312 40.195312 28.066406 38.941406 28.824219 C 38.554688 29.058594 37.890625 29.425781 38.0625 29.707031 C 39.070312 29.351562 40.382812 28.421875 41.488281 28.738281 C 41.417969 29.800781 40.207031 30.441406 39.90625 31.5625 C 40.878906 32.585938 42.574219 32.882812 43.417969 34.035156 C 43.171875 34.570312 42.570312 34.320312 42.101562 34.390625 C 40.894531 34.570312 39.503906 35.023438 38.148438 35.007812 C 37.839844 36.695312 38.152344 39.011719 37.007812 39.863281 C 36.007812 39.195312 35.5625 37.964844 34.8125 37.039062 C 32.335938 45.644531 30.433594 54.828125 27.789062 63.269531 C 29.523438 63.394531 30.917969 62.945312 32.617188 62.738281 C 36.746094 62.238281 40.707031 61.773438 44.824219 61.589844 C 51.621094 61.289062 58.183594 61.734375 64.839844 61.765625 C 64.011719 57.625 61.878906 54.796875 59.308594 52.40625 C 58.972656 52.433594 58.835938 52.992188 58.429688 52.671875 C 59.261719 50.042969 57.476562 48.222656 56.234375 46.839844 C 54.546875 46.894531 53.492188 45.539062 52.199219 44.898438 C 51.277344 45.402344 50.480469 46.027344 49.652344 46.664062 C 48.882812 47.257812 48.070312 48.171875 46.929688 48.078125 C 46.863281 46.300781 47.707031 44.679688 48.246094 43.222656 C 47.5 42.324219 45.925781 42.257812 45.523438 41.011719 C 46.101562 40.191406 48.039062 40.636719 49.035156 40.484375 C 49.414062 39.214844 49.25 37.398438 50.179688 36.6875 C 51.148438 37.503906 51.632812 38.8125 52.546875 39.6875 C 53.464844 39.648438 54.265625 39.726562 55.09375 39.777344 C 54.488281 37.886719 53.660156 36.214844 51.847656 35.539062 C 51.359375 35.871094 50.714844 36.519531 49.914062 36.242188 C 49.972656 35.535156 50.765625 35.566406 51.144531 35.183594 C 50.527344 35.128906 49.65625 35.328125 49.300781 35.007812 C 49.605469 34.136719 50.960938 34.324219 52.109375 34.300781 C 53.238281 33.554688 54.335938 32.773438 55.359375 31.917969 C 54.289062 31.785156 53.601562 31.273438 52.636719 31.035156 C 51.835938 31.535156 50.828125 31.945312 49.914062 32.445312 C 49.082031 32.902344 48.054688 33.90625 47.019531 33.242188 C 47.148438 31.957031 47.945312 31.347656 48.335938 30.328125 C 47.691406 29.351562 46.265625 28.703125 46.050781 27.589844 C 47.015625 27.113281 48.589844 27.257812 49.828125 27.058594 C 50.351562 26.222656 50.8125 24.511719 51.757812 24.585938 C 52.582031 24.652344 52.605469 26.070312 53.425781 26.351562 C 54.054688 26.328125 57.496094 25.125 57.816406 26.175781 C 58.066406 26.996094 55.765625 28.078125 55.621094 28.472656 C 56.105469 29.28125 56.671875 30.003906 57.378906 30.59375 C 60.945312 28.261719 64.503906 25.925781 69.757812 25.292969 C 69.800781 24.617188 69.359375 23.421875 70.019531 23.171875 C 70.546875 23.320312 70.410156 24.136719 70.546875 24.675781 C 70.851562 24.742188 71.230469 23.65625 71.777344 23.96875 C 71.738281 24.753906 71.074219 24.910156 70.898438 25.558594 C 74.035156 26.90625 76.898438 28.53125 79.503906 30.414062 C 79.875 30.265625 80.382812 29.691406 80.820312 30.148438 C 80.847656 30.648438 80.304688 30.792969 80.207031 31.296875 C 80.027344 32.21875 80.515625 33.796875 80.730469 35.007812 C 80.96875 36.335938 81.296875 37.566406 81.609375 38.453125 C 81.6875 35.40625 81.214844 32.617188 81.433594 29.707031 C 80.585938 28.804688 79.53125 27.988281 78.539062 27.148438 Z M 68.527344 21.761719 C 68.464844 21.371094 68.8125 21.398438 68.878906 21.140625 C 68.4375 21.085938 68.117188 20.910156 67.648438 20.878906 C 67.863281 21.253906 68.039062 21.664062 68.527344 21.761719 Z M 63.609375 21.40625 C 63.949219 21.859375 63.71875 22.890625 63.785156 23.613281 C 64.535156 22.71875 65.601562 21.671875 66.15625 20.878906 C 65.359375 21.105469 64.257812 21.027344 63.609375 21.40625 Z M 83.367188 42.074219 C 84.480469 42.480469 88.589844 41.566406 88.722656 42.957031 C 88.800781 43.789062 87.566406 43.925781 86.964844 44.191406 C 86.113281 44.566406 85.667969 44.824219 85.035156 45.164062 C 85.367188 46.324219 87.234375 48.316406 86 49.84375 C 83.847656 49.507812 83.144531 47.710938 81.433594 46.929688 C 80.558594 47.429688 79.660156 47.945312 78.800781 48.519531 C 78.011719 49.046875 77.183594 50.085938 76.078125 49.667969 C 75.761719 47.996094 77.363281 46.796875 78.011719 45.515625 C 77.449219 45 76.75 44.527344 76.167969 44.015625 C 75.84375 43.734375 74.574219 42.886719 74.671875 42.160156 C 74.859375 40.796875 78.46875 41.929688 79.589844 41.71875 C 80.050781 41.632812 80.835938 40.839844 80.90625 40.304688 C 80.980469 39.769531 80.5 38.917969 80.292969 38.1875 C 79.648438 35.886719 79.386719 34.050781 79.0625 31.386719 C 76.246094 29.484375 73.21875 27.789062 69.933594 26.351562 C 62.605469 27.460938 58.253906 31.5625 53.164062 34.917969 C 55.5625 36.648438 57.027344 40.460938 56.148438 44.632812 C 57.25 47.089844 59.683594 48.203125 59.835938 51.609375 C 62.777344 54.039062 64.972656 57.214844 65.980469 61.589844 C 68.175781 61.890625 71.1875 61.621094 74.058594 61.945312 C 75.761719 62.132812 80.6875 64.269531 77.660156 65.917969 C 72.878906 65.492188 67.976562 65.074219 62.910156 64.679688 C 57.917969 64.296875 52.699219 64.527344 47.367188 64.769531 C 39.621094 65.125 32.46875 65.699219 25.769531 67.15625 C 23.519531 67.644531 21.285156 68.316406 19.1875 68.480469 C 17.882812 68.578125 16.214844 68.554688 16.113281 67.332031 C 16.03125 66.359375 17.007812 65.871094 17.515625 65.652344 C 20.191406 64.507812 23.558594 64.292969 26.386719 63.535156 C 28.585938 57.878906 29.832031 51.28125 31.652344 44.367188 C 32.300781 41.914062 33.042969 39.335938 33.761719 36.773438 C 34.792969 33.09375 35.691406 29.171875 38.765625 27.589844 C 40.644531 26.621094 42.996094 26.058594 45.175781 25.203125 C 47.320312 24.363281 49.640625 23.832031 51.847656 23.085938 C 56.558594 21.492188 61.097656 20.394531 66.070312 19.816406 C 68.101562 19.582031 69.824219 20.199219 71.777344 20.789062 C 73.128906 21.195312 74.597656 21.5625 75.464844 22.203125 C 76.019531 22.613281 76.320312 23.367188 76.78125 23.878906 C 78.511719 25.804688 80.894531 27.320312 82.574219 29.355469 C 82.433594 32.132812 82.824219 35.144531 82.839844 37.832031 C 82.847656 39.550781 82.535156 41.003906 83.367188 42.074219 "/></g><path style=" stroke:none;fill-rule:evenodd;fill:#ffda00;fill-opacity:1;" d="M 66.15625 20.878906 C 65.601562 21.671875 64.535156 22.71875 63.789062 23.613281 C 63.71875 22.886719 63.949219 21.859375 63.613281 21.40625 C 64.257812 21.027344 65.359375 21.105469 66.15625 20.878906 "/><path style=" stroke:none;fill-rule:evenodd;fill:#ffda00;fill-opacity:1;" d="M 67.648438 20.878906 C 68.117188 20.910156 68.4375 21.085938 68.878906 21.140625 C 68.8125 21.398438 68.464844 21.371094 68.527344 21.761719 C 68.039062 21.664062 67.863281 21.253906 67.648438 20.878906 "/><path style=" stroke:none;fill-rule:evenodd;fill:#5e4893;fill-opacity:1;" d="M 55.09375 51.964844 C 54.925781 52.84375 54.613281 53.742188 54.128906 54.523438 C 53.035156 54.984375 51.316406 54.816406 50.617188 55.671875 C 51.09375 56.667969 52.457031 56.765625 53.074219 57.617188 C 52.957031 58.601562 52.382812 59.542969 52.546875 60.53125 C 54.09375 60.515625 54.859375 58.976562 56.148438 58.410156 C 57.449219 58.839844 58.15625 59.867188 59.660156 60.089844 C 60.046875 58.914062 58.992188 57.792969 58.519531 56.910156 C 59.074219 56.378906 60.003906 56.222656 60.363281 55.496094 C 59.671875 54.746094 58.046875 54.941406 56.761719 54.789062 C 56.199219 53.914062 56.082031 52.59375 55.269531 51.964844 C 55.210938 51.964844 55.152344 51.964844 55.09375 51.964844 Z M 38.414062 44.457031 C 37.621094 45.867188 36.925781 47.378906 36.128906 48.785156 C 34.882812 48.820312 33.574219 48.503906 32.617188 48.960938 C 32.324219 51.003906 34.550781 51.25 35.164062 52.671875 C 34.460938 54.050781 33.253906 54.929688 32.792969 56.554688 C 33.878906 57.1875 34.949219 56.140625 35.867188 55.671875 C 36.898438 55.148438 38.035156 54.742188 38.941406 54.171875 C 40.246094 55.035156 41.589844 55.863281 43.328125 56.292969 C 43.917969 54.386719 42.105469 53.414062 41.398438 52.230469 C 42.480469 51.3125 44.105469 50.949219 44.734375 49.578125 C 43.464844 49.207031 41.917969 49.117188 40.34375 49.050781 C 39.882812 47.421875 39.617188 45.601562 38.675781 44.457031 C 38.589844 44.457031 38.5 44.457031 38.414062 44.457031 Z M 81.433594 29.707031 C 81.214844 32.617188 81.6875 35.40625 81.609375 38.453125 C 81.296875 37.566406 80.96875 36.335938 80.730469 35.007812 C 80.515625 33.796875 80.027344 32.21875 80.207031 31.296875 C 80.304688 30.792969 80.847656 30.648438 80.820312 30.152344 C 80.382812 29.691406 79.875 30.265625 79.503906 30.414062 C 76.898438 28.53125 74.035156 26.910156 70.898438 25.558594 C 71.074219 24.910156 71.738281 24.753906 71.777344 23.96875 C 71.230469 23.65625 70.851562 24.746094 70.546875 24.675781 C 70.410156 24.136719 70.546875 23.320312 70.019531 23.171875 C 69.359375 23.421875 69.800781 24.617188 69.757812 25.292969 C 64.503906 25.925781 60.945312 28.261719 57.378906 30.59375 C 56.671875 30.003906 56.105469 29.28125 55.621094 28.472656 C 55.765625 28.078125 58.066406 26.996094 57.816406 26.175781 C 57.496094 25.125 54.054688 26.328125 53.425781 26.351562 C 52.605469 26.070312 52.582031 24.652344 51.757812 24.585938 C 50.8125 24.511719 50.351562 26.222656 49.828125 27.058594 C 48.589844 27.257812 47.015625 27.113281 46.050781 27.589844 C 46.265625 28.703125 47.691406 29.351562 48.335938 30.328125 C 47.945312 31.347656 47.148438 31.957031 47.015625 33.242188 C 48.054688 33.90625 49.082031 32.902344 49.914062 32.445312 C 50.828125 31.945312 51.835938 31.535156 52.636719 31.035156 C 53.597656 31.273438 54.289062 31.785156 55.359375 31.917969 C 54.335938 32.773438 53.238281 33.554688 52.109375 34.300781 C 50.960938 34.324219 49.605469 34.136719 49.300781 35.007812 C 49.65625 35.328125 50.527344 35.128906 51.144531 35.183594 C 50.765625 35.566406 49.972656 35.535156 49.914062 36.242188 C 50.714844 36.519531 51.359375 35.871094 51.847656 35.539062 C 53.660156 36.214844 54.488281 37.886719 55.09375 39.777344 C 54.265625 39.726562 53.464844 39.648438 52.546875 39.6875 C 51.632812 38.8125 51.148438 37.503906 50.179688 36.6875 C 49.25 37.398438 49.414062 39.214844 49.035156 40.484375 C 48.039062 40.636719 46.101562 40.191406 45.523438 41.011719 C 45.925781 42.257812 47.5 42.324219 48.246094 43.222656 C 47.707031 44.679688 46.863281 46.300781 46.929688 48.078125 C 48.070312 48.171875 48.882812 47.257812 49.652344 46.664062 C 50.480469 46.027344 51.277344 45.402344 52.199219 44.898438 C 53.492188 45.539062 54.546875 46.894531 56.234375 46.84375 C 57.476562 48.222656 59.261719 50.042969 58.429688 52.671875 C 58.835938 52.992188 58.972656 52.433594 59.308594 52.40625 C 61.878906 54.796875 64.011719 57.625 64.839844 61.765625 C 58.183594 61.734375 51.621094 61.289062 44.824219 61.589844 C 40.707031 61.773438 36.746094 62.238281 32.617188 62.738281 C 30.917969 62.945312 29.523438 63.394531 27.789062 63.269531 C 30.433594 54.828125 32.335938 45.644531 34.8125 37.039062 C 35.5625 37.964844 36.007812 39.195312 37.007812 39.863281 C 38.152344 39.011719 37.839844 36.695312 38.148438 35.007812 C 39.503906 35.023438 40.894531 34.570312 42.101562 34.390625 C 42.570312 34.320312 43.171875 34.570312 43.417969 34.035156 C 42.574219 32.882812 40.878906 32.585938 39.90625 31.5625 C 40.207031 30.441406 41.417969 29.800781 41.484375 28.738281 C 40.382812 28.421875 39.070312 29.351562 38.0625 29.707031 C 37.890625 29.425781 38.554688 29.058594 38.941406 28.824219 C 40.195312 28.066406 42.023438 27.570312 43.503906 27.058594 C 49.621094 24.945312 56.078125 22.621094 62.996094 21.40625 C 63.269531 22.40625 62.667969 24.371094 63.4375 24.675781 C 64.171875 24.96875 64.820312 23.703125 65.277344 23.171875 C 65.914062 22.4375 66.589844 21.921875 66.949219 21.496094 C 67.613281 21.886719 67.777344 22.78125 68.617188 22.996094 C 69.195312 22.726562 69.226562 21.902344 69.492188 21.320312 C 70.90625 21.859375 73.796875 22.351562 74.851562 23.171875 C 75.261719 23.5 75.398438 24.082031 75.726562 24.5 C 76.464844 25.429688 77.574219 26.332031 78.535156 27.148438 C 79.53125 27.988281 80.585938 28.804688 81.433594 29.707031 "/><path style=" stroke:none;fill-rule:evenodd;fill:#ffda00;fill-opacity:1;" d="M 51.582031 25.558594 C 52.273438 25.988281 52.3125 26.96875 53.164062 27.148438 C 54.066406 27.335938 55.171875 26.527344 56.324219 26.617188 C 56.425781 27.34375 54.539062 27.765625 54.566406 28.648438 C 54.585938 29.117188 54.851562 28.929688 55.183594 29.265625 C 55.582031 29.671875 56.179688 30.617188 56.585938 31.121094 C 55.542969 32.035156 53.824219 30.101562 52.636719 30.148438 C 52.234375 30.167969 52.121094 30.476562 51.757812 30.679688 C 50.65625 31.296875 49.15625 31.855469 48.070312 32.621094 C 47.96875 31.707031 49.289062 31.105469 49.210938 30.238281 C 49.128906 29.304688 47.394531 29.09375 47.367188 28.117188 C 48.410156 28.046875 49.484375 28.007812 50.355469 27.765625 C 50.675781 26.941406 51.144531 26.265625 51.582031 25.558594 "/><path style=" stroke:none;fill-rule:evenodd;fill:#ffda00;fill-opacity:1;" d="M 39.90625 29.707031 C 40.097656 30.210938 38.792969 31.164062 38.941406 31.917969 C 39.890625 32.519531 40.722656 33.246094 41.835938 33.683594 C 40.621094 34.226562 38.671875 34.03125 37.535156 34.65625 C 37.320312 36.027344 37.371094 37.667969 37.007812 38.894531 C 36.167969 38.179688 35.613281 37.175781 35.078125 36.15625 C 35.664062 34.066406 36.257812 31.984375 37.273438 30.328125 C 38.269531 31.003906 39.09375 30.007812 39.90625 29.707031 "/><path style=" stroke:none;fill-rule:evenodd;fill:#ffda00;fill-opacity:1;" d="M 50.265625 38.097656 C 51.085938 38.773438 51.378906 39.980469 52.285156 40.570312 C 52.964844 40.460938 53.695312 40.398438 54.480469 40.394531 C 54.113281 41.085938 53.558594 41.589844 53.164062 42.25 C 53.574219 42.953125 54.488281 43.15625 55.269531 43.484375 C 55.460938 44.472656 54.390625 44.191406 54.390625 44.988281 C 54.585938 45.421875 54.949219 45.105469 55.359375 45.074219 C 55.515625 45.359375 55.621094 45.695312 55.710938 46.046875 C 54.570312 45.308594 53.273438 44.730469 52.109375 44.015625 C 50.417969 44.9375 49.121094 46.25 47.542969 47.285156 C 47.789062 45.558594 48.523438 44.324219 48.949219 42.777344 C 48.445312 42.167969 47.65625 41.839844 46.929688 41.453125 C 47.574219 40.964844 48.824219 41.628906 49.476562 41.191406 C 50.09375 40.515625 49.875 39 50.265625 38.097656 "/><path style=" stroke:none;fill-rule:evenodd;fill:#5e4893;fill-opacity:1;" d="M 55.183594 40.304688 C 55.339844 41.0625 55.265625 42.046875 55.359375 42.867188 C 54.824219 42.753906 54.582031 42.351562 54.042969 42.25 C 54.386719 41.566406 54.921875 41.074219 55.183594 40.304688 "/><path style=" stroke:none;fill-rule:evenodd;fill:#ffda00;fill-opacity:1;" d="M 81.609375 41.101562 C 82.125 41.699219 82.222656 42.722656 82.925781 43.132812 C 83.886719 43.257812 84.933594 43.292969 86 43.308594 C 85.40625 44.007812 83.957031 44.082031 83.804688 44.988281 C 83.625 46.058594 85.285156 46.960938 85.210938 48.34375 C 84.039062 48.058594 82.871094 45.792969 81.433594 45.78125 C 80.84375 45.777344 80.164062 46.433594 79.589844 46.753906 C 78.945312 47.113281 78.355469 47.351562 77.921875 47.8125 C 77.847656 46.902344 79.25 46.347656 79.238281 45.429688 C 79.226562 44.164062 76.804688 43.8125 76.519531 42.691406 C 77.859375 42.402344 79.042969 43.140625 80.03125 42.867188 C 80.871094 42.636719 80.976562 41.605469 81.609375 41.101562 "/><path style=" stroke:none;fill-rule:evenodd;fill:#000000;fill-opacity:1;" d="M 36.570312 49.492188 C 35.65625 49.804688 34.652344 49.5 33.496094 49.578125 C 34.09375 50.917969 35.742188 51.207031 36.128906 52.757812 C 35.53125 53.804688 34.75 54.667969 34.109375 55.671875 C 35.667969 54.792969 37.359375 54.050781 39.027344 53.289062 C 40.09375 54.074219 41.382812 54.628906 42.628906 55.230469 C 42.207031 53.945312 41.039062 53.417969 40.519531 52.230469 C 41.085938 51.210938 42.320312 50.859375 43.15625 50.109375 C 42.148438 49.917969 40.851562 49.84375 39.90625 49.84375 C 39.054688 48.816406 39.238281 46.746094 38.414062 45.695312 C 37.777344 46.9375 37.308594 48.347656 36.570312 49.492188 Z M 38.675781 44.457031 C 39.617188 45.601562 39.882812 47.421875 40.34375 49.050781 C 41.917969 49.117188 43.464844 49.207031 44.734375 49.578125 C 44.105469 50.949219 42.480469 51.3125 41.398438 52.230469 C 42.105469 53.414062 43.917969 54.386719 43.328125 56.292969 C 41.589844 55.863281 40.246094 55.035156 38.941406 54.171875 C 38.035156 54.742188 36.898438 55.148438 35.867188 55.671875 C 34.949219 56.140625 33.878906 57.1875 32.792969 56.554688 C 33.253906 54.929688 34.460938 54.050781 35.164062 52.671875 C 34.550781 51.25 32.324219 51.003906 32.617188 48.960938 C 33.574219 48.503906 34.882812 48.820312 36.128906 48.785156 C 36.925781 47.378906 37.621094 45.867188 38.414062 44.457031 C 38.5 44.457031 38.589844 44.457031 38.675781 44.457031 "/><path style=" stroke:none;fill-rule:evenodd;fill:#ffda00;fill-opacity:1;" d="M 38.414062 45.695312 C 39.238281 46.746094 39.054688 48.816406 39.90625 49.84375 C 40.851562 49.84375 42.148438 49.917969 43.15625 50.109375 C 42.320312 50.859375 41.085938 51.210938 40.519531 52.230469 C 41.039062 53.417969 42.207031 53.945312 42.628906 55.230469 C 41.382812 54.628906 40.09375 54.074219 39.027344 53.289062 C 37.359375 54.050781 35.667969 54.792969 34.109375 55.671875 C 34.75 54.667969 35.53125 53.804688 36.128906 52.757812 C 35.742188 51.207031 34.09375 50.917969 33.496094 49.578125 C 34.652344 49.5 35.65625 49.804688 36.570312 49.492188 C 37.308594 48.347656 37.777344 46.9375 38.414062 45.695312 "/><path style=" stroke:none;fill-rule:evenodd;fill:#000000;fill-opacity:1;" d="M 54.480469 55.144531 C 53.761719 55.644531 52.53125 55.285156 51.757812 55.851562 C 52.332031 56.429688 53.488281 56.445312 53.691406 57.351562 C 53.851562 58.078125 53.214844 58.871094 53.339844 59.648438 C 53.734375 59.34375 54.09375 58.910156 54.570312 58.585938 C 54.9375 58.335938 55.597656 57.75 55.972656 57.703125 C 57.089844 57.570312 57.964844 58.859375 58.957031 58.941406 C 58.5625 58.191406 58.027344 57.578125 57.640625 56.820312 C 57.996094 56.296875 58.738281 56.160156 59.132812 55.671875 C 58.191406 55.5625 57.152344 55.546875 56.234375 55.410156 C 55.816406 54.859375 55.71875 53.984375 55.269531 53.464844 C 54.898438 54.117188 55.039062 54.75 54.480469 55.144531 Z M 55.269531 51.964844 C 56.082031 52.59375 56.199219 53.914062 56.761719 54.789062 C 58.046875 54.941406 59.671875 54.746094 60.363281 55.496094 C 60.003906 56.222656 59.078125 56.378906 58.519531 56.910156 C 58.992188 57.792969 60.046875 58.914062 59.660156 60.089844 C 58.15625 59.867188 57.449219 58.839844 56.148438 58.410156 C 54.859375 58.976562 54.09375 60.515625 52.546875 60.53125 C 52.382812 59.542969 52.957031 58.601562 53.074219 57.617188 C 52.457031 56.765625 51.09375 56.667969 50.617188 55.671875 C 51.316406 54.816406 53.035156 54.984375 54.128906 54.523438 C 54.613281 53.742188 54.925781 52.84375 55.09375 51.964844 C 55.152344 51.964844 55.210938 51.964844 55.269531 51.964844 "/><path style=" stroke:none;fill-rule:evenodd;fill:#ffda00;fill-opacity:1;" d="M 55.269531 53.464844 C 55.71875 53.984375 55.816406 54.859375 56.238281 55.410156 C 57.152344 55.546875 58.191406 55.5625 59.132812 55.671875 C 58.738281 56.160156 57.996094 56.296875 57.640625 56.820312 C 58.03125 57.578125 58.5625 58.191406 58.957031 58.941406 C 57.964844 58.859375 57.089844 57.570312 55.972656 57.703125 C 55.597656 57.75 54.9375 58.335938 54.570312 58.585938 C 54.09375 58.910156 53.734375 59.34375 53.339844 59.648438 C 53.214844 58.871094 53.851562 58.078125 53.691406 57.351562 C 53.488281 56.445312 52.332031 56.429688 51.757812 55.851562 C 52.53125 55.285156 53.761719 55.644531 54.480469 55.144531 C 55.039062 54.75 54.898438 54.117188 55.269531 53.464844 "/><g clip-rule="nonzero" clip-path="url(#fb90e71101)"><path style=" stroke:none;fill-rule:evenodd;fill:#4f397a;fill-opacity:1;" d="M 77.394531 64.859375 C 60.628906 62.808594 40.96875 62.859375 25.683594 66.183594 C 22.761719 66.816406 20.109375 67.699219 16.992188 67.332031 C 17.554688 66.226562 19 66.085938 20.0625 65.828125 C 26.121094 64.367188 32.726562 63.394531 39.816406 62.738281 C 49.003906 61.890625 58.710938 62.558594 68.351562 62.828125 C 71.335938 62.910156 74.277344 62.863281 76.253906 63.796875 C 76.6875 64.003906 77.335938 64.164062 77.394531 64.859375 "/></g></g></svg>